{
.appVersion = "1286";
DisplayStrings = (
JA,
"R?¿"
);
copyright = "Copyright 2020 The Plus Jakarta Text Project Authors (https://github.com/tokotype/PlusJakartaSans)";
customParameters = (
{
name = vendorID;
value = TOKO;
},
{
name = fsType;
value = (
);
},
{
name = Axes;
value = (
{
Name = Weight;
Tag = wght;
},
{
Name = Italic;
Tag = ital;
}
);
},
{
name = description;
value = "This custom font has been designed for +Jakarta City Branding 2020.";
},
{
name = note;
value = "Generated with version 1.0\012";
},
{
name = "Use Typo Metrics";
value = 1;
},
{
name = license;
value = "This Font Software is licensed under the SIL Open Font License, Version 1.1. This license is available with a FAQ at: http://scripts.sil.org/OFL";
},
{
name = licenseURL;
value = "http://scripts.sil.org/OFL";
}
);
date = "2020-02-14 17:25:21 +0000";
designer = "Gumpita Rahayu";
designerURL = "https://www.tokotypefaces.com";
familyName = "Plus Jakarta Text";
featurePrefixes = (
{
automatic = 1;
code = "languagesystem DFLT dflt;\012";
name = Languagesystems;
}
);
features = (
{
automatic = 1;
code = "feature subs;\012feature sinf;\012feature sups;\012feature numr;\012feature dnom;\012feature frac;\012feature ordn;\012feature pnum;\012feature tnum;\012";
name = aalt;
},
{
automatic = 1;
code = "lookup ccmp_Other_1 {\012	@CombiningTopAccents = [acutecomb brevecomb caroncomb circumflexcomb dieresiscomb dotaccentcomb gravecomb hungarumlautcomb macroncomb ringcomb tildecomb];\012	@CombiningNonTopAccents = [cedillacomb ogonekcomb strokelongcomb strokeshortcomb];\012	sub [i]' @CombiningTopAccents by [idotless];\012	sub [i]' @CombiningNonTopAccents @CombiningTopAccents by [idotless];\012} ccmp_Other_1;\012";
name = ccmp;
},
{
automatic = 1;

glyphs = (
{
glyphname = A;
lastChange = "2020-02-21 18:23:58 +0000";
layers = (
{
anchors = (
{
name = bottom;
position = "{361, 0}";
},
{
name = ogonek;
position = "{638, 10}";
},
{
name = top;
position = "{361, 745}";
}
);
layerId = "30C2FD74-1A74-41AC-9C29-B288AE1DBDD7";
paths = (
{
closed = 1;
nodes = (
"124 0 LINE",
"190 184 LINE",
"531 184 LINE",
"597 0 LINE",
"681 0 LINE",
"403 745 LINE",
"318 745 LINE",
"40 0 LINE"
);
},
{
closed = 1;
nodes = (
"370 681 LINE",
"352 681 LINE",
"506 254 LINE",
"215 254 LINE"
);
}
);
width = 721;
},
{
anchors = (
{
name = bottom;
position = "{376, 0}";
},
{
name = ogonek;
position = "{669, 10}";
},
{
name = top;
position = "{376, 745}";
}
);
layerId = "9398AC28-6BE1-4A79-9C94-3CBC2F226CE7";
paths = (
{
closed = 1;
nodes = (
"179 0 LINE",
"230 152 LINE",
"521 152 LINE",
"572 0 LINE",
"736 0 LINE",
"478 745 LINE",
"273 745 LINE",
"15 0 LINE"
);
},
{
closed = 1;
nodes = (
"398 656 LINE",
"354 656 LINE",
"477 287 LINE",
"274 287 LINE"
);
}
);
width = 751;
},
{
anchors = (
{
name = bottom;
position = "{304, 0}";
},
{
name = ogonek;
position = "{583, 10}";
},
{
name = top;
position = "{436, 745}";
}
);
layerId = "0E6515C6-4BDD-456A-90F7-F5B263F1D284";
paths = (
{
closed = 1;
nodes = (
"70 0 LINE",
"169 184 LINE",
"507 184 LINE",
"540 0 LINE",
"624 0 LINE",
"477 745 LINE",
"393 745 LINE",
"-17 0 LINE"
);
},
{
closed = 1;
nodes = (
"436 681 LINE",
"415 681 LINE",
"493 254 LINE",
"206 254 LINE"
);
}
);
width = 721;
},
{
anchors = (
{
name = bottom;
position = "{317, 0}";
},
{
name = ogonek;
position = "{612, 10}";
},
{
name = top;
position = "{438, 745}";
}
);
layerId = "FF6420B2-C0A6-48EA-9EF6-B9F37DCCE47B";
paths = (
{
closed = 1;
nodes = (
"128 0 LINE",
"206 152 LINE",
"489 152 LINE",
"513 0 LINE",
"677 0 LINE",
"550 745 LINE",
"346 745 LINE",
"-44 0 LINE"
);
},
{
closed = 1;
nodes = (
"463 656 LINE",
"411 656 LINE",
"468 287 LINE",
"274 287 LINE"
);
}
);
width = 751;
}
);
leftKerningGroup = A;
rightKerningGroup = A;
unicode = 0041;
},
{
glyphname = AE;
lastChange = "2020-02-21 16:33:19 +0000";
layers = (
{
layerId = "30C2FD74-1A74-41AC-9C29-B288AE1DBDD7";
paths = (
{
closed = 1;
nodes = (
"124 0 LINE",
"189 184 LINE",
"485 184 LINE",
"485 0 LINE",
"965 0 LINE",
"965 70 LINE",
"565 70 LINE",
"565 338 LINE",
"945 338 LINE",
"945 408 LINE",
"565 408 LINE",
"565 675 LINE",
"965 675 LINE",
"965 745 LINE",
"314 745 LINE",
"40 0 LINE"
);
},
{
closed = 1;
nodes = (
"364 675 LINE",
"485 675 LINE",
"485 254 LINE",
"214 254 LINE"
);
}
);
width = 1040;
},
{
layerId = "0E6515C6-4BDD-456A-90F7-F5B263F1D284";
paths = (
{
closed = 1;
nodes = (
"72 0 LINE",
"176 184 LINE",
"467 184 LINE",
"428 0 LINE",
"908 0 LINE",
"923 70 LINE",
"523 70 LINE",
"580 338 LINE",
"960 338 LINE",
"975 408 LINE",
"595 408 LINE",
"651 675 LINE",
"1051 675 LINE",
"1066 745 LINE",
"415 745 LINE",
"-17 0 LINE"
);
},
{
closed = 1;
nodes = (
"455 675 LINE",
"571 675 LINE",
"482 254 LINE",
"216 254 LINE"
);
}
);
width = 1040;
},
{
layerId = "9398AC28-6BE1-4A79-9C94-3CBC2F226CE7";
paths = (
{
closed = 1;
nodes = (
"179 0 LINE",
"229 152 LINE",
"483 152 LINE",
"483 0 LINE",
"983 0 LINE",
"984 135 LINE",
"638 135 LINE",
"638 306 LINE",
"964 306 LINE",
"964 441 LINE",
"638 441 LINE",
"638 610 LINE",
"984 610 LINE",
"984 745 LINE",
"269 745 LINE",
"15 0 LINE"
);
},
{
closed = 1;
nodes = (
"379 610 LINE",
"483 610 LINE",
"483 287 LINE",
"273 287 LINE"
);
}
);
width = 1034;
},
{
layerId = "FF6420B2-C0A6-48EA-9EF6-B9F37DCCE47B";
paths = (
{
closed = 1;
nodes = (
"125 0 LINE",
"207 152 LINE",
"456 152 LINE",
"424 0 LINE",
"924 0 LINE",
"954 135 LINE",
"608 135 LINE",
"644 306 LINE",
"970 306 LINE",
"999 441 LINE",
"673 441 LINE",
"708 610 LINE",
"1054 610 LINE",
"1083 745 LINE",
"368 745 LINE",
"-44 0 LINE"
);
},
{
closed = 1;
nodes = (
"454 610 LINE",
"553 610 LINE",
"485 287 LINE",
"280 287 LINE"
);
}
);
width = 1034;
}
);
leftKerningGroup = A;
leftMetricsKey = "=A";
rightKerningGroup = E;
rightMetricsKey = "=E";
unicode = 00C6;
},
{
glyphname = B;
lastChange = "2020-02-21 18:23:58 +0000";
layers = (
{
layerId = "30C2FD74-1A74-41AC-9C29-B288AE1DBDD7";
paths = (
{
closed = 1;
nodes = (
"410 0 LINE SMOOTH",
"556 0 OFFCURVE",
"653 83 OFFCURVE",
"653 215 CURVE SMOOTH",
"653 304 OFFCURVE",
"599 380 OFFCURVE",
"510 412 CURVE",
"511 388 LINE",
"582 418 OFFCURVE",
"623 481 OFFCURVE",
"623 558 CURVE SMOOTH",
"623 670 OFFCURVE",
"537 745 OFFCURVE",
"410 745 CURVE SMOOTH",
"95 745 LINE",
"95 0 LINE"
);
},
{
closed = 1;
nodes = (
"175 360 LINE",
"410 360 LINE SMOOTH",
"505 360 OFFCURVE",
"569 302 OFFCURVE",
"569 215 CURVE SMOOTH",
"569 128 OFFCURVE",
"505 70 OFFCURVE",
"410 70 CURVE SMOOTH",
"175 70 LINE"
);
},
{
closed = 1;
nodes = (
"175 675 LINE",
"403 675 LINE SMOOTH",
"485 675 OFFCURVE",
"538 626 OFFCURVE",
"538 553 CURVE SMOOTH",
"538 479 OFFCURVE",
"485 430 OFFCURVE",
"403 430 CURVE SMOOTH",
"175 430 LINE"
);
}
);
width = 708;
},
{
layerId = "9398AC28-6BE1-4A79-9C94-3CBC2F226CE7";
paths = (
{
closed = 1;
nodes = (
"390 0 LINE SMOOTH",
"564 0 OFFCURVE",
"669 85 OFFCURVE",
"669 232 CURVE SMOOTH",
"669 313 OFFCURVE",
"639 388 OFFCURVE",
"520 435 CURVE",
"520 359 LINE",
"604 399 OFFCURVE",
"638 462 OFFCURVE",
"638 527 CURVE SMOOTH",
"638 664 OFFCURVE",
"542 745 OFFCURVE",
"390 745 CURVE SMOOTH",
"70 745 LINE",
"70 0 LINE"
);
},
{
closed = 1;
nodes = (
"225 330 LINE",
"408 330 LINE SMOOTH",
"471 330 OFFCURVE",
"514 291 OFFCURVE",
"514 232 CURVE SMOOTH",
"514 174 OFFCURVE",
"471 135 OFFCURVE",
"408 135 CURVE SMOOTH",
"225 135 LINE"
);
},
{
closed = 1;
nodes = (
"225 615 LINE",
"400 615 LINE SMOOTH",
"450 615 OFFCURVE",
"482 585 OFFCURVE",
"482 540 CURVE SMOOTH",
"482 495 OFFCURVE",
"450 465 OFFCURVE",
"400 465 CURVE SMOOTH",
"225 465 LINE"
);
}
);
width = 709;
},
{
layerId = "0E6515C6-4BDD-456A-90F7-F5B263F1D284";
paths = (
{
closed = 1;
nodes = (
"354 0 LINE SMOOTH",
"515 0 OFFCURVE",
"643 87 OFFCURVE",
"643 241 CURVE SMOOTH",
"643 313 OFFCURVE",
"605 372 OFFCURVE",
"539 406 CURVE",
"535 383 LINE",
"636 415 OFFCURVE",
"683 503 OFFCURVE",
"683 582 CURVE SMOOTH",
"683 673 OFFCURVE",
"609 745 OFFCURVE",
"510 745 CURVE SMOOTH",
"197 745 LINE",
"39 0 LINE"
);
},
{
closed = 1;
nodes = (
"195 360 LINE",
"429 360 LINE SMOOTH",
"510 360 OFFCURVE",
"558 309 OFFCURVE",
"558 240 CURVE SMOOTH",
"558 142 OFFCURVE",
"475 70 OFFCURVE",
"368 70 CURVE SMOOTH",
"134 70 LINE"
);
},
{
closed = 1;
nodes = (
"262 675 LINE",
"489 675 LINE SMOOTH",
"558 675 OFFCURVE",
"598 632 OFFCURVE",
"598 574 CURVE SMOOTH",
"598 485 OFFCURVE",
"523 430 OFFCURVE",
"438 430 CURVE SMOOTH",
"210 430 LINE"
);
}
);
width = 709;
},
{
layerId = "FF6420B2-C0A6-48EA-9EF6-B9F37DCCE47B";
paths = (
{
closed = 1;
nodes = (
"331 0 LINE SMOOTH",
"528 0 OFFCURVE",
"660 104 OFFCURVE",
"660 259 CURVE SMOOTH",
"660 329 OFFCURVE",
"633 372 OFFCURVE",
"563 417 CURVE",
"566 359 LINE",
"645 398 OFFCURVE",
"689 466 OFFCURVE",
"689 552 CURVE SMOOTH",
"689 672 OFFCURVE",
"605 745 OFFCURVE",
"471 745 CURVE SMOOTH",
"169 745 LINE",
"11 0 LINE"
);
},
{
closed = 1;
nodes = (
"236 330 LINE",
"418 330 LINE SMOOTH",
"468 330 OFFCURVE",
"503 296 OFFCURVE",
"503 245 CURVE SMOOTH",
"503 182 OFFCURVE",
"449 135 OFFCURVE",
"376 135 CURVE SMOOTH",
"195 135 LINE"
);
},
{
closed = 1;
nodes = (
"297 615 LINE",
"471 615 LINE SMOOTH",
"511 615 OFFCURVE",
"537 587 OFFCURVE",
"537 549 CURVE SMOOTH",
"537 501 OFFCURVE",
"495 465 OFFCURVE",
"439 465 CURVE SMOOTH",
"265 465 LINE"
);
}
);
width = 710;
}
);
leftKerningGroup = I;
rightKerningGroup = B;
unicode = 0042;
},
{
glyphname = C;
lastChange = "2020-02-21 18:23:58 +0000";
layers = (
{
anchors = (
{
name = bottom;
position = "{437, 0}";
},
{
name = top;
position = "{403, 745}";
}
);
layerId = "30C2FD74-1A74-41AC-9C29-B288AE1DBDD7";
paths = (
{
closed = 1;
nodes = (
"591 -12 OFFCURVE",
"702 80 OFFCURVE",
"740 173 CURVE",
"668 208 LINE",
"630 117 OFFCURVE",
"548 58 OFFCURVE",
"437 58 CURVE SMOOTH",
"270 58 OFFCURVE",
"150 187 OFFCURVE",
"150 372 CURVE SMOOTH",
"150 557 OFFCURVE",
"270 687 OFFCURVE",
"437 687 CURVE SMOOTH",
"548 687 OFFCURVE",
"630 627 OFFCURVE",
"668 536 CURVE",
"740 571 LINE",
"704 661 OFFCURVE",
"593 757 OFFCURVE",
"437 757 CURVE SMOOTH",
"225 757 OFFCURVE",
"70 595 OFFCURVE",
"70 372 CURVE SMOOTH",
"70 149 OFFCURVE",
"225 -12 OFFCURVE",
"437 -12 CURVE SMOOTH"
);
}
);
width = 805;
},
{
anchors = (
{
name = bottom;
position = "{426, 0}";
},
{
name = top;
position = "{425, 745}";
}
);
layerId = "9398AC28-6BE1-4A79-9C94-3CBC2F226CE7";
paths = (
{
closed = 1;
nodes = (
"587 -12 OFFCURVE",
"709 77 OFFCURVE",
"748 187 CURVE",
"611 253 LINE",
"584 181 OFFCURVE",
"517 128 OFFCURVE",
"425 128 CURVE SMOOTH",
"291 128 OFFCURVE",
"200 227 OFFCURVE",
"200 373 CURVE SMOOTH",
"200 518 OFFCURVE",
"291 617 OFFCURVE",
"425 617 CURVE SMOOTH",
"517 617 OFFCURVE",
"584 564 OFFCURVE",
"611 492 CURVE",
"748 558 LINE",
"709 668 OFFCURVE",
"587 757 OFFCURVE",
"425 757 CURVE SMOOTH",
"207 757 OFFCURVE",
"45 595 OFFCURVE",
"45 373 CURVE SMOOTH",
"45 152 OFFCURVE",
"209 -12 OFFCURVE",
"425 -12 CURVE SMOOTH"
);
}
);
width = 788;
},
{
anchors = (
{
name = bottom;
position = "{418, 0}";
},
{
name = top;
position = "{506, 745}";
}
);
background = {
anchors = (
{
name = bottom;
position = "{432, -7}";
},
{
name = top;
position = "{588, 699}";
}
);
};
layerId = "0E6515C6-4BDD-456A-90F7-F5B263F1D284";
paths = (
{
closed = 1;
nodes = (
"539 -12 OFFCURVE",
"656 49 OFFCURVE",
"716 142 CURVE",
"653 185 LINE",
"600 103 OFFCURVE",
"516 57 OFFCURVE",
"424 57 CURVE SMOOTH",
"274 57 OFFCURVE",
"169 164 OFFCURVE",
"169 320 CURVE SMOOTH",
"169 518 OFFCURVE",
"310 687 OFFCURVE",
"496 687 CURVE SMOOTH",
"612 687 OFFCURVE",
"703 617 OFFCURVE",
"721 511 CURVE",
"799 538 LINE",
"776 667 OFFCURVE",
"651 757 OFFCURVE",
"502 757 CURVE SMOOTH",
"274 757 OFFCURVE",
"90 550 OFFCURVE",
"90 316 CURVE SMOOTH",
"90 124 OFFCURVE",
"227 -12 OFFCURVE",
"418 -12 CURVE SMOOTH"
);
}
);
width = 808;
},
{
anchors = (
{
name = bottom;
position = "{412, 0}";
},
{
name = top;
position = "{486, 745}";
}
);
background = {
anchors = (
{
name = bottom;
position = "{388, -3}";
},
{
name = top;
position = "{525, 740}";
}
);
};
layerId = "FF6420B2-C0A6-48EA-9EF6-B9F37DCCE47B";
paths = (
{
closed = 1;
nodes = (
"544 -12 OFFCURVE",
"668 53 OFFCURVE",
"727 155 CURVE",
"606 235 LINE",
"563 166 OFFCURVE",
"495 128 OFFCURVE",
"420 128 CURVE SMOOTH",
"300 128 OFFCURVE",
"221 207 OFFCURVE",
"221 329 CURVE SMOOTH",
"221 501 OFFCURVE",
"323 617 OFFCURVE",
"475 617 CURVE SMOOTH",
"570 617 OFFCURVE",
"643 559 OFFCURVE",
"656 472 CURVE",
"804 524 LINE",
"786 658 OFFCURVE",
"651 757 OFFCURVE",
"486 757 CURVE SMOOTH",
"250 757 OFFCURVE",
"65 557 OFFCURVE",
"65 324 CURVE SMOOTH",
"65 127 OFFCURVE",
"210 -12 OFFCURVE",
"412 -12 CURVE SMOOTH"
);
}
);
width = 793;
}
);
leftKerningGroup = O;
leftMetricsKey = "=O";
rightKerningGroup = C;
unicode = 0043;
},
{
glyphname = D;
lastChange = "2020-02-21 16:33:14 +0000";
layers = (
{
anchors = (
{
name = bottom;
position = "{392, 0}";
},
{
name = center;
position = "{176, 373}";
},
{
name = top;
position = "{392, 745}";
}
);
layerId = "30C2FD74-1A74-41AC-9C29-B288AE1DBDD7";
paths = (
{
closed = 1;
nodes = (
"343 0 LINE SMOOTH",
"567 0 OFFCURVE",
"713 147 OFFCURVE",
"713 373 CURVE SMOOTH",
"713 600 OFFCURVE",
"567 745 OFFCURVE",
"343 745 CURVE SMOOTH",
"95 745 LINE",
"95 0 LINE"
);
},
{
closed = 1;
nodes = (
"175 675 LINE",
"343 675 LINE SMOOTH",
"516 675 OFFCURVE",
"629 554 OFFCURVE",
"629 373 CURVE SMOOTH",
"629 190 OFFCURVE",
"517 70 OFFCURVE",
"343 70 CURVE SMOOTH",
"175 70 LINE"
);
}
);
width = 783;
},
{
anchors = (
{
name = bottom;
position = "{382, 0}";
},
{
name = center;
position = "{182, 373}";
},
{
name = top;
position = "{382, 745}";
}
);
layerId = "9398AC28-6BE1-4A79-9C94-3CBC2F226CE7";
paths = (
{
closed = 1;
nodes = (
"316 0 LINE SMOOTH",
"560 0 OFFCURVE",
"718 157 OFFCURVE",
"718 373 CURVE SMOOTH",
"718 589 OFFCURVE",
"561 745 OFFCURVE",
"316 745 CURVE SMOOTH",
"70 745 LINE",
"70 0 LINE"
);
},
{
closed = 1;
nodes = (
"225 610 LINE",
"320 610 LINE SMOOTH",
"467 610 OFFCURVE",
"563 518 OFFCURVE",
"563 373 CURVE SMOOTH",
"563 228 OFFCURVE",
"467 135 OFFCURVE",
"320 135 CURVE SMOOTH",
"225 135 LINE"
);
}
);
width = 763;
},
{
anchors = (
{
name = bottom;
position = "{337, 0}";
},
{
name = center;
position = "{201, 373}";
},
{
name = top;
position = "{495, 745}";
}
);
layerId = "0E6515C6-4BDD-456A-90F7-F5B263F1D284";
paths = (
{
closed = 1;
nodes = (
"290 0 LINE SMOOTH",
"549 0 OFFCURVE",
"742 187 OFFCURVE",
"742 437 CURVE SMOOTH",
"742 614 OFFCURVE",
"604 745 OFFCURVE",
"445 745 CURVE SMOOTH",
"197 745 LINE",
"41 0 LINE"
);
},
{
closed = 1;
nodes = (
"263 675 LINE",
"431 675 LINE SMOOTH",
"567 675 OFFCURVE",
"657 580 OFFCURVE",
"657 431 CURVE SMOOTH",
"657 227 OFFCURVE",
"504 70 OFFCURVE",
"304 70 CURVE SMOOTH",
"135 70 LINE"
);
}
);
width = 786;
},
{
anchors = (
{
name = bottom;
position = "{323, 0}";
},
{
name = center;
position = "{185, 373}";
},
{
name = top;
position = "{481, 745}";
}
);
layerId = "FF6420B2-C0A6-48EA-9EF6-B9F37DCCE47B";
paths = (
{
closed = 1;
nodes = (
"260 0 LINE SMOOTH",
"546 0 OFFCURVE",
"742 177 OFFCURVE",
"742 437 CURVE SMOOTH",
"742 610 OFFCURVE",
"591 745 OFFCURVE",
"416 745 CURVE SMOOTH",
"169 745 LINE",
"13 0 LINE"
);
},
{
closed = 1;
nodes = (
"296 610 LINE",
"391 610 LINE SMOOTH",
"512 610 OFFCURVE",
"587 539 OFFCURVE",
"587 427 CURVE SMOOTH",
"587 261 OFFCURVE",
"467 135 OFFCURVE",
"292 135 CURVE SMOOTH",
"196 135 LINE"
);
}
);
width = 764;
}
);
leftKerningGroup = I;
rightKerningGroup = O;
unicode = 0044;
},
{
glyphname = Eth;
lastChange = "2020-02-22 06:47:07 +0000";
layers = (
{
layerId = "30C2FD74-1A74-41AC-9C29-B288AE1DBDD7";
paths = (
{
closed = 1;
nodes = (
"343 0 LINE SMOOTH",
"567 0 OFFCURVE",
"713 147 OFFCURVE",
"713 373 CURVE SMOOTH",
"713 600 OFFCURVE",
"567 745 OFFCURVE",
"343 745 CURVE SMOOTH",
"95 745 LINE",
"95 408 LINE",
"-22 408 LINE",
"-22 338 LINE",
"95 338 LINE",
"95 0 LINE"
);
},
{
closed = 1;
nodes = (
"175 338 LINE",
"375 338 LINE",
"375 408 LINE",
"175 408 LINE",
"175 675 LINE",
"343 675 LINE SMOOTH",
"516 675 OFFCURVE",
"629 554 OFFCURVE",
"629 373 CURVE SMOOTH",
"629 190 OFFCURVE",
"517 70 OFFCURVE",
"343 70 CURVE SMOOTH",
"175 70 LINE"
);
}
);
width = 783;
},
{
layerId = "0E6515C6-4BDD-456A-90F7-F5B263F1D284";
paths = (
{
closed = 1;
nodes = (
"290 0 LINE SMOOTH",
"549 0 OFFCURVE",
"742 187 OFFCURVE",
"742 437 CURVE SMOOTH",
"742 614 OFFCURVE",
"604 745 OFFCURVE",
"445 745 CURVE SMOOTH",
"197 745 LINE",
"126 408 LINE",
"10 408 LINE",
"-5 338 LINE",
"112 338 LINE",
"41 0 LINE"
);
},
{
closed = 1;
nodes = (
"192 338 LINE",
"392 338 LINE",
"407 408 LINE",
"207 408 LINE",
"263 675 LINE",
"431 675 LINE SMOOTH",
"567 675 OFFCURVE",
"657 580 OFFCURVE",
"657 431 CURVE SMOOTH",
"657 227 OFFCURVE",
"504 70 OFFCURVE",
"304 70 CURVE SMOOTH",
"135 70 LINE"
);
}
);
width = 786;
},
{
layerId = "9398AC28-6BE1-4A79-9C94-3CBC2F226CE7";
paths = (
{
closed = 1;
nodes = (
"316 0 LINE SMOOTH",
"560 0 OFFCURVE",
"718 157 OFFCURVE",
"718 373 CURVE SMOOTH",
"718 589 OFFCURVE",
"561 745 OFFCURVE",
"316 745 CURVE SMOOTH",
"70 745 LINE",
"70 438 LINE",
"-42 438 LINE",
"-42 308 LINE",
"70 308 LINE",
"70 0 LINE"
);
},
{
closed = 1;
nodes = (
"225 308 LINE",
"406 308 LINE",
"406 438 LINE",
"225 438 LINE",
"225 610 LINE",
"320 610 LINE SMOOTH",
"467 610 OFFCURVE",
"563 518 OFFCURVE",
"563 373 CURVE SMOOTH",
"563 228 OFFCURVE",
"467 135 OFFCURVE",
"320 135 CURVE SMOOTH",
"225 135 LINE"
);
}
);
width = 763;
},
{
layerId = "FF6420B2-C0A6-48EA-9EF6-B9F37DCCE47B";
paths = (
{
closed = 1;
nodes = (
"260 0 LINE SMOOTH",
"546 0 OFFCURVE",
"742 177 OFFCURVE",
"742 437 CURVE SMOOTH",
"742 610 OFFCURVE",
"591 745 OFFCURVE",
"416 745 CURVE SMOOTH",
"169 745 LINE",
"105 438 LINE",
"-25 438 LINE",
"-53 308 LINE",
"77 308 LINE",
"13 0 LINE"
);
},
{
closed = 1;
nodes = (
"232 308 LINE",
"395 308 LINE",
"423 438 LINE",
"260 438 LINE",
"296 610 LINE",
"391 610 LINE SMOOTH",
"512 610 OFFCURVE",
"587 539 OFFCURVE",
"587 427 CURVE SMOOTH",
"587 261 OFFCURVE",
"467 135 OFFCURVE",
"292 135 CURVE SMOOTH",
"196 135 LINE"
);
}
);
width = 764;
}
);
leftKerningGroup = I;
rightKerningGroup = O;
unicode = 00D0;
},
{
glyphname = E;
lastChange = "2020-02-21 16:33:14 +0000";
layers = (
{
anchors = (
{
name = bottom;
position = "{329, 0}";
},
{
name = ogonek;
position = "{581, 10}";
},
{
name = top;
position = "{329, 745}";
}
);
layerId = "30C2FD74-1A74-41AC-9C29-B288AE1DBDD7";
paths = (
{
closed = 1;
nodes = (
"583 0 LINE",
"583 70 LINE",
"175 70 LINE",
"175 338 LINE",
"563 338 LINE",
"563 408 LINE",
"175 408 LINE",
"175 675 LINE",
"583 675 LINE",
"583 745 LINE",
"95 745 LINE",
"95 0 LINE"
);
}
);
width = 658;
},
{
anchors = (
{
name = bottom;
position = "{315, 0}";
},
{
name = ogonek;
position = "{559, 10}";
},
{
name = top;
position = "{315, 745}";
}
);
layerId = "9398AC28-6BE1-4A79-9C94-3CBC2F226CE7";
paths = (
{
closed = 1;
nodes = (
"578 0 LINE",
"579 135 LINE",
"225 135 LINE",
"225 306 LINE",
"559 306 LINE",
"559 441 LINE",
"225 441 LINE",
"225 610 LINE",
"579 610 LINE",
"579 745 LINE",
"70 745 LINE",
"70 0 LINE"
);
}
);
width = 629;
},
{
anchors = (
{
name = bottom;
position = "{272, 0}";
},
{
name = ogonek;
position = "{525, 10}";
},
{
name = top;
position = "{430, 745}";
}
);
layerId = "0E6515C6-4BDD-456A-90F7-F5B263F1D284";
paths = (
{
closed = 1;
nodes = (
"525 0 LINE",
"540 70 LINE",
"134 70 LINE",
"191 338 LINE",
"577 338 LINE",
"592 408 LINE",
"206 408 LINE",
"262 675 LINE",
"668 675 LINE",
"683 745 LINE",
"197 745 LINE",
"39 0 LINE"
);
}
);
width = 657;
},
{
anchors = (
{
name = bottom;
position = "{255, 0}";
},
{
name = ogonek;
position = "{500, 10}";
},
{
name = top;
position = "{413, 745}";
}
);
layerId = "FF6420B2-C0A6-48EA-9EF6-B9F37DCCE47B";
paths = (
{
closed = 1;
nodes = (
"517 0 LINE",
"547 135 LINE",
"195 135 LINE",
"231 306 LINE",
"563 306 LINE",
"592 441 LINE",
"260 441 LINE",
"296 610 LINE",
"647 610 LINE",
"676 745 LINE",
"169 745 LINE",
"11 0 LINE"
);
}
);
width = 627;
}
);
leftKerningGroup = I;
rightKerningGroup = E;
unicode = 0045;
},
{
glyphname = F;
lastChange = "2020-02-21 16:33:14 +0000";
layers = (
{
layerId = "30C2FD74-1A74-41AC-9C29-B288AE1DBDD7";
paths = (
{
closed = 1;
nodes = (
"175 0 LINE",
"175 338 LINE",
"563 338 LINE",
"563 408 LINE",
"175 408 LINE",
"175 675 LINE",
"583 675 LINE",
"583 745 LINE",
"95 745 LINE",
"95 0 LINE"
);
}
);
width = 638;
},
{
layerId = "9398AC28-6BE1-4A79-9C94-3CBC2F226CE7";
paths = (
{
closed = 1;
nodes = (
"225 0 LINE",
"225 286 LINE",
"538 286 LINE",
"538 421 LINE",
"225 421 LINE",
"225 610 LINE",
"588 610 LINE",
"588 745 LINE",
"70 745 LINE",
"70 0 LINE"
);
}
);
width = 618;
},
{
layerId = "0E6515C6-4BDD-456A-90F7-F5B263F1D284";
paths = (
{
closed = 1;
nodes = (
"119 0 LINE",
"191 338 LINE",
"577 338 LINE",
"592 408 LINE",
"206 408 LINE",
"262 675 LINE",
"668 675 LINE",
"683 745 LINE",
"197 745 LINE",
"39 0 LINE"
);
}
);
width = 636;
},
{
layerId = "FF6420B2-C0A6-48EA-9EF6-B9F37DCCE47B";
paths = (
{
closed = 1;
nodes = (
"166 0 LINE",
"227 286 LINE",
"538 286 LINE",
"566 421 LINE",
"255 421 LINE",
"296 610 LINE",
"656 610 LINE",
"685 745 LINE",
"169 745 LINE",
"11 0 LINE"
);
}
);
width = 616;
}
);
leftKerningGroup = I;
rightKerningGroup = F;
unicode = 0046;
},
{
glyphname = G;
lastChange = "2020-02-21 16:33:19 +0000";
layers = (
{
anchors = (
{
name = bottom;
position = "{479, 0}";
},
{
name = top;
position = "{479, 710}";
}
);
layerId = "30C2FD74-1A74-41AC-9C29-B288AE1DBDD7";
paths = (
{
closed = 1;
nodes = (
"593 -12 OFFCURVE",
"714 64 OFFCURVE",
"760 183 CURVE",
"760 384 LINE",
"446 384 LINE",
"446 314 LINE",
"685 314 LINE",
"685 193 LINE",
"647 106 OFFCURVE",
"554 58 OFFCURVE",
"447 58 CURVE SMOOTH",
"272 58 OFFCURVE",
"150 187 OFFCURVE",
"150 372 CURVE SMOOTH",
"150 555 OFFCURVE",
"270 687 OFFCURVE",
"437 687 CURVE SMOOTH",
"543 687 OFFCURVE",
"628 632 OFFCURVE",
"668 536 CURVE",
"740 571 LINE",
"695 682 OFFCURVE",
"576 757 OFFCURVE",
"437 757 CURVE SMOOTH",
"229 757 OFFCURVE",
"70 590 OFFCURVE",
"70 372 CURVE SMOOTH",
"70 153 OFFCURVE",
"232 -12 OFFCURVE",
"447 -12 CURVE SMOOTH"
);
}
);
width = 825;
},
{
anchors = (
{
name = bottom;
position = "{422, 0}";
},
{
name = top;
position = "{422, 710}";
}
);
layerId = "9398AC28-6BE1-4A79-9C94-3CBC2F226CE7";
paths = (
{
closed = 1;
nodes = (
"624 -12 OFFCURVE",
"740 88 OFFCURVE",
"771 210 CURVE",
"771 420 LINE",
"437 420 LINE",
"437 285 LINE",
"621 285 LINE",
"621 220 LINE",
"601 175 OFFCURVE",
"541 128 OFFCURVE",
"435 128 CURVE SMOOTH",
"291 128 OFFCURVE",
"200 227 OFFCURVE",
"200 373 CURVE SMOOTH",
"200 518 OFFCURVE",
"291 617 OFFCURVE",
"425 617 CURVE SMOOTH",
"516 617 OFFCURVE",
"584 564 OFFCURVE",
"611 492 CURVE",
"748 558 LINE",
"708 668 OFFCURVE",
"587 757 OFFCURVE",
"425 757 CURVE SMOOTH",
"207 757 OFFCURVE",
"45 595 OFFCURVE",
"45 373 CURVE SMOOTH",
"45 152 OFFCURVE",
"209 -12 OFFCURVE",
"435 -12 CURVE SMOOTH"
);
}
);
width = 811;
},
{
anchors = (
{
name = bottom;
position = "{426, -5}";
},
{
name = top;
position = "{575, 702}";
}
);
layerId = "0E6515C6-4BDD-456A-90F7-F5B263F1D284";
paths = (
{
closed = 1;
nodes = (
"566 -12 OFFCURVE",
"678 47 OFFCURVE",
"741 150 CURVE",
"790 384 LINE",
"474 383 LINE",
"460 313 LINE",
"700 314 LINE",
"668 168 LINE",
"621 97 OFFCURVE",
"539 57 OFFCURVE",
"442 57 CURVE SMOOTH",
"276 57 OFFCURVE",
"171 157 OFFCURVE",
"171 321 CURVE SMOOTH",
"171 523 OFFCURVE",
"318 687 OFFCURVE",
"498 687 CURVE SMOOTH",
"615 687 OFFCURVE",
"703 619 OFFCURVE",
"723 511 CURVE",
"801 538 LINE",
"779 667 OFFCURVE",
"656 757 OFFCURVE",
"505 757 CURVE SMOOTH",
"280 757 OFFCURVE",
"92 559 OFFCURVE",
"92 321 CURVE SMOOTH",
"92 123 OFFCURVE",
"230 -12 OFFCURVE",
"434 -12 CURVE SMOOTH"
);
}
);
width = 831;
},
{
anchors = (
{
name = bottom;
position = "{367, 1}";
},
{
name = top;
position = "{516, 707}";
}
);
background = {
anchors = (
{
name = bottom;
position = "{367, 1}";
},
{
name = top;
position = "{516, 707}";
}
);
paths = (
{
closed = 1;
nodes = (
"395 -15 OFFCURVE",
"412 -16 OFFCURVE",
"428 -16 CURVE SMOOTH",
"586 -16 OFFCURVE",
"701 66 OFFCURVE",
"751 173 CURVE",
"795 382 LINE",
"471 417 LINE",
"443 282 LINE",
"620 264 LINE",
"606 199 LINE",
"581 161 OFFCURVE",
"525 125 OFFCURVE",
"442 125 CURVE SMOOTH",
"431 125 OFFCURVE",
"420 126 OFFCURVE",
"408 127 CURVE SMOOTH",
"291 139 OFFCURVE",
"225 217 OFFCURVE",
"225 327 CURVE SMOOTH",
"225 348 OFFCURVE",
"227 371 OFFCURVE",
"232 394 CURVE SMOOTH",
"260 529 OFFCURVE",
"355 615 OFFCURVE",
"473 615 CURVE SMOOTH",
"578 615 OFFCURVE",
"641 552 OFFCURVE",
"653 471 CURVE",
"802 522 LINE",
"786 635 OFFCURVE",
"688 736 OFFCURVE",
"529 753 CURVE SMOOTH",
"514 755 OFFCURVE",
"500 755 OFFCURVE",
"485 755 CURVE SMOOTH",
"291 755 OFFCURVE",
"123 616 OFFCURVE",
"79 411 CURVE SMOOTH",
"73 380 OFFCURVE",
"70 351 OFFCURVE",
"70 322 CURVE SMOOTH",
"70 144 OFFCURVE",
"189 8 OFFCURVE",
"378 -13 CURVE SMOOTH"
);
}
);
};
layerId = "FF6420B2-C0A6-48EA-9EF6-B9F37DCCE47B";
paths = (
{
closed = 1;
nodes = (
"575 -12 OFFCURVE",
"699 59 OFFCURVE",
"754 175 CURVE",
"806 420 LINE",
"470 419 LINE",
"442 284 LINE",
"627 285 LINE",
"609 201 LINE",
"578 155 OFFCURVE",
"518 128 OFFCURVE",
"432 128 CURVE SMOOTH",
"298 128 OFFCURVE",
"220 206 OFFCURVE",
"220 340 CURVE SMOOTH",
"220 494 OFFCURVE",
"332 617 OFFCURVE",
"472 617 CURVE SMOOTH",
"569 617 OFFCURVE",
"642 560 OFFCURVE",
"656 473 CURVE",
"805 524 LINE",
"785 660 OFFCURVE",
"652 757 OFFCURVE",
"484 757 CURVE SMOOTH",
"247 757 OFFCURVE",
"65 560 OFFCURVE",
"65 325 CURVE SMOOTH",
"65 123 OFFCURVE",
"222 -12 OFFCURVE",
"418 -12 CURVE SMOOTH"
);
}
);
width = 816;
}
);
leftKerningGroup = O;
leftMetricsKey = "=O";
rightKerningGroup = G;
unicode = 0047;
},
{
glyphname = H;
lastChange = "2020-02-21 16:33:14 +0000";
layers = (
{
anchors = (
{
name = bottom;
position = "{355, 0}";
},
{
name = center;
position = "{355, 536}";
},
{
name = top;
position = "{355, 710}";
}
);
layerId = "30C2FD74-1A74-41AC-9C29-B288AE1DBDD7";
paths = (
{
closed = 1;
nodes = (
"175 0 LINE",
"175 320 LINE",
"583 320 LINE",
"583 0 LINE",
"663 0 LINE",
"663 745 LINE",
"583 745 LINE",
"583 390 LINE",
"175 390 LINE",
"175 745 LINE",
"95 745 LINE",
"95 0 LINE"
);
}
);
width = 758;
},
{
anchors = (
{
name = bottom;
position = "{371, 0}";
},
{
name = center;
position = "{371, 563}";
},
{
name = top;
position = "{371, 710}";
}
);
layerId = "9398AC28-6BE1-4A79-9C94-3CBC2F226CE7";
paths = (
{
closed = 1;
nodes = (
"225 0 LINE",
"225 288 LINE",
"523 288 LINE",
"523 0 LINE",
"678 0 LINE",
"678 745 LINE",
"523 745 LINE",
"523 423 LINE",
"225 423 LINE",
"225 745 LINE",
"70 745 LINE",
"70 0 LINE"
);
}
);
width = 748;
},
{
anchors = (
{
name = bottom;
position = "{299, 0}";
},
{
name = center;
position = "{413, 536}";
},
{
name = top;
position = "{450, 710}";
}
);
layerId = "0E6515C6-4BDD-456A-90F7-F5B263F1D284";
paths = (
{
closed = 1;
nodes = (
"119 0 LINE",
"187 320 LINE",
"593 320 LINE",
"525 0 LINE",
"605 0 LINE",
"763 745 LINE",
"683 745 LINE",
"608 390 LINE",
"202 390 LINE",
"277 745 LINE",
"197 745 LINE",
"39 0 LINE"
);
}
);
width = 757;
},
{
anchors = (
{
name = bottom;
position = "{312, 0}";
},
{
name = center;
position = "{430, 563}";
},
{
name = top;
position = "{463, 710}";
}
);
layerId = "FF6420B2-C0A6-48EA-9EF6-B9F37DCCE47B";
paths = (
{
closed = 1;
nodes = (
"166 0 LINE",
"227 288 LINE",
"523 288 LINE",
"462 0 LINE",
"617 0 LINE",
"775 745 LINE",
"620 745 LINE",
"552 423 LINE",
"256 423 LINE",
"324 745 LINE",
"169 745 LINE",
"11 0 LINE"
);
}
);
width = 746;
}
);
leftKerningGroup = I;
rightKerningGroup = I;
unicode = 0048;
},
{
glyphname = I;
lastChange = "2020-02-21 16:33:14 +0000";
layers = (
{
anchors = (
{
name = bottom;
position = "{136, 0}";
},
{
name = top;
position = "{136, 745}";
}
);
layerId = "30C2FD74-1A74-41AC-9C29-B288AE1DBDD7";
paths = (
{
closed = 1;
nodes = (
"176 0 LINE",
"176 745 LINE",
"95 745 LINE",
"95 0 LINE"
);
}
);
width = 271;
},
{
anchors = (
{
name = bottom;
position = "{149, 0}";
},
{
name = top;
position = "{149, 745}";
}
);
layerId = "9398AC28-6BE1-4A79-9C94-3CBC2F226CE7";
paths = (
{
closed = 1;
nodes = (
"226 0 LINE",
"226 745 LINE",
"70 745 LINE",
"70 0 LINE"
);
}
);
width = 296;
},
{
anchors = (
{
name = bottom;
position = "{79, 0}";
},
{
name = top;
position = "{237, 745}";
}
);
layerId = "0E6515C6-4BDD-456A-90F7-F5B263F1D284";
paths = (
{
closed = 1;
nodes = (
"120 0 LINE",
"278 745 LINE",
"197 745 LINE",
"39 0 LINE"
);
}
);
width = 272;
},
{
anchors = (
{
name = bottom;
position = "{89, 0}";
},
{
name = top;
position = "{247, 745}";
}
);
layerId = "FF6420B2-C0A6-48EA-9EF6-B9F37DCCE47B";
paths = (
{
closed = 1;
nodes = (
"167 0 LINE",
"325 745 LINE",
"169 745 LINE",
"11 0 LINE"
);
}
);
width = 296;
}
);
leftKerningGroup = I;
rightKerningGroup = I;
unicode = 0049;
},
{
glyphname = J;
lastChange = "2020-02-22 06:55:23 +0000";
layers = (
{
anchors = (
{
name = bottom;
position = "{299, 0}";
},
{
name = top;
position = "{468, 710}";
}
);
layerId = "30C2FD74-1A74-41AC-9C29-B288AE1DBDD7";
paths = (
{
closed = 1;
nodes = (
"409 -12 OFFCURVE",
"499 75 OFFCURVE",
"499 205 CURVE SMOOTH",
"499 745 LINE",
"419 745 LINE",
"419 205 LINE SMOOTH",
"419 117 OFFCURVE",
"361 58 OFFCURVE",
"276 58 CURVE SMOOTH",
"185 58 OFFCURVE",
"140 120 OFFCURVE",
"119 215 CURVE",
"45 193 LINE",
"65 77 OFFCURVE",
"138 -12 OFFCURVE",
"276 -12 CURVE SMOOTH"
);
}
);
width = 594;
},
{
anchors = (
{
name = bottom;
position = "{332, 0}";
},
{
name = top;
position = "{495, 710}";
}
);
layerId = "9398AC28-6BE1-4A79-9C94-3CBC2F226CE7";
paths = (
{
closed = 1;
nodes = (
"460 -12 OFFCURVE",
"567 90 OFFCURVE",
"567 245 CURVE SMOOTH",
"567 745 LINE",
"412 745 LINE",
"412 245 LINE SMOOTH",
"412 172 OFFCURVE",
"368 128 OFFCURVE",
"298 128 CURVE SMOOTH",
"229 128 OFFCURVE",
"182 170 OFFCURVE",
"164 248 CURVE",
"20 209 LINE",
"45 72 OFFCURVE",
"150 -12 OFFCURVE",
"298 -12 CURVE SMOOTH"
);
}
);
width = 637;
},
{
anchors = (
{
name = bottom;
position = "{246, 4}";
},
{
name = top;
position = "{561, 685}";
}
);
layerId = "0E6515C6-4BDD-456A-90F7-F5B263F1D284";
paths = (
{
closed = 1;
nodes = (
"367 -12 OFFCURVE",
"461 63 OFFCURVE",
"486 181 CURVE SMOOTH",
"606 745 LINE",
"525 745 LINE",
"406 189 LINE SMOOTH",
"387 100 OFFCURVE",
"328 58 OFFCURVE",
"253 58 CURVE SMOOTH",
"148 58 OFFCURVE",
"113 129 OFFCURVE",
"112 229 CURVE",
"34 215 LINE",
"29 73 OFFCURVE",
"112 -12 OFFCURVE",
"251 -12 CURVE SMOOTH"
);
}
);
width = 599;
},
{
anchors = (
{
name = bottom;
position = "{277, 3}";
},
{
name = top;
position = "{587, 685}";
}
);
layerId = "FF6420B2-C0A6-48EA-9EF6-B9F37DCCE47B";
paths = (
{
closed = 1;
nodes = (
"421 -12 OFFCURVE",
"531 75 OFFCURVE",
"561 215 CURVE SMOOTH",
"673 745 LINE",
"515 745 LINE",
"407 231 LINE SMOOTH",
"393 165 OFFCURVE",
"347 127 OFFCURVE",
"287 127 CURVE SMOOTH",
"206 127 OFFCURVE",
"163 179 OFFCURVE",
"162 259 CURVE",
"11 236 LINE",
"8 81 OFFCURVE",
"119 -12 OFFCURVE",
"279 -12 CURVE SMOOTH"
);
}
);
width = 644;
}
);
leftKerningGroup = J;
rightKerningGroup = J;
unicode = 004A;
},
{
glyphname = K;
lastChange = "2020-02-21 18:23:59 +0000";
layers = (
{
layerId = "30C2FD74-1A74-41AC-9C29-B288AE1DBDD7";
paths = (
{
closed = 1;
nodes = (
"175 0 LINE",
"175 264 LINE",
"306 406 LINE",
"560 0 LINE",
"654 0 LINE",
"360 467 LINE",
"613 745 LINE",
"517 745 LINE",
"151 347 LINE",
"175 338 LINE",
"175 745 LINE",
"95 745 LINE",
"95 0 LINE"
);
}
);
width = 689;
},
{
layerId = "9398AC28-6BE1-4A79-9C94-3CBC2F226CE7";
paths = (
{
closed = 1;
nodes = (
"225 0 LINE",
"225 224 LINE",
"315 329 LINE",
"504 0 LINE",
"678 0 LINE",
"415 450 LINE",
"665 745 LINE",
"487 745 LINE",
"182 389 LINE",
"225 374 LINE",
"225 745 LINE",
"70 745 LINE",
"70 0 LINE"
);
}
);
width = 688;
},
{
layerId = "0E6515C6-4BDD-456A-90F7-F5B263F1D284";
paths = (
{
closed = 1;
nodes = (
"119 0 LINE",
"175 264 LINE",
"343 412 LINE",
"511 0 LINE",
"597 0 LINE",
"403 467 LINE",
"714 745 LINE",
"618 745 LINE",
"169 357 LINE",
"191 338 LINE",
"277 745 LINE",
"197 745 LINE",
"39 0 LINE"
);
}
);
width = 689;
},
{
layerId = "FF6420B2-C0A6-48EA-9EF6-B9F37DCCE47B";
paths = (
{
closed = 1;
nodes = (
"166 0 LINE",
"213 224 LINE",
"339 338 LINE",
"457 0 LINE",
"618 0 LINE",
"451 450 LINE",
"753 745 LINE",
"565 745 LINE",
"206 399 LINE",
"245 374 LINE",
"324 745 LINE",
"169 745 LINE",
"11 0 LINE"
);
}
);
width = 687;
}
);
leftKerningGroup = I;
rightKerningGroup = K;
unicode = 004B;
},
{
glyphname = L;
lastChange = "2020-02-21 16:33:14 +0000";
layers = (
{
anchors = (
{
name = bottom;
position = "{277, 0}";
},
{
name = center;
position = "{134, 373}";
},
{
name = top;
position = "{107, 710}";
}
);
layerId = "30C2FD74-1A74-41AC-9C29-B288AE1DBDD7";
paths = (
{
closed = 1;
nodes = (
"513 0 LINE",
"513 70 LINE",
"175 70 LINE",
"175 745 LINE",
"95 745 LINE",
"95 0 LINE"
);
}
);
width = 568;
},
{
anchors = (
{
name = bottom;
position = "{314, 0}";
},
{
name = center;
position = "{146, 355}";
},
{
name = top;
position = "{156, 710}";
}
);
layerId = "9398AC28-6BE1-4A79-9C94-3CBC2F226CE7";
paths = (
{
closed = 1;
nodes = (
"568 0 LINE",
"568 135 LINE",
"225 135 LINE",
"225 745 LINE",
"70 745 LINE",
"70 0 LINE"
);
}
);
width = 598;
},
{
anchors = (
{
name = bottom;
position = "{221, 0}";
},
{
name = center;
position = "{158, 373}";
},
{
name = top;
position = "{202, 710}";
}
);
layerId = "0E6515C6-4BDD-456A-90F7-F5B263F1D284";
paths = (
{
closed = 1;
nodes = (
"457 0 LINE",
"472 70 LINE",
"134 70 LINE",
"277 745 LINE",
"197 745 LINE",
"39 0 LINE"
);
}
);
width = 569;
},
{
anchors = (
{
name = bottom;
position = "{255, 0}";
},
{
name = center;
position = "{171, 355}";
},
{
name = top;
position = "{248, 710}";
}
);
layerId = "FF6420B2-C0A6-48EA-9EF6-B9F37DCCE47B";
paths = (
{
closed = 1;
nodes = (
"509 0 LINE",
"537 135 LINE",
"195 135 LINE",
"324 745 LINE",
"169 745 LINE",
"11 0 LINE"
);
}
);
width = 598;
}
);
leftKerningGroup = I;
rightKerningGroup = L;
unicode = 004C;
},
{
glyphname = Lslash;
lastChange = "2020-02-22 06:46:23 +0000";
layers = (
{
layerId = "30C2FD74-1A74-41AC-9C29-B288AE1DBDD7";
paths = (
{
closed = 1;
nodes = (
"513 0 LINE",
"513 70 LINE",
"175 70 LINE",
"175 349 LINE",
"318 388 LINE",
"318 458 LINE",
"175 419 LINE",
"175 745 LINE",
"95 745 LINE",
"95 397 LINE",
"-50 358 LINE",
"-50 288 LINE",
"95 327 LINE",
"95 0 LINE"
);
}
);
width = 568;
},
{
layerId = "0E6515C6-4BDD-456A-90F7-F5B263F1D284";
paths = (
{
closed = 1;
nodes = (
"457 0 LINE",
"472 70 LINE",
"134 70 LINE",
"193 349 LINE",
"345 388 LINE",
"360 458 LINE",
"208 419 LINE",
"277 745 LINE",
"197 745 LINE",
"123 397 LINE",
"-29 358 LINE",
"-44 288 LINE",
"108 327 LINE",
"39 0 LINE"
);
}
);
width = 569;
},
{
layerId = "9398AC28-6BE1-4A79-9C94-3CBC2F226CE7";
paths = (
{
closed = 1;
nodes = (
"568 0 LINE",
"568 135 LINE",
"225 135 LINE",
"225 310 LINE",
"346 340 LINE",
"346 470 LINE",
"225 440 LINE",
"225 745 LINE",
"70 745 LINE",
"70 401 LINE",
"-54 370 LINE",
"-54 240 LINE",
"70 271 LINE",
"70 0 LINE"
);
}
);
width = 598;
},
{
layerId = "FF6420B2-C0A6-48EA-9EF6-B9F37DCCE47B";
paths = (
{
closed = 1;
nodes = (
"509 0 LINE",
"537 135 LINE",
"195 135 LINE",
"231 308 LINE",
"368 340 LINE",
"395 470 LINE",
"259 438 LINE",
"324 745 LINE",
"169 745 LINE",
"96 399 LINE",
"-26 370 LINE",
"-53 240 LINE",
"68 269 LINE",
"11 0 LINE"
);
}
);
width = 598;
}
);
leftKerningGroup = I;
rightKerningGroup = L;
unicode = 0141;
},
{
glyphname = M;
lastChange = "2020-02-21 16:33:14 +0000";
layers = (
{
layerId = "30C2FD74-1A74-41AC-9C29-B288AE1DBDD7";
paths = (
{
closed = 1;
nodes = (
"410 339 LINE",
"448 339 LINE",
"165 745 LINE",
"95 745 LINE",
"95 0 LINE",
"175 0 LINE",
"175 637 LINE",
"150 627 LINE",
"427 230 LINE",
"431 230 LINE",
"709 627 LINE",
"683 637 LINE",
"683 0 LINE",
"763 0 LINE",
"763 745 LINE",
"693 745 LINE"
);
}
);
width = 858;
},
{
layerId = "9398AC28-6BE1-4A79-9C94-3CBC2F226CE7";
paths = (
{
closed = 1;
nodes = (
"421 375 LINE",
"505 375 LINE",
"220 745 LINE",
"70 745 LINE",
"70 0 LINE",
"225 0 LINE",
"225 574 LINE",
"173 560 LINE",
"454 190 LINE",
"474 190 LINE",
"765 560 LINE",
"703 574 LINE",
"703 0 LINE",
"858 0 LINE",
"858 745 LINE",
"708 745 LINE"
);
}
);
width = 928;
},
{
layerId = "0E6515C6-4BDD-456A-90F7-F5B263F1D284";
paths = (
{
closed = 1;
nodes = (
"415 339 LINE",
"463 339 LINE",
"267 745 LINE",
"197 745 LINE",
"39 0 LINE",
"119 0 LINE",
"254 637 LINE",
"227 627 LINE",
"419 230 LINE",
"423 230 LINE",
"784 617 LINE",
"760 637 LINE",
"625 0 LINE",
"705 0 LINE",
"863 745 LINE",
"793 745 LINE"
);
}
);
width = 857;
},
{
layerId = "FF6420B2-C0A6-48EA-9EF6-B9F37DCCE47B";
paths = (
{
closed = 1;
nodes = (
"431 375 LINE",
"525 375 LINE",
"319 745 LINE",
"169 745 LINE",
"11 0 LINE",
"166 0 LINE",
"288 574 LINE",
"233 560 LINE",
"434 190 LINE",
"454 190 LINE",
"823 560 LINE",
"764 574 LINE",
"642 0 LINE",
"797 0 LINE",
"955 745 LINE",
"795 745 LINE"
);
}
);
width = 926;
}
);
leftKerningGroup = I;
rightKerningGroup = I;
unicode = 004D;
},
{
glyphname = N;
lastChange = "2020-02-21 16:33:14 +0000";
layers = (
{
anchors = (
{
name = bottom;
position = "{379, 0}";
},
{
name = top;
position = "{379, 745}";
}
);
layerId = "30C2FD74-1A74-41AC-9C29-B288AE1DBDD7";
paths = (
{
closed = 1;
nodes = (
"583 118 LINE",
"607 118 LINE",
"165 745 LINE",
"95 745 LINE",
"95 0 LINE",
"175 0 LINE",
"175 631 LINE",
"151 631 LINE",
"593 0 LINE",
"663 0 LINE",
"663 745 LINE",
"583 745 LINE"
);
}
);
width = 758;
},
{
anchors = (
{
name = bottom;
position = "{379, 0}";
},
{
name = top;
position = "{379, 745}";
}
);
layerId = "9398AC28-6BE1-4A79-9C94-3CBC2F226CE7";
paths = (
{
closed = 1;
nodes = (
"533 203 LINE",
"592 218 LINE",
"189 745 LINE",
"70 745 LINE",
"70 0 LINE",
"225 0 LINE",
"225 546 LINE",
"166 531 LINE",
"568 0 LINE",
"688 0 LINE",
"688 745 LINE",
"533 745 LINE"
);
}
);
width = 758;
},
{
anchors = (
{
name = bottom;
position = "{322, 0}";
},
{
name = top;
position = "{480, 745}";
}
);
layerId = "0E6515C6-4BDD-456A-90F7-F5B263F1D284";
paths = (
{
closed = 1;
nodes = (
"550 118 LINE",
"574 98 LINE",
"267 745 LINE",
"197 745 LINE",
"39 0 LINE",
"119 0 LINE",
"253 631 LINE",
"229 651 LINE",
"535 0 LINE",
"605 0 LINE",
"763 745 LINE",
"683 745 LINE"
);
}
);
width = 757;
},
{
anchors = (
{
name = bottom;
position = "{319, 0}";
},
{
name = top;
position = "{477, 745}";
}
);
layerId = "FF6420B2-C0A6-48EA-9EF6-B9F37DCCE47B";
paths = (
{
closed = 1;
nodes = (
"515 203 LINE",
"576 198 LINE",
"288 745 LINE",
"169 745 LINE",
"11 0 LINE",
"166 0 LINE",
"283 546 LINE",
"221 551 LINE",
"507 0 LINE",
"627 0 LINE",
"785 745 LINE",
"630 745 LINE"
);
}
);
width = 756;
}
);
leftKerningGroup = I;
rightKerningGroup = I;
unicode = 004E;
},
{
glyphname = O;
lastChange = "2020-02-21 16:33:14 +0000";
layers = (
{
anchors = (
{
name = bottom;
position = "{447, 0}";
},
{
name = center;
position = "{447, 373}";
},
{
name = top;
position = "{447, 745}";
}
);
layerId = "30C2FD74-1A74-41AC-9C29-B288AE1DBDD7";
paths = (
{
closed = 1;
nodes = (
"656 -12 OFFCURVE",
"824 149 OFFCURVE",
"824 373 CURVE SMOOTH",
"824 596 OFFCURVE",
"656 757 OFFCURVE",
"447 757 CURVE SMOOTH",
"238 757 OFFCURVE",
"70 597 OFFCURVE",
"70 373 CURVE SMOOTH",
"70 148 OFFCURVE",
"238 -12 OFFCURVE",
"447 -12 CURVE SMOOTH"
);
},
{
closed = 1;
nodes = (
"273 63 OFFCURVE",
"150 202 OFFCURVE",
"150 373 CURVE SMOOTH",
"150 542 OFFCURVE",
"272 682 OFFCURVE",
"447 682 CURVE SMOOTH",
"622 682 OFFCURVE",
"744 542 OFFCURVE",
"744 373 CURVE SMOOTH",
"744 202 OFFCURVE",
"621 63 OFFCURVE",
"447 63 CURVE SMOOTH"
);
}
);
width = 894;
},
{
anchors = (
{
name = bottom;
position = "{444, 0}";
},
{
name = center;
position = "{444, 373}";
},
{
name = top;
position = "{444, 745}";
}
);
layerId = "9398AC28-6BE1-4A79-9C94-3CBC2F226CE7";
paths = (
{
closed = 1;
nodes = (
"671 -12 OFFCURVE",
"843 154 OFFCURVE",
"843 373 CURVE SMOOTH",
"843 592 OFFCURVE",
"672 757 OFFCURVE",
"444 757 CURVE SMOOTH",
"216 757 OFFCURVE",
"45 592 OFFCURVE",
"45 373 CURVE SMOOTH",
"45 154 OFFCURVE",
"217 -12 OFFCURVE",
"444 -12 CURVE SMOOTH"
);
},
{
closed = 1;
nodes = (
"306 128 OFFCURVE",
"200 229 OFFCURVE",
"200 373 CURVE SMOOTH",
"200 517 OFFCURVE",
"306 617 OFFCURVE",
"444 617 CURVE SMOOTH",
"582 617 OFFCURVE",
"688 517 OFFCURVE",
"688 373 CURVE SMOOTH",
"688 229 OFFCURVE",
"582 128 OFFCURVE",
"444 128 CURVE SMOOTH"
);
}
);
width = 888;
},
{
anchors = (
{
name = bottom;
position = "{394, 0}";
},
{
name = center;
position = "{473, 373}";
},
{
name = top;
position = "{552, 745}";
}
);
layerId = "0E6515C6-4BDD-456A-90F7-F5B263F1D284";
paths = (
{
closed = 1;
nodes = (
"663 -12 OFFCURVE",
"852 181 OFFCURVE",
"852 418 CURVE SMOOTH",
"852 618 OFFCURVE",
"706 757 OFFCURVE",
"512 757 CURVE SMOOTH",
"281 757 OFFCURVE",
"93 564 OFFCURVE",
"93 328 CURVE SMOOTH",
"93 126 OFFCURVE",
"239 -12 OFFCURVE",
"432 -12 CURVE SMOOTH"
);
},
{
closed = 1;
nodes = (
"279 63 OFFCURVE",
"173 183 OFFCURVE",
"173 337 CURVE SMOOTH",
"173 526 OFFCURVE",
"323 682 OFFCURVE",
"505 682 CURVE SMOOTH",
"666 682 OFFCURVE",
"771 562 OFFCURVE",
"771 409 CURVE SMOOTH",
"771 220 OFFCURVE",
"622 63 OFFCURVE",
"440 63 CURVE SMOOTH"
);
}
);
width = 900;
},
{
anchors = (
{
name = bottom;
position = "{389, 0}";
},
{
name = center;
position = "{468, 373}";
},
{
name = top;
position = "{547, 745}";
}
);
layerId = "FF6420B2-C0A6-48EA-9EF6-B9F37DCCE47B";
paths = (
{
closed = 1;
nodes = (
"669 -12 OFFCURVE",
"869 179 OFFCURVE",
"869 415 CURVE SMOOTH",
"869 613 OFFCURVE",
"719 757 OFFCURVE",
"507 757 CURVE SMOOTH",
"262 757 OFFCURVE",
"66 566 OFFCURVE",
"66 331 CURVE SMOOTH",
"66 133 OFFCURVE",
"216 -12 OFFCURVE",
"427 -12 CURVE SMOOTH"
);
},
{
closed = 1;
nodes = (
"314 128 OFFCURVE",
"222 215 OFFCURVE",
"222 344 CURVE SMOOTH",
"222 496 OFFCURVE",
"341 617 OFFCURVE",
"493 617 CURVE SMOOTH",
"619 617 OFFCURVE",
"713 531 OFFCURVE",
"713 402 CURVE SMOOTH",
"713 250 OFFCURVE",
"593 128 OFFCURVE",
"442 128 CURVE SMOOTH"
);
}
);
width = 894;
}
);
leftKerningGroup = O;
rightKerningGroup = O;
unicode = 004F;
},
{
glyphname = OE;
lastChange = "2020-02-21 16:33:14 +0000";
layers = (
{
layerId = "30C2FD74-1A74-41AC-9C29-B288AE1DBDD7";
paths = (
{
closed = 1;
nodes = (
"573 -12 OFFCURVE",
"688 52 OFFCURVE",
"755 156 CURVE",
"741 172 LINE",
"741 0 LINE",
"1221 0 LINE",
"1221 70 LINE",
"821 70 LINE",
"821 338 LINE",
"1201 338 LINE",
"1201 408 LINE",
"821 408 LINE",
"821 675 LINE",
"1221 675 LINE",
"1221 745 LINE",
"741 745 LINE",
"741 573 LINE",
"755 589 LINE",
"688 693 OFFCURVE",
"573 757 OFFCURVE",
"443 757 CURVE SMOOTH",
"236 757 OFFCURVE",
"70 597 OFFCURVE",
"70 373 CURVE SMOOTH",
"70 148 OFFCURVE",
"236 -12 OFFCURVE",
"443 -12 CURVE SMOOTH"
);
},
{
closed = 1;
nodes = (
"271 63 OFFCURVE",
"150 202 OFFCURVE",
"150 373 CURVE SMOOTH",
"150 542 OFFCURVE",
"270 682 OFFCURVE",
"443 682 CURVE SMOOTH",
"616 682 OFFCURVE",
"736 542 OFFCURVE",
"736 373 CURVE SMOOTH",
"736 202 OFFCURVE",
"615 63 OFFCURVE",
"443 63 CURVE SMOOTH"
);
}
);
width = 1296;
},
{
layerId = "0E6515C6-4BDD-456A-90F7-F5B263F1D284";
paths = (
{
closed = 1;
nodes = (
"546 -12 OFFCURVE",
"653 40 OFFCURVE",
"728 122 CURVE",
"719 140 LINE",
"690 0 LINE",
"1170 0 LINE",
"1185 70 LINE",
"785 70 LINE",
"842 338 LINE",
"1222 338 LINE",
"1237 408 LINE",
"857 408 LINE",
"913 675 LINE",
"1313 675 LINE",
"1328 745 LINE",
"848 745 LINE",
"803 538 LINE",
"820 551 LINE",
"773 677 OFFCURVE",
"655 757 OFFCURVE",
"509 757 CURVE SMOOTH",
"280 757 OFFCURVE",
"93 564 OFFCURVE",
"93 327 CURVE SMOOTH",
"93 126 OFFCURVE",
"236 -12 OFFCURVE",
"428 -12 CURVE SMOOTH"
);
},
{
closed = 1;
nodes = (
"277 63 OFFCURVE",
"173 182 OFFCURVE",
"173 336 CURVE SMOOTH",
"173 526 OFFCURVE",
"321 682 OFFCURVE",
"501 682 CURVE SMOOTH",
"661 682 OFFCURVE",
"763 562 OFFCURVE",
"763 410 CURVE SMOOTH",
"763 220 OFFCURVE",
"616 63 OFFCURVE",
"436 63 CURVE SMOOTH"
);
}
);
width = 1302;
},
{
layerId = "9398AC28-6BE1-4A79-9C94-3CBC2F226CE7";
paths = (
{
closed = 1;
nodes = (
"557 -12 OFFCURVE",
"660 34 OFFCURVE",
"731 108 CURVE",
"700 146 LINE",
"700 0 LINE",
"1200 0 LINE",
"1201 135 LINE",
"855 135 LINE",
"855 306 LINE",
"1181 306 LINE",
"1181 441 LINE",
"855 441 LINE",
"855 610 LINE",
"1201 610 LINE",
"1201 745 LINE",
"700 745 LINE",
"700 600 LINE",
"731 638 LINE",
"661 713 OFFCURVE",
"558 757 OFFCURVE",
"440 757 CURVE SMOOTH",
"214 757 OFFCURVE",
"45 592 OFFCURVE",
"45 373 CURVE SMOOTH",
"45 154 OFFCURVE",
"215 -12 OFFCURVE",
"440 -12 CURVE SMOOTH"
);
},
{
closed = 1;
nodes = (
"304 128 OFFCURVE",
"200 229 OFFCURVE",
"200 373 CURVE SMOOTH",
"200 517 OFFCURVE",
"304 617 OFFCURVE",
"440 617 CURVE SMOOTH",
"576 617 OFFCURVE",
"680 517 OFFCURVE",
"680 373 CURVE SMOOTH",
"680 229 OFFCURVE",
"576 128 OFFCURVE",
"440 128 CURVE SMOOTH"
);
}
);
width = 1251;
},
{
layerId = "FF6420B2-C0A6-48EA-9EF6-B9F37DCCE47B";
paths = (
{
closed = 1;
nodes = (
"526 -12 OFFCURVE",
"620 23 OFFCURVE",
"695 81 CURVE",
"673 122 LINE",
"647 0 LINE",
"1147 0 LINE",
"1177 135 LINE",
"831 135 LINE",
"867 306 LINE",
"1193 306 LINE",
"1222 441 LINE",
"896 441 LINE",
"931 610 LINE",
"1277 610 LINE",
"1306 745 LINE",
"805 745 LINE",
"768 572 LINE",
"807 604 LINE",
"747 698 OFFCURVE",
"638 757 OFFCURVE",
"504 757 CURVE SMOOTH",
"261 757 OFFCURVE",
"66 566 OFFCURVE",
"66 330 CURVE SMOOTH",
"66 133 OFFCURVE",
"213 -12 OFFCURVE",
"423 -12 CURVE SMOOTH"
);
},
{
closed = 1;
nodes = (
"312 128 OFFCURVE",
"222 215 OFFCURVE",
"222 343 CURVE SMOOTH",
"222 496 OFFCURVE",
"339 617 OFFCURVE",
"489 617 CURVE SMOOTH",
"614 617 OFFCURVE",
"705 531 OFFCURVE",
"705 403 CURVE SMOOTH",
"705 250 OFFCURVE",
"587 128 OFFCURVE",
"438 128 CURVE SMOOTH"
);
}
);
width = 1257;
}
);
leftKerningGroup = O;
leftMetricsKey = "=O";
rightKerningGroup = E;
rightMetricsKey = "=E";
unicode = 0152;
},
{
glyphname = P;
lastChange = "2020-02-21 16:33:14 +0000";
layers = (
{
layerId = "30C2FD74-1A74-41AC-9C29-B288AE1DBDD7";
paths = (
{
closed = 1;
nodes = (
"175 0 LINE",
"175 290 LINE",
"355 290 LINE SMOOTH",
"510 290 OFFCURVE",
"613 381 OFFCURVE",
"613 517 CURVE SMOOTH",
"613 653 OFFCURVE",
"509 745 OFFCURVE",
"355 745 CURVE SMOOTH",
"95 745 LINE",
"95 0 LINE"
);
},
{
closed = 1;
nodes = (
"175 675 LINE",
"355 675 LINE SMOOTH",
"459 675 OFFCURVE",
"529 612 OFFCURVE",
"529 518 CURVE SMOOTH",
"529 423 OFFCURVE",
"459 360 OFFCURVE",
"355 360 CURVE SMOOTH",
"175 360 LINE"
);
}
);
width = 673;
},
{
layerId = "9398AC28-6BE1-4A79-9C94-3CBC2F226CE7";
paths = (
{
closed = 1;
nodes = (
"225 0 LINE",
"225 270 LINE",
"380 270 LINE SMOOTH",
"534 270 OFFCURVE",
"648 354 OFFCURVE",
"648 507 CURVE SMOOTH",
"648 663 OFFCURVE",
"536 745 OFFCURVE",
"380 745 CURVE SMOOTH",
"70 745 LINE",
"70 0 LINE"
);
},
{
closed = 1;
nodes = (
"225 610 LINE",
"381 610 LINE SMOOTH",
"448 610 OFFCURVE",
"493 569 OFFCURVE",
"493 507 CURVE SMOOTH",
"493 446 OFFCURVE",
"448 405 OFFCURVE",
"381 405 CURVE SMOOTH",
"225 405 LINE"
);
}
);
width = 683;
},
{
layerId = "0E6515C6-4BDD-456A-90F7-F5B263F1D284";
paths = (
{
closed = 1;
nodes = (
"119 0 LINE",
"180 290 LINE",
"365 290 LINE SMOOTH",
"532 290 OFFCURVE",
"671 393 OFFCURVE",
"671 551 CURVE SMOOTH",
"671 661 OFFCURVE",
"590 745 OFFCURVE",
"460 745 CURVE SMOOTH",
"197 745 LINE",
"39 0 LINE"
);
},
{
closed = 1;
nodes = (
"262 675 LINE",
"445 675 LINE SMOOTH",
"531 675 OFFCURVE",
"586 621 OFFCURVE",
"586 546 CURVE SMOOTH",
"586 438 OFFCURVE",
"498 360 OFFCURVE",
"379 360 CURVE SMOOTH",
"195 360 LINE"
);
}
);
width = 676;
},
{
layerId = "FF6420B2-C0A6-48EA-9EF6-B9F37DCCE47B";
paths = (
{
closed = 1;
nodes = (
"168 0 LINE",
"224 270 LINE",
"383 270 LINE SMOOTH",
"569 270 OFFCURVE",
"701 373 OFFCURVE",
"701 548 CURVE SMOOTH",
"701 670 OFFCURVE",
"605 745 OFFCURVE",
"482 745 CURVE SMOOTH",
"169 745 LINE",
"13 0 LINE"
);
},
{
closed = 1;
nodes = (
"297 610 LINE",
"455 610 LINE SMOOTH",
"510 610 OFFCURVE",
"545 578 OFFCURVE",
"545 531 CURVE SMOOTH",
"545 456 OFFCURVE",
"485 405 OFFCURVE",
"412 405 CURVE SMOOTH",
"253 405 LINE"
);
}
);
width = 686;
}
);
leftKerningGroup = I;
rightKerningGroup = P;
unicode = 0050;
},
{
glyphname = Thorn;
lastChange = "2020-02-21 16:33:14 +0000";
layers = (
{
layerId = "30C2FD74-1A74-41AC-9C29-B288AE1DBDD7";
paths = (
{
closed = 1;
nodes = (
"160 0 LINE",
"160 146 LINE",
"336 146 LINE SMOOTH",
"489 146 OFFCURVE",
"590 237 OFFCURVE",
"590 373 CURVE SMOOTH",
"590 509 OFFCURVE",
"488 601 OFFCURVE",
"336 601 CURVE SMOOTH",
"160 601 LINE",
"160 745 LINE",
"80 745 LINE",
"80 0 LINE"
);
},
{
closed = 1;
nodes = (
"160 531 LINE",
"336 531 LINE SMOOTH",
"438 531 OFFCURVE",
"506 468 OFFCURVE",
"506 374 CURVE SMOOTH",
"506 279 OFFCURVE",
"438 216 OFFCURVE",
"336 216 CURVE SMOOTH",
"160 216 LINE"
);
}
);
width = 635;
},
{
layerId = "0E6515C6-4BDD-456A-90F7-F5B263F1D284";
paths = (
{
closed = 1;
nodes = (
"104 0 LINE",
"135 147 LINE",
"317 147 LINE SMOOTH",
"482 147 OFFCURVE",
"620 250 OFFCURVE",
"620 409 CURVE SMOOTH",
"620 518 OFFCURVE",
"541 602 OFFCURVE",
"412 602 CURVE SMOOTH",
"232 602 LINE",
"262 745 LINE",
"182 745 LINE",
"24 0 LINE"
);
},
{
closed = 1;
nodes = (
"217 532 LINE",
"397 532 LINE SMOOTH",
"482 532 OFFCURVE",
"535 478 OFFCURVE",
"535 404 CURVE SMOOTH",
"535 295 OFFCURVE",
"448 217 OFFCURVE",
"331 217 CURVE SMOOTH",
"150 217 LINE"
);
}
);
width = 641;
},
{
layerId = "9398AC28-6BE1-4A79-9C94-3CBC2F226CE7";
paths = (
{
closed = 1;
nodes = (
"215 0 LINE",
"215 140 LINE",
"366 140 LINE SMOOTH",
"518 140 OFFCURVE",
"630 224 OFFCURVE",
"630 377 CURVE SMOOTH",
"630 533 OFFCURVE",
"520 615 OFFCURVE",
"366 615 CURVE SMOOTH",
"215 615 LINE",
"215 745 LINE",
"60 745 LINE",
"60 0 LINE"
);
},
{
closed = 1;
nodes = (
"215 480 LINE",
"367 480 LINE SMOOTH",
"432 480 OFFCURVE",
"475 439 OFFCURVE",
"475 377 CURVE SMOOTH",
"475 316 OFFCURVE",
"432 275 OFFCURVE",
"367 275 CURVE SMOOTH",
"215 275 LINE"
);
}
);
width = 655;
},
{
layerId = "FF6420B2-C0A6-48EA-9EF6-B9F37DCCE47B";
paths = (
{
closed = 1;
nodes = (
"156 0 LINE",
"186 140 LINE",
"342 140 LINE SMOOTH",
"526 140 OFFCURVE",
"657 243 OFFCURVE",
"657 419 CURVE SMOOTH",
"657 540 OFFCURVE",
"562 615 OFFCURVE",
"441 615 CURVE SMOOTH",
"286 615 LINE",
"314 745 LINE",
"159 745 LINE",
"1 0 LINE"
);
},
{
closed = 1;
nodes = (
"258 480 LINE",
"414 480 LINE SMOOTH",
"468 480 OFFCURVE",
"501 448 OFFCURVE",
"501 401 CURVE SMOOTH",
"501 326 OFFCURVE",
"443 275 OFFCURVE",
"371 275 CURVE SMOOTH",
"215 275 LINE"
);
}
);
width = 659;
}
);
leftKerningGroup = I;
rightKerningGroup = P;
unicode = 00DE;
},
{
glyphname = Q;
lastChange = "2020-02-21 16:33:14 +0000";
layers = (
{
anchors = (
{
name = bottom;
position = "{495, 0}";
},
{
name = center;
position = "{486, 356}";
},
{
name = top;
position = "{495, 710}";
}
);
layerId = "30C2FD74-1A74-41AC-9C29-B288AE1DBDD7";
paths = (
{
closed = 1;
nodes = (
"418 298 LINE",
"660 -130 LINE",
"749 -130 LINE",
"501 298 LINE"
);
},
{
closed = 1;
nodes = (
"656 -12 OFFCURVE",
"824 149 OFFCURVE",
"824 373 CURVE SMOOTH",
"824 596 OFFCURVE",
"656 757 OFFCURVE",
"447 757 CURVE SMOOTH",
"238 757 OFFCURVE",
"70 597 OFFCURVE",
"70 373 CURVE SMOOTH",
"70 148 OFFCURVE",
"238 -12 OFFCURVE",
"447 -12 CURVE SMOOTH"
);
},
{
closed = 1;
nodes = (
"273 63 OFFCURVE",
"150 202 OFFCURVE",
"150 373 CURVE SMOOTH",
"150 542 OFFCURVE",
"272 682 OFFCURVE",
"447 682 CURVE SMOOTH",
"622 682 OFFCURVE",
"744 542 OFFCURVE",
"744 373 CURVE SMOOTH",
"744 202 OFFCURVE",
"621 63 OFFCURVE",
"447 63 CURVE SMOOTH"
);
}
);
width = 894;
},
{
anchors = (
{
name = bottom;
position = "{427, 0}";
},
{
name = center;
position = "{427, 355}";
},
{
name = top;
position = "{427, 710}";
}
);
layerId = "9398AC28-6BE1-4A79-9C94-3CBC2F226CE7";
paths = (
{
closed = 1;
nodes = (
"382 298 LINE",
"624 -130 LINE",
"788 -130 LINE",
"540 298 LINE"
);
},
{
closed = 1;
nodes = (
"671 -12 OFFCURVE",
"843 154 OFFCURVE",
"843 373 CURVE SMOOTH",
"843 592 OFFCURVE",
"672 757 OFFCURVE",
"444 757 CURVE SMOOTH",
"216 757 OFFCURVE",
"45 592 OFFCURVE",
"45 373 CURVE SMOOTH",
"45 154 OFFCURVE",
"217 -12 OFFCURVE",
"444 -12 CURVE SMOOTH"
);
},
{
closed = 1;
nodes = (
"306 128 OFFCURVE",
"200 229 OFFCURVE",
"200 373 CURVE SMOOTH",
"200 517 OFFCURVE",
"306 617 OFFCURVE",
"444 617 CURVE SMOOTH",
"582 617 OFFCURVE",
"688 517 OFFCURVE",
"688 373 CURVE SMOOTH",
"688 229 OFFCURVE",
"582 128 OFFCURVE",
"444 128 CURVE SMOOTH"
);
}
);
width = 888;
},
{
anchors = (
{
name = bottom;
position = "{481, 0}";
},
{
name = center;
position = "{510, 356}";
},
{
name = top;
position = "{556, 710}";
}
);
layerId = "0E6515C6-4BDD-456A-90F7-F5B263F1D284";
paths = (
{
closed = 1;
nodes = (
"436 298 LINE",
"633 -130 LINE",
"717 -130 LINE",
"514 298 LINE"
);
},
{
closed = 1;
nodes = (
"663 -12 OFFCURVE",
"852 181 OFFCURVE",
"852 418 CURVE SMOOTH",
"852 618 OFFCURVE",
"706 757 OFFCURVE",
"512 757 CURVE SMOOTH",
"281 757 OFFCURVE",
"93 564 OFFCURVE",
"93 328 CURVE SMOOTH",
"93 126 OFFCURVE",
"239 -12 OFFCURVE",
"432 -12 CURVE SMOOTH"
);
},
{
closed = 1;
nodes = (
"279 63 OFFCURVE",
"173 183 OFFCURVE",
"173 337 CURVE SMOOTH",
"173 526 OFFCURVE",
"323 682 OFFCURVE",
"505 682 CURVE SMOOTH",
"666 682 OFFCURVE",
"771 562 OFFCURVE",
"771 409 CURVE SMOOTH",
"771 220 OFFCURVE",
"622 63 OFFCURVE",
"440 63 CURVE SMOOTH"
);
}
);
width = 900;
},
{
anchors = (
{
name = bottom;
position = "{412, 0}";
},
{
name = center;
position = "{448, 355}";
},
{
name = top;
position = "{486, 710}";
}
);
layerId = "FF6420B2-C0A6-48EA-9EF6-B9F37DCCE47B";
paths = (
{
closed = 1;
nodes = (
"402 298 LINE",
"599 -130 LINE",
"753 -130 LINE",
"550 298 LINE"
);
},
{
closed = 1;
nodes = (
"669 -12 OFFCURVE",
"869 179 OFFCURVE",
"869 415 CURVE SMOOTH",
"869 613 OFFCURVE",
"719 757 OFFCURVE",
"507 757 CURVE SMOOTH",
"262 757 OFFCURVE",
"66 566 OFFCURVE",
"66 331 CURVE SMOOTH",
"66 133 OFFCURVE",
"216 -12 OFFCURVE",
"427 -12 CURVE SMOOTH"
);
},
{
closed = 1;
nodes = (
"314 128 OFFCURVE",
"222 215 OFFCURVE",
"222 344 CURVE SMOOTH",
"222 496 OFFCURVE",
"341 617 OFFCURVE",
"493 617 CURVE SMOOTH",
"619 617 OFFCURVE",
"713 531 OFFCURVE",
"713 402 CURVE SMOOTH",
"713 250 OFFCURVE",
"593 128 OFFCURVE",
"442 128 CURVE SMOOTH"
);
}
);
width = 894;
}
);
leftKerningGroup = O;
leftMetricsKey = "=O";
rightKerningGroup = O;
rightMetricsKey = "=O";
unicode = 0051;
},
{
glyphname = R;
lastChange = "2020-02-22 07:01:52 +0000";
layers = (
{
layerId = "30C2FD74-1A74-41AC-9C29-B288AE1DBDD7";
paths = (
{
closed = 1;
nodes = (
"175 0 LINE",
"175 290 LINE",
"371 290 LINE",
"540 0 LINE",
"634 0 LINE",
"457 305 LINE",
"553 336 OFFCURVE",
"613 414 OFFCURVE",
"613 517 CURVE SMOOTH",
"613 653 OFFCURVE",
"509 745 OFFCURVE",
"355 745 CURVE SMOOTH",
"95 745 LINE",
"95 0 LINE"
);
},
{
closed = 1;
nodes = (
"175 675 LINE",
"355 675 LINE SMOOTH",
"459 675 OFFCURVE",
"529 612 OFFCURVE",
"529 518 CURVE SMOOTH",
"529 423 OFFCURVE",
"459 360 OFFCURVE",
"355 360 CURVE SMOOTH",
"175 360 LINE"
);
}
);
width = 694;
},
{
layerId = "9398AC28-6BE1-4A79-9C94-3CBC2F226CE7";
paths = (
{
closed = 1;
nodes = (
"225 0 LINE",
"225 270 LINE",
"360 270 LINE",
"515 0 LINE",
"689 0 LINE",
"516 297 LINE",
"597 333 OFFCURVE",
"648 404 OFFCURVE",
"648 507 CURVE SMOOTH",
"648 663 OFFCURVE",
"536 745 OFFCURVE",
"380 745 CURVE SMOOTH",
"70 745 LINE",
"70 0 LINE"
);
},
{
closed = 1;
nodes = (
"225 610 LINE",
"381 610 LINE SMOOTH",
"447 610 OFFCURVE",
"493 569 OFFCURVE",
"493 507 CURVE SMOOTH",
"493 446 OFFCURVE",
"447 405 OFFCURVE",
"381 405 CURVE SMOOTH",
"225 405 LINE"
);
}
);
width = 724;
},
{
layerId = "0E6515C6-4BDD-456A-90F7-F5B263F1D284";
paths = (
{
closed = 1;
nodes = (
"119 0 LINE",
"180 290 LINE",
"375 290 LINE",
"482 0 LINE",
"567 0 LINE",
"456 301 LINE",
"580 331 OFFCURVE",
"671 423 OFFCURVE",
"671 551 CURVE SMOOTH",
"671 661 OFFCURVE",
"590 745 OFFCURVE",
"460 745 CURVE SMOOTH",
"197 745 LINE",
"39 0 LINE"
);
},
{
closed = 1;
nodes = (
"262 675 LINE",
"445 675 LINE SMOOTH",
"531 675 OFFCURVE",
"586 621 OFFCURVE",
"586 546 CURVE SMOOTH",
"586 438 OFFCURVE",
"498 360 OFFCURVE",
"379 360 CURVE SMOOTH",
"195 360 LINE"
);
}
);
width = 684;
},
{
layerId = "FF6420B2-C0A6-48EA-9EF6-B9F37DCCE47B";
paths = (
{
closed = 1;
nodes = (
"168 0 LINE",
"224 270 LINE",
"368 270 LINE",
"465 0 LINE",
"629 0 LINE",
"522 292 LINE",
"631 332 OFFCURVE",
"701 421 OFFCURVE",
"701 548 CURVE SMOOTH",
"701 670 OFFCURVE",
"605 745 OFFCURVE",
"482 745 CURVE SMOOTH",
"169 745 LINE",
"13 0 LINE"
);
},
{
closed = 1;
nodes = (
"297 610 LINE",
"455 610 LINE SMOOTH",
"510 610 OFFCURVE",
"545 578 OFFCURVE",
"545 531 CURVE SMOOTH",
"545 456 OFFCURVE",
"485 405 OFFCURVE",
"412 405 CURVE SMOOTH",
"253 405 LINE"
);
}
);
width = 723;
}
);
leftKerningGroup = I;
rightKerningGroup = R;
unicode = 0052;
},
{
glyphname = S;
lastChange = "2020-02-21 18:23:59 +0000";
layers = (
{
anchors = (
{
name = bottom;
position = "{334, 0}";
},
{
name = top;
position = "{334, 745}";
}
);
layerId = "30C2FD74-1A74-41AC-9C29-B288AE1DBDD7";
paths = (
{
closed = 1;
nodes = (
"501 -12 OFFCURVE",
"603 71 OFFCURVE",
"603 191 CURVE SMOOTH",
"603 290 OFFCURVE",
"541 353 OFFCURVE",
"418 389 CURVE SMOOTH",
"287 427 LINE SMOOTH",
"205 451 OFFCURVE",
"163 500 OFFCURVE",
"163 561 CURVE SMOOTH",
"163 637 OFFCURVE",
"227 687 OFFCURVE",
"324 687 CURVE SMOOTH",
"419 687 OFFCURVE",
"491 638 OFFCURVE",
"523 546 CURVE",
"596 579 LINE",
"562 676 OFFCURVE",
"461 757 OFFCURVE",
"323 757 CURVE SMOOTH",
"183 757 OFFCURVE",
"82 673 OFFCURVE",
"82 555 CURVE SMOOTH",
"82 466 OFFCURVE",
"142 390 OFFCURVE",
"262 355 CURVE SMOOTH",
"400 315 LINE SMOOTH",
"484 291 OFFCURVE",
"523 253 OFFCURVE",
"523 184 CURVE SMOOTH",
"523 109 OFFCURVE",
"454 58 OFFCURVE",
"354 58 CURVE SMOOTH",
"248 58 OFFCURVE",
"168 114 OFFCURVE",
"132 219 CURVE",
"60 188 LINE",
"96 77 OFFCURVE",
"207 -12 OFFCURVE",
"354 -12 CURVE SMOOTH"
);
}
);
width = 668;
},
{
anchors = (
{
name = bottom;
position = "{337, 0}";
},
{
name = top;
position = "{337, 745}";
}
);
layerId = "9398AC28-6BE1-4A79-9C94-3CBC2F226CE7";
paths = (
{
closed = 1;
nodes = (
"522 -12 OFFCURVE",
"634 77 OFFCURVE",
"634 211 CURVE SMOOTH",
"634 313 OFFCURVE",
"570 380 OFFCURVE",
"443 419 CURVE SMOOTH",
"293 465 LINE SMOOTH",
"247 479 OFFCURVE",
"217 504 OFFCURVE",
"217 541 CURVE SMOOTH",
"217 587 OFFCURVE",
"263 622 OFFCURVE",
"333 622 CURVE SMOOTH",
"414 622 OFFCURVE",
"476 578 OFFCURVE",
"501 507 CURVE",
"632 568 LINE",
"591 678 OFFCURVE",
"478 757 OFFCURVE",
"333 757 CURVE SMOOTH",
"170 757 OFFCURVE",
"61 668 OFFCURVE",
"61 535 CURVE SMOOTH",
"61 437 OFFCURVE",
"122 364 OFFCURVE",
"251 324 CURVE SMOOTH",
"405 276 LINE SMOOTH",
"445 263 OFFCURVE",
"479 245 OFFCURVE",
"479 202 CURVE SMOOTH",
"479 158 OFFCURVE",
"432 123 OFFCURVE",
"354 123 CURVE SMOOTH",
"279 123 OFFCURVE",
"202 171 OFFCURVE",
"165 258 CURVE",
"35 197 LINE",
"77 70 OFFCURVE",
"205 -12 OFFCURVE",
"354 -12 CURVE SMOOTH"
);
}
);
width = 674;
},
{
anchors = (
{
name = bottom;
position = "{279, 0}";
},
{
name = top;
position = "{437, 745}";
}
);
layerId = "0E6515C6-4BDD-456A-90F7-F5B263F1D284";
paths = (
{
closed = 1;
nodes = (
"476 -12 OFFCURVE",
"588 74 OFFCURVE",
"588 205 CURVE SMOOTH",
"588 280 OFFCURVE",
"541 337 OFFCURVE",
"442 379 CURVE SMOOTH",
"322 430 LINE SMOOTH",
"258 457 OFFCURVE",
"225 502 OFFCURVE",
"225 550 CURVE SMOOTH",
"225 630 OFFCURVE",
"293 686 OFFCURVE",
"386 686 CURVE SMOOTH",
"495 686 OFFCURVE",
"565 628 OFFCURVE",
"579 524 CURVE",
"657 550 LINE",
"641 672 OFFCURVE",
"529 757 OFFCURVE",
"393 757 CURVE SMOOTH",
"259 757 OFFCURVE",
"143 667 OFFCURVE",
"143 540 CURVE SMOOTH",
"143 467 OFFCURVE",
"187 402 OFFCURVE",
"283 361 CURVE SMOOTH",
"410 307 LINE SMOOTH",
"477 279 OFFCURVE",
"506 245 OFFCURVE",
"506 194 CURVE SMOOTH",
"506 105 OFFCURVE",
"433 58 OFFCURVE",
"338 58 CURVE SMOOTH",
"218 58 OFFCURVE",
"141 122 OFFCURVE",
"126 239 CURVE",
"49 216 LINE",
"63 79 OFFCURVE",
"183 -12 OFFCURVE",
"333 -12 CURVE SMOOTH"
);
}
);
width = 671;
},
{
anchors = (
{
name = bottom;
position = "{280, 0}";
},
{
name = top;
position = "{439, 745}";
}
);
layerId = "FF6420B2-C0A6-48EA-9EF6-B9F37DCCE47B";
paths = (
{
closed = 1;
nodes = (
"498 -12 OFFCURVE",
"621 81 OFFCURVE",
"621 226 CURVE SMOOTH",
"621 301 OFFCURVE",
"576 362 OFFCURVE",
"472 408 CURVE SMOOTH",
"334 469 LINE SMOOTH",
"296 486 OFFCURVE",
"275 511 OFFCURVE",
"275 539 CURVE SMOOTH",
"275 589 OFFCURVE",
"325 622 OFFCURVE",
"387 622 CURVE SMOOTH",
"481 622 OFFCURVE",
"536 575 OFFCURVE",
"549 489 CURVE",
"689 536 LINE",
"669 675 OFFCURVE",
"542 757 OFFCURVE",
"392 757 CURVE SMOOTH",
"238 757 OFFCURVE",
"117 660 OFFCURVE",
"117 527 CURVE SMOOTH",
"117 442 OFFCURVE",
"164 378 OFFCURVE",
"264 333 CURVE SMOOTH",
"406 269 LINE SMOOTH",
"444 252 OFFCURVE",
"464 232 OFFCURVE",
"464 203 CURVE SMOOTH",
"464 157 OFFCURVE",
"418 123 OFFCURVE",
"347 123 CURVE SMOOTH",
"253 123 OFFCURVE",
"184 184 OFFCURVE",
"166 276 CURVE",
"25 229 LINE",
"42 82 OFFCURVE",
"175 -12 OFFCURVE",
"339 -12 CURVE SMOOTH"
);
}
);
width = 677;
}
);
leftKerningGroup = S;
rightKerningGroup = S;
unicode = 0053;
},
{
glyphname = T;
lastChange = "2020-02-21 16:33:14 +0000";
layers = (
{
layerId = "30C2FD74-1A74-41AC-9C29-B288AE1DBDD7";
paths = (
{
closed = 1;
nodes = (
"340 0 LINE",
"340 675 LINE",
"549 675 LINE",
"549 745 LINE",
"50 745 LINE",
"50 675 LINE",
"260 675 LINE",
"260 0 LINE"
);
}
);
width = 599;
},
{
layerId = "9398AC28-6BE1-4A79-9C94-3CBC2F226CE7";
paths = (
{
closed = 1;
nodes = (
"373 0 LINE",
"373 610 LINE",
"564 610 LINE",
"564 745 LINE",
"25 745 LINE",
"25 610 LINE",
"218 610 LINE",
"218 0 LINE"
);
}
);
width = 589;
},
{
layerId = "0E6515C6-4BDD-456A-90F7-F5B263F1D284";
paths = (
{
closed = 1;
nodes = (
"284 0 LINE",
"427 675 LINE",
"636 675 LINE",
"651 745 LINE",
"152 745 LINE",
"137 675 LINE",
"347 675 LINE",
"204 0 LINE"
);
}
);
width = 599;
},
{
layerId = "FF6420B2-C0A6-48EA-9EF6-B9F37DCCE47B";
paths = (
{
closed = 1;
nodes = (
"315 0 LINE",
"444 610 LINE",
"635 610 LINE",
"663 745 LINE",
"125 745 LINE",
"96 610 LINE",
"289 610 LINE",
"159 0 LINE"
);
}
);
width = 589;
}
);
leftKerningGroup = T;
rightKerningGroup = T;
unicode = 0054;
},
{
glyphname = U;
lastChange = "2020-02-21 16:33:14 +0000";
layers = (
{
anchors = (
{
name = bottom;
position = "{364, 0}";
},
{
name = top;
position = "{364, 745}";
}
);
layerId = "30C2FD74-1A74-41AC-9C29-B288AE1DBDD7";
paths = (
{
closed = 1;
nodes = (
"552 233 LINE SMOOTH",
"552 133 OFFCURVE",
"470 58 OFFCURVE",
"364 58 CURVE SMOOTH",
"257 58 OFFCURVE",
"176 132 OFFCURVE",
"176 233 CURVE SMOOTH",
"176 745 LINE",
"95 745 LINE",
"95 233 LINE SMOOTH",
"95 84 OFFCURVE",
"201 -12 OFFCURVE",
"364 -12 CURVE SMOOTH",
"527 -12 OFFCURVE",
"633 85 OFFCURVE",
"633 233 CURVE SMOOTH",
"633 745 LINE",
"552 745 LINE"
);
}
);
width = 728;
},
{
anchors = (
{
name = bottom;
position = "{379, 0}";
},
{
name = top;
position = "{379, 745}";
}
);
layerId = "9398AC28-6BE1-4A79-9C94-3CBC2F226CE7";
paths = (
{
closed = 1;
nodes = (
"533 283 LINE SMOOTH",
"533 190 OFFCURVE",
"471 128 OFFCURVE",
"379 128 CURVE SMOOTH",
"287 128 OFFCURVE",
"225 190 OFFCURVE",
"225 283 CURVE SMOOTH",
"225 745 LINE",
"70 745 LINE",
"70 283 LINE SMOOTH",
"70 116 OFFCURVE",
"194 -12 OFFCURVE",
"379 -12 CURVE SMOOTH",
"564 -12 OFFCURVE",
"688 116 OFFCURVE",
"688 283 CURVE SMOOTH",
"688 745 LINE",
"533 745 LINE"
);
}
);
width = 758;
},
{
anchors = (
{
name = bottom;
position = "{309, 0}";
},
{
name = top;
position = "{467, 745}";
}
);
layerId = "0E6515C6-4BDD-456A-90F7-F5B263F1D284";
paths = (
{
closed = 1;
nodes = (
"489 -12 OFFCURVE",
"596 71 OFFCURVE",
"624 206 CURVE SMOOTH",
"737 745 LINE",
"655 745 LINE",
"544 214 LINE SMOOTH",
"525 122 OFFCURVE",
"439 59 OFFCURVE",
"346 59 CURVE SMOOTH",
"230 59 OFFCURVE",
"154 147 OFFCURVE",
"176 253 CURVE SMOOTH",
"279 745 LINE",
"197 745 LINE",
"96 261 LINE SMOOTH",
"63 102 OFFCURVE",
"174 -12 OFFCURVE",
"349 -12 CURVE SMOOTH"
);
}
);
width = 732;
},
{
anchors = (
{
name = bottom;
position = "{322, 0}";
},
{
name = top;
position = "{479, 745}";
}
);
layerId = "FF6420B2-C0A6-48EA-9EF6-B9F37DCCE47B";
paths = (
{
closed = 1;
nodes = (
"522 -12 OFFCURVE",
"651 97 OFFCURVE",
"684 252 CURVE SMOOTH",
"789 745 LINE",
"633 745 LINE",
"532 268 LINE SMOOTH",
"514 182 OFFCURVE",
"448 128 OFFCURVE",
"368 128 CURVE SMOOTH",
"265 128 OFFCURVE",
"211 205 OFFCURVE",
"231 299 CURVE SMOOTH",
"325 745 LINE",
"169 745 LINE",
"78 315 LINE SMOOTH",
"41 141 OFFCURVE",
"161 -12 OFFCURVE",
"359 -12 CURVE SMOOTH"
);
}
);
width = 760;
}
);
leftKerningGroup = U;
rightKerningGroup = U;
unicode = 0055;
},
{
glyphname = V;
lastChange = "2020-02-21 18:23:59 +0000";
layers = (
{
layerId = "30C2FD74-1A74-41AC-9C29-B288AE1DBDD7";
paths = (
{
closed = 1;
nodes = (
"403 0 LINE",
"681 745 LINE",
"597 745 LINE",
"352 69 LINE",
"370 69 LINE",
"124 745 LINE",
"40 745 LINE",
"318 0 LINE"
);
}
);
width = 721;
},
{
layerId = "9398AC28-6BE1-4A79-9C94-3CBC2F226CE7";
paths = (
{
closed = 1;
nodes = (
"475 0 LINE",
"713 745 LINE",
"539 745 LINE",
"343 97 LINE",
"385 97 LINE",
"189 745 LINE",
"15 745 LINE",
"253 0 LINE"
);
}
);
width = 728;
},
{
layerId = "0E6515C6-4BDD-456A-90F7-F5B263F1D284";
paths = (
{
closed = 1;
nodes = (
"373 0 LINE",
"783 745 LINE",
"693 745 LINE",
"328 69 LINE",
"352 69 LINE",
"226 745 LINE",
"142 745 LINE",
"289 0 LINE"
);
}
);
width = 721;
},
{
layerId = "FF6420B2-C0A6-48EA-9EF6-B9F37DCCE47B";
paths = (
{
closed = 1;
nodes = (
"442 0 LINE",
"812 745 LINE",
"628 745 LINE",
"317 97 LINE",
"369 97 LINE",
"288 745 LINE",
"114 745 LINE",
"221 0 LINE"
);
}
);
width = 728;
}
);
unicode = 0056;
},
{
glyphname = W;
lastChange = "2020-02-21 18:23:59 +0000";
layers = (
{
layerId = "30C2FD74-1A74-41AC-9C29-B288AE1DBDD7";
paths = (
{
closed = 1;
nodes = (
"351 0 LINE",
"542 670 LINE",
"528 670 LINE",
"719 0 LINE",
"804 0 LINE",
"1020 745 LINE",
"939 745 LINE",
"751 78 LINE",
"768 78 LINE",
"583 745 LINE",
"487 745 LINE",
"302 78 LINE",
"318 78 LINE",
"131 745 LINE",
"50 745 LINE",
"266 0 LINE"
);
}
);
width = 1070;
},
{
layerId = "9398AC28-6BE1-4A79-9C94-3CBC2F226CE7";
paths = (
{
closed = 1;
nodes = (
"413 0 LINE",
"550 600 LINE",
"518 600 LINE",
"655 0 LINE",
"857 0 LINE",
"1043 745 LINE",
"884 745 LINE",
"735 121 LINE",
"773 121 LINE",
"633 745 LINE",
"445 745 LINE",
"305 121 LINE",
"343 121 LINE",
"194 745 LINE",
"25 745 LINE",
"211 0 LINE"
);
}
);
width = 1068;
},
{
layerId = "0E6515C6-4BDD-456A-90F7-F5B263F1D284";
paths = (
{
closed = 1;
nodes = (
"321 0 LINE",
"630 670 LINE",
"616 670 LINE",
"689 0 LINE",
"774 0 LINE",
"1122 745 LINE",
"1035 745 LINE",
"729 78 LINE",
"752 78 LINE",
"685 745 LINE",
"583 745 LINE",
"280 78 LINE",
"302 78 LINE",
"233 745 LINE",
"152 745 LINE",
"236 0 LINE"
);
}
);
width = 1070;
},
{
layerId = "FF6420B2-C0A6-48EA-9EF6-B9F37DCCE47B";
paths = (
{
closed = 1;
nodes = (
"380 0 LINE",
"623 600 LINE",
"591 600 LINE",
"622 0 LINE",
"824 0 LINE",
"1142 745 LINE",
"973 745 LINE",
"714 121 LINE",
"762 121 LINE",
"732 745 LINE",
"534 745 LINE",
"284 121 LINE",
"332 121 LINE",
"293 745 LINE",
"124 745 LINE",
"178 0 LINE"
);
}
);
width = 1068;
}
);
leftKerningGroup = W;
rightKerningGroup = W;
unicode = 0057;
},
{
glyphname = X;
lastChange = "2020-02-21 16:33:14 +0000";
layers = (
{
layerId = "30C2FD74-1A74-41AC-9C29-B288AE1DBDD7";
paths = (
{
closed = 1;
nodes = (
"137 0 LINE",
"347 332 LINE",
"319 332 LINE",
"527 0 LINE",
"615 0 LINE",
"376 380 LINE",
"607 745 LINE",
"517 745 LINE",
"319 427 LINE",
"347 427 LINE",
"148 745 LINE",
"58 745 LINE",
"288 380 LINE",
"50 0 LINE"
);
}
);
width = 665;
},
{
layerId = "9398AC28-6BE1-4A79-9C94-3CBC2F226CE7";
paths = (
{
closed = 1;
nodes = (
"199 0 LINE",
"394 298 LINE",
"316 298 LINE",
"510 0 LINE",
"684 0 LINE",
"442 373 LINE",
"684 745 LINE",
"510 745 LINE",
"316 447 LINE",
"394 447 LINE",
"199 745 LINE",
"25 745 LINE",
"268 373 LINE",
"25 0 LINE"
);
}
);
width = 709;
},
{
layerId = "0E6515C6-4BDD-456A-90F7-F5B263F1D284";
paths = (
{
closed = 1;
nodes = (
"103 0 LINE",
"371 332 LINE",
"339 332 LINE",
"487 0 LINE",
"575 0 LINE",
"404 380 LINE",
"699 745 LINE",
"606 745 LINE",
"352 427 LINE",
"384 427 LINE",
"241 745 LINE",
"152 745 LINE",
"316 380 LINE",
"12 0 LINE"
);
}
);
width = 682;
},
{
layerId = "FF6420B2-C0A6-48EA-9EF6-B9F37DCCE47B";
paths = (
{
closed = 1;
nodes = (
"176 0 LINE",
"423 298 LINE",
"335 298 LINE",
"475 0 LINE",
"649 0 LINE",
"474 373 LINE",
"781 745 LINE",
"597 745 LINE",
"351 447 LINE",
"439 447 LINE",
"298 745 LINE",
"124 745 LINE",
"300 373 LINE",
"-8 0 LINE"
);
}
);
width = 733;
}
);
unicode = 0058;
},
{
glyphname = Y;
lastChange = "2020-02-21 16:33:14 +0000";
layers = (
{
anchors = (
{
name = bottom;
position = "{345, 0}";
},
{
name = top;
position = "{345, 745}";
},
{
name = topleft;
position = "{35, 745}";
}
);
layerId = "30C2FD74-1A74-41AC-9C29-B288AE1DBDD7";
paths = (
{
closed = 1;
nodes = (
"385 0 LINE",
"385 346 LINE",
"649 745 LINE",
"561 745 LINE",
"330 397 LINE",
"360 397 LINE",
"128 745 LINE",
"40 745 LINE",
"305 346 LINE",
"305 0 LINE"
);
}
);
width = 689;
},
{
anchors = (
{
name = bottom;
position = "{345, 0}";
},
{
name = top;
position = "{345, 745}";
},
{
name = topleft;
position = "{30, 745}";
}
);
layerId = "9398AC28-6BE1-4A79-9C94-3CBC2F226CE7";
paths = (
{
closed = 1;
nodes = (
"423 0 LINE",
"423 326 LINE",
"674 745 LINE",
"500 745 LINE",
"316 429 LINE",
"374 429 LINE",
"189 745 LINE",
"15 745 LINE",
"268 325 LINE",
"268 0 LINE"
);
}
);
width = 689;
},
{
anchors = (
{
name = bottom;
position = "{289, 0}";
},
{
name = top;
position = "{447, 745}";
},
{
name = topleft;
position = "{137, 745}";
}
);
layerId = "0E6515C6-4BDD-456A-90F7-F5B263F1D284";
paths = (
{
closed = 1;
nodes = (
"329 0 LINE",
"402 346 LINE",
"751 745 LINE",
"655 745 LINE",
"350 397 LINE",
"388 397 LINE",
"230 745 LINE",
"142 745 LINE",
"322 346 LINE",
"249 0 LINE"
);
}
);
width = 689;
},
{
anchors = (
{
name = bottom;
position = "{286, 0}";
},
{
name = top;
position = "{444, 745}";
},
{
name = topleft;
position = "{129, 745}";
}
);
layerId = "FF6420B2-C0A6-48EA-9EF6-B9F37DCCE47B";
paths = (
{
closed = 1;
nodes = (
"364 0 LINE",
"433 326 LINE",
"773 745 LINE",
"591 745 LINE",
"340 429 LINE",
"406 429 LINE",
"288 745 LINE",
"114 745 LINE",
"278 325 LINE",
"209 0 LINE"
);
}
);
width = 689;
}
);
leftKerningGroup = Y;
rightKerningGroup = Y;
unicode = 0059;
},
{
glyphname = Z;
lastChange = "2020-02-21 16:33:14 +0000";
layers = (
{
anchors = (
{
name = bottom;
position = "{318, 0}";
},
{
name = center;
position = "{318, 373}";
},
{
name = top;
position = "{325, 710}";
}
);
layerId = "30C2FD74-1A74-41AC-9C29-B288AE1DBDD7";
paths = (
{
closed = 1;
nodes = (
"582 696 LINE",
"582 745 LINE",
"70 745 LINE",
"70 675 LINE",
"479 675 LINE",
"45 49 LINE",
"45 0 LINE",
"591 0 LINE",
"591 70 LINE",
"147 70 LINE"
);
}
);
width = 636;
},
{
anchors = (
{
name = bottom;
position = "{297, 0}";
},
{
name = center;
position = "{297, 373}";
},
{
name = top;
position = "{297, 745}";
}
);
layerId = "9398AC28-6BE1-4A79-9C94-3CBC2F226CE7";
paths = (
{
closed = 1;
nodes = (
"563 620 LINE",
"563 745 LINE",
"40 745 LINE",
"40 610 LINE",
"377 610 LINE",
"20 125 LINE",
"20 0 LINE",
"573 0 LINE",
"573 135 LINE",
"205 135 LINE"
);
}
);
width = 593;
},
{
anchors = (
{
name = bottom;
position = "{261, 0}";
},
{
name = center;
position = "{340, 373}";
},
{
name = top;
position = "{419, 745}";
}
);
layerId = "0E6515C6-4BDD-456A-90F7-F5B263F1D284";
paths = (
{
closed = 1;
nodes = (
"648 696 LINE",
"657 745 LINE",
"149 745 LINE",
"134 675 LINE",
"534 675 LINE",
"-1 49 LINE",
"-10 0 LINE",
"532 0 LINE",
"547 70 LINE",
"113 70 LINE"
);
}
);
width = 634;
},
{
anchors = (
{
name = bottom;
position = "{237, 0}";
},
{
name = center;
position = "{316, 373}";
},
{
name = top;
position = "{395, 745}";
}
);
layerId = "FF6420B2-C0A6-48EA-9EF6-B9F37DCCE47B";
paths = (
{
closed = 1;
nodes = (
"617 620 LINE",
"639 745 LINE",
"124 745 LINE",
"94 610 LINE",
"427 610 LINE",
"-12 125 LINE",
"-34 0 LINE",
"512 0 LINE",
"541 135 LINE",
"178 135 LINE"
);
}
);
width = 591;
}
);
leftKerningGroup = Z;
rightKerningGroup = Z;
unicode = 005A;
},
{
glyphname = a;
lastChange = "2020-02-21 18:24:07 +0000";
layers = (
{
anchors = (
{
name = bottom;
position = "{279, 0}";
},
{
name = ogonek;
position = "{491, 10}";
},
{
name = top;
position = "{279, 534}";
}
);
layerId = "30C2FD74-1A74-41AC-9C29-B288AE1DBDD7";
paths = (
{
closed = 1;
nodes = (
"324 -12 OFFCURVE",
"402 34 OFFCURVE",
"430 98 CURVE",
"423 110 LINE",
"423 0 LINE",
"493 0 LINE",
"493 365 LINE SMOOTH",
"493 471 OFFCURVE",
"408 546 OFFCURVE",
"288 546 CURVE SMOOTH",
"194 546 OFFCURVE",
"107 491 OFFCURVE",
"76 421 CURVE",
"140 387 LINE",
"166 440 OFFCURVE",
"219 476 OFFCURVE",
"288 476 CURVE SMOOTH",
"366 476 OFFCURVE",
"423 432 OFFCURVE",
"423 365 CURVE SMOOTH",
"423 237 LINE SMOOTH",
"423 134 OFFCURVE",
"349 57 OFFCURVE",
"246 57 CURVE SMOOTH",
"176 57 OFFCURVE",
"130 93 OFFCURVE",
"130 148 CURVE SMOOTH",
"130 196 OFFCURVE",
"168 231 OFFCURVE",
"248 249 CURVE SMOOTH",
"438 292 LINE",
"438 353 LINE",
"229 307 LINE SMOOTH",
"120 283 OFFCURVE",
"55 227 OFFCURVE",
"55 149 CURVE SMOOTH",
"55 54 OFFCURVE",
"133 -12 OFFCURVE",
"247 -12 CURVE SMOOTH"
);
}
);
width = 558;
},
{
anchors = (
{
name = bottom;
position = "{289, 0}";
},
{
name = ogonek;
position = "{515, 10}";
},
{
name = top;
position = "{299, 554}";
}
);
layerId = "9398AC28-6BE1-4A79-9C94-3CBC2F226CE7";
paths = (
{
closed = 1;
nodes = (
"323 -12 OFFCURVE",
"384 20 OFFCURVE",
"431 96 CURVE",
"398 90 LINE",
"398 0 LINE",
"538 0 LINE",
"538 366 LINE SMOOTH",
"538 486 OFFCURVE",
"438 566 OFFCURVE",
"299 566 CURVE SMOOTH",
"180 566 OFFCURVE",
"84 507 OFFCURVE",
"51 416 CURVE",
"180 354 LINE",
"197 404 OFFCURVE",
"243 436 OFFCURVE",
"298 436 CURVE SMOOTH",
"351 436 OFFCURVE",
"388 408 OFFCURVE",
"388 366 CURVE SMOOTH",
"388 212 LINE SMOOTH",
"388 149 OFFCURVE",
"332 98 OFFCURVE",
"260 98 CURVE SMOOTH",
"216 98 OFFCURVE",
"185 117 OFFCURVE",
"185 157 CURVE SMOOTH",
"185 179 OFFCURVE",
"198 209 OFFCURVE",
"248 217 CURVE SMOOTH",
"404 243 LINE",
"404 350 LINE",
"230 324 LINE SMOOTH",
"95 304 OFFCURVE",
"30 233 OFFCURVE",
"30 151 CURVE SMOOTH",
"30 59 OFFCURVE",
"111 -12 OFFCURVE",
"238 -12 CURVE SMOOTH"
);
}
);
width = 578;
},
{
anchors = (
{
name = bottom;
position = "{224, 0}";
},
{
name = ogonek;
position = "{438, 10}";
},
{
name = top;
position = "{337, 534}";
}
);
layerId = "0E6515C6-4BDD-456A-90F7-F5B263F1D284";
paths = (
{
closed = 1;
nodes = (
"278 -12 OFFCURVE",
"351 18 OFFCURVE",
"391 78 CURVE",
"387 93 LINE",
"368 0 LINE",
"438 0 LINE",
"509 337 LINE SMOOTH",
"534 457 OFFCURVE",
"450 546 OFFCURVE",
"321 546 CURVE SMOOTH",
"236 546 OFFCURVE",
"151 501 OFFCURVE",
"110 443 CURVE",
"168 402 LINE",
"200 445 OFFCURVE",
"251 476 OFFCURVE",
"312 476 CURVE SMOOTH",
"390 476 OFFCURVE",
"459 429 OFFCURVE",
"441 344 CURVE SMOOTH",
"414 218 LINE SMOOTH",
"393 121 OFFCURVE",
"317 56 OFFCURVE",
"218 56 CURVE SMOOTH",
"149 56 OFFCURVE",
"106 89 OFFCURVE",
"106 140 CURVE SMOOTH",
"106 196 OFFCURVE",
"158 239 OFFCURVE",
"243 249 CURVE SMOOTH",
"440 272 LINE",
"453 333 LINE",
"239 306 LINE SMOOTH",
"74 285 OFFCURVE",
"30 204 OFFCURVE",
"30 134 CURVE SMOOTH",
"30 39 OFFCURVE",
"117 -12 OFFCURVE",
"206 -12 CURVE SMOOTH"
);
}
);
width = 560;
},
{
anchors = (
{
name = bottom;
position = "{233, 0}";
},
{
name = ogonek;
position = "{461, 10}";
},
{
name = top;
position = "{341, 554}";
}
);
layerId = "FF6420B2-C0A6-48EA-9EF6-B9F37DCCE47B";
paths = (
{
closed = 1;
nodes = (
"287 -12 OFFCURVE",
"339 15 OFFCURVE",
"392 76 CURVE",
"358 75 LINE",
"342 0 LINE",
"482 0 LINE",
"552 333 LINE SMOOTH",
"580 468 OFFCURVE",
"480 566 OFFCURVE",
"324 566 CURVE SMOOTH",
"219 566 OFFCURVE",
"134 521 OFFCURVE",
"86 442 CURVE",
"201 367 LINE",
"225 409 OFFCURVE",
"269 436 OFFCURVE",
"319 436 CURVE SMOOTH",
"379 436 OFFCURVE",
"417 399 OFFCURVE",
"406 349 CURVE SMOOTH",
"374 196 LINE SMOOTH",
"362 140 OFFCURVE",
"304 95 OFFCURVE",
"239 95 CURVE SMOOTH",
"192 95 OFFCURVE",
"162 118 OFFCURVE",
"162 154 CURVE SMOOTH",
"162 183 OFFCURVE",
"184 211 OFFCURVE",
"226 216 CURVE SMOOTH",
"396 237 LINE",
"419 343 LINE",
"202 320 LINE SMOOTH",
"64 305 OFFCURVE",
"7 232 OFFCURVE",
"7 148 CURVE SMOOTH",
"7 48 OFFCURVE",
"91 -12 OFFCURVE",
"208 -12 CURVE SMOOTH"
);
}
);
width = 581;
}
);
leftKerningGroup = a;
rightKerningGroup = a;
rightMetricsKey = "=n-10";
unicode = 0061;
},
{
glyphname = ae;
lastChange = "2020-02-21 16:33:19 +0000";
layers = (
{
layerId = "30C2FD74-1A74-41AC-9C29-B288AE1DBDD7";
paths = (
{
closed = 1;
nodes = (
"318 -12 OFFCURVE",
"391 32 OFFCURVE",
"421 99 CURVE",
"411 115 LINE",
"411 0 LINE",
"481 0 LINE",
"481 108 LINE",
"466 91 LINE",
"513 26 OFFCURVE",
"587 -12 OFFCURVE",
"673 -12 CURVE SMOOTH",
"785 -12 OFFCURVE",
"869 49 OFFCURVE",
"902 120 CURVE",
"838 155 LINE",
"809 97 OFFCURVE",
"755 53 OFFCURVE",
"673 53 CURVE SMOOTH",
"575 53 OFFCURVE",
"487 127 OFFCURVE",
"485 241 CURVE",
"907 241 LINE",
"910 258 OFFCURVE",
"911 275 OFFCURVE",
"911 288 CURVE SMOOTH",
"911 419 OFFCURVE",
"819 538 OFFCURVE",
"667 538 CURVE SMOOTH",
"573 538 OFFCURVE",
"496 492 OFFCURVE",
"450 417 CURVE",
"472 415 LINE",
"449 490 OFFCURVE",
"377 538 OFFCURVE",
"284 538 CURVE SMOOTH",
"190 538 OFFCURVE",
"108 483 OFFCURVE",
"78 415 CURVE",
"142 381 LINE",
"166 433 OFFCURVE",
"217 468 OFFCURVE",
"284 468 CURVE SMOOTH",
"358 468 OFFCURVE",
"411 425 OFFCURVE",
"411 359 CURVE SMOOTH",
"411 345 LINE",
"226 302 LINE SMOOTH",
"120 277 OFFCURVE",
"55 228 OFFCURVE",
"55 145 CURVE SMOOTH",
"55 53 OFFCURVE",
"136 -12 OFFCURVE",
"236 -12 CURVE SMOOTH"
);
},
{
closed = 1;
nodes = (
"174 57 OFFCURVE",
"130 93 OFFCURVE",
"130 144 CURVE SMOOTH",
"130 194 OFFCURVE",
"174 229 OFFCURVE",
"243 245 CURVE SMOOTH",
"411 284 LINE",
"411 233 LINE SMOOTH",
"411 132 OFFCURVE",
"341 57 OFFCURVE",
"243 57 CURVE SMOOTH"
);
},
{
closed = 1;
nodes = (
"498 402 OFFCURVE",
"575 473 OFFCURVE",
"664 473 CURVE SMOOTH",
"753 473 OFFCURVE",
"832 399 OFFCURVE",
"832 306 CURVE",
"487 306 LINE"
);
}
);
width = 956;
},
{
layerId = "0E6515C6-4BDD-456A-90F7-F5B263F1D284";
paths = (
{
closed = 1;
nodes = (
"272 -12 OFFCURVE",
"345 20 OFFCURVE",
"382 83 CURVE",
"374 97 LINE",
"355 0 LINE",
"425 0 LINE",
"452 132 LINE",
"434 118 LINE",
"471 40 OFFCURVE",
"550 -12 OFFCURVE",
"653 -12 CURVE SMOOTH",
"747 -12 OFFCURVE",
"828 33 OFFCURVE",
"872 95 CURVE",
"815 138 LINE",
"778 90 OFFCURVE",
"726 53 OFFCURVE",
"649 53 CURVE SMOOTH",
"547 53 OFFCURVE",
"482 118 OFFCURVE",
"482 242 CURVE",
"913 242 LINE",
"919 263 OFFCURVE",
"924 284 OFFCURVE",
"924 316 CURVE SMOOTH",
"924 453 OFFCURVE",
"829 538 OFFCURVE",
"699 538 CURVE SMOOTH",
"603 538 OFFCURVE",
"524 491 OFFCURVE",
"473 419 CURVE",
"495 416 LINE",
"475 492 OFFCURVE",
"406 538 OFFCURVE",
"314 538 CURVE SMOOTH",
"230 538 OFFCURVE",
"150 495 OFFCURVE",
"109 436 CURVE",
"165 395 LINE",
"198 440 OFFCURVE",
"248 468 OFFCURVE",
"305 468 CURVE SMOOTH",
"387 468 OFFCURVE",
"444 416 OFFCURVE",
"426 339 CURVE SMOOTH",
"423 326 LINE",
"232 302 LINE SMOOTH",
"73 282 OFFCURVE",
"30 202 OFFCURVE",
"30 133 CURVE SMOOTH",
"30 38 OFFCURVE",
"112 -12 OFFCURVE",
"201 -12 CURVE SMOOTH"
);
},
{
closed = 1;
nodes = (
"146 56 OFFCURVE",
"106 88 OFFCURVE",
"106 138 CURVE SMOOTH",
"106 198 OFFCURVE",
"162 235 OFFCURVE",
"237 244 CURVE SMOOTH",
"410 265 LINE",
"399 215 LINE SMOOTH",
"378 121 OFFCURVE",
"307 56 OFFCURVE",
"212 56 CURVE SMOOTH"
);
},
{
closed = 1;
nodes = (
"530 411 OFFCURVE",
"609 473 OFFCURVE",
"693 473 CURVE SMOOTH",
"784 473 OFFCURVE",
"855 401 OFFCURVE",
"846 308 CURVE",
"496 308 LINE"
);
}
);
width = 964;
},
{
layerId = "9398AC28-6BE1-4A79-9C94-3CBC2F226CE7";
paths = (
{
closed = 1;
nodes = (
"321 -12 OFFCURVE",
"380 18 OFFCURVE",
"428 90 CURVE",
"397 118 LINE",
"397 0 LINE",
"529 0 LINE",
"529 98 LINE",
"493 58 LINE",
"546 11 OFFCURVE",
"610 -12 OFFCURVE",
"684 -12 CURVE SMOOTH",
"794 -12 OFFCURVE",
"888 39 OFFCURVE",
"922 123 CURVE",
"802 180 LINE",
"784 147 OFFCURVE",
"746 118 OFFCURVE",
"687 118 CURVE SMOOTH",
"615 118 OFFCURVE",
"564 161 OFFCURVE",
"553 235 CURVE",
"941 235 LINE",
"946 250 OFFCURVE",
"948 273 OFFCURVE",
"948 293 CURVE SMOOTH",
"948 446 OFFCURVE",
"830 566 OFFCURVE",
"676 566 CURVE SMOOTH",
"583 566 OFFCURVE",
"502 522 OFFCURVE",
"453 452 CURVE",
"502 450 LINE",
"470 521 OFFCURVE",
"398 566 OFFCURVE",
"299 566 CURVE SMOOTH",
"180 566 OFFCURVE",
"84 507 OFFCURVE",
"51 416 CURVE",
"180 354 LINE",
"197 404 OFFCURVE",
"243 436 OFFCURVE",
"298 436 CURVE SMOOTH",
"351 436 OFFCURVE",
"388 408 OFFCURVE",
"388 366 CURVE SMOOTH",
"388 348 LINE",
"230 324 LINE SMOOTH",
"95 304 OFFCURVE",
"30 233 OFFCURVE",
"30 151 CURVE SMOOTH",
"30 59 OFFCURVE",
"111 -12 OFFCURVE",
"238 -12 CURVE SMOOTH"
);
},
{
closed = 1;
nodes = (
"216 98 OFFCURVE",
"185 117 OFFCURVE",
"185 157 CURVE SMOOTH",
"185 179 OFFCURVE",
"198 209 OFFCURVE",
"248 217 CURVE SMOOTH",
"388 240 LINE",
"388 212 LINE SMOOTH",
"388 149 OFFCURVE",
"332 98 OFFCURVE",
"260 98 CURVE SMOOTH"
);
},
{
closed = 1;
nodes = (
"572 409 OFFCURVE",
"617 441 OFFCURVE",
"676 441 CURVE SMOOTH",
"738 441 OFFCURVE",
"783 405 OFFCURVE",
"789 345 CURVE",
"557 345 LINE"
);
}
);
width = 968;
},
{
layerId = "FF6420B2-C0A6-48EA-9EF6-B9F37DCCE47B";
paths = (
{
closed = 1;
nodes = (
"267 -12 OFFCURVE",
"318 11 OFFCURVE",
"369 66 CURVE",
"357 98 LINE",
"335 0 LINE",
"465 0 LINE",
"488 110 LINE",
"441 75 LINE",
"492 18 OFFCURVE",
"565 -12 OFFCURVE",
"642 -12 CURVE SMOOTH",
"737 -12 OFFCURVE",
"821 26 OFFCURVE",
"867 95 CURVE",
"761 166 LINE",
"735 135 OFFCURVE",
"701 119 OFFCURVE",
"656 119 CURVE SMOOTH",
"582 119 OFFCURVE",
"533 161 OFFCURVE",
"533 231 CURVE",
"917 231 LINE",
"926 250 OFFCURVE",
"932 289 OFFCURVE",
"932 322 CURVE SMOOTH",
"932 455 OFFCURVE",
"832 558 OFFCURVE",
"685 558 CURVE SMOOTH",
"594 558 OFFCURVE",
"513 518 OFFCURVE",
"464 461 CURVE",
"517 459 LINE",
"483 519 OFFCURVE",
"410 558 OFFCURVE",
"313 558 CURVE SMOOTH",
"214 558 OFFCURVE",
"130 517 OFFCURVE",
"82 435 CURVE",
"195 360 LINE",
"217 400 OFFCURVE",
"258 428 OFFCURVE",
"308 428 CURVE SMOOTH",
"363 428 OFFCURVE",
"398 393 OFFCURVE",
"387 344 CURVE SMOOTH",
"383 326 LINE",
"211 308 LINE SMOOTH",
"80 294 OFFCURVE",
"4 231 OFFCURVE",
"4 139 CURVE SMOOTH",
"4 49 OFFCURVE",
"85 -12 OFFCURVE",
"198 -12 CURVE SMOOTH"
);
},
{
closed = 1;
nodes = (
"186 95 OFFCURVE",
"159 113 OFFCURVE",
"159 144 CURVE SMOOTH",
"159 174 OFFCURVE",
"178 197 OFFCURVE",
"215 202 CURVE SMOOTH",
"361 220 LINE",
"356 194 LINE SMOOTH",
"346 141 OFFCURVE",
"297 95 OFFCURVE",
"229 95 CURVE SMOOTH"
);
},
{
closed = 1;
nodes = (
"567 400 OFFCURVE",
"615 433 OFFCURVE",
"676 433 CURVE SMOOTH",
"736 433 OFFCURVE",
"777 401 OFFCURVE",
"779 341 CURVE",
"545 341 LINE"
);
}
);
width = 949;
}
);
leftKerningGroup = a;
leftMetricsKey = "=a";
rightKerningGroup = e;
rightMetricsKey = "=e";
unicode = 00E6;
},
{
glyphname = b;
lastChange = "2020-02-21 18:24:07 +0000";
layers = (
{
layerId = "30C2FD74-1A74-41AC-9C29-B288AE1DBDD7";
paths = (
{
closed = 1;
nodes = (
"508 -12 OFFCURVE",
"628 104 OFFCURVE",
"628 266 CURVE SMOOTH",
"628 427 OFFCURVE",
"508 544 OFFCURVE",
"358 544 CURVE SMOOTH",
"265 544 OFFCURVE",
"182 499 OFFCURVE",
"148 430 CURVE",
"155 416 LINE",
"155 757 LINE",
"85 757 LINE",
"85 0 LINE",
"155 0 LINE",
"155 111 LINE",
"147 97 LINE",
"184 29 OFFCURVE",
"267 -12 OFFCURVE",
"357 -12 CURVE SMOOTH"
);
},
{
closed = 1;
nodes = (
"241 58 OFFCURVE",
"155 146 OFFCURVE",
"155 266 CURVE SMOOTH",
"155 384 OFFCURVE",
"241 473 OFFCURVE",
"355 473 CURVE SMOOTH",
"468 473 OFFCURVE",
"553 384 OFFCURVE",
"553 266 CURVE SMOOTH",
"553 146 OFFCURVE",
"468 58 OFFCURVE",
"355 58 CURVE SMOOTH"
);
}
);
width = 683;
},
{
layerId = "9398AC28-6BE1-4A79-9C94-3CBC2F226CE7";
paths = (
{
closed = 1;
nodes = (
"534 -12 OFFCURVE",
"656 115 OFFCURVE",
"656 276 CURVE SMOOTH",
"656 439 OFFCURVE",
"531 566 OFFCURVE",
"373 566 CURVE SMOOTH",
"291 566 OFFCURVE",
"224 534 OFFCURVE",
"187 478 CURVE",
"210 448 LINE",
"210 757 LINE",
"60 757 LINE",
"60 0 LINE",
"200 0 LINE",
"200 101 LINE",
"186 70 LINE",
"225 16 OFFCURVE",
"296 -12 OFFCURVE",
"372 -12 CURVE SMOOTH"
);
},
{
closed = 1;
nodes = (
"270 123 OFFCURVE",
"210 185 OFFCURVE",
"210 276 CURVE SMOOTH",
"210 367 OFFCURVE",
"270 430 OFFCURVE",
"354 430 CURVE SMOOTH",
"439 430 OFFCURVE",
"501 366 OFFCURVE",
"501 276 CURVE SMOOTH",
"501 186 OFFCURVE",
"439 123 OFFCURVE",
"354 123 CURVE SMOOTH"
);
}
);
width = 686;
},
{
layerId = "0E6515C6-4BDD-456A-90F7-F5B263F1D284";
paths = (
{
closed = 1;
nodes = (
"499 -12 OFFCURVE",
"631 136 OFFCURVE",
"631 299 CURVE SMOOTH",
"631 448 OFFCURVE",
"526 546 OFFCURVE",
"388 546 CURVE SMOOTH",
"307 546 OFFCURVE",
"230 511 OFFCURVE",
"187 453 CURVE",
"191 438 LINE",
"258 753 LINE",
"188 753 LINE",
"29 0 LINE",
"100 0 LINE",
"127 133 LINE",
"117 120 LINE",
"141 50 OFFCURVE",
"225 -12 OFFCURVE",
"328 -12 CURVE SMOOTH"
);
},
{
closed = 1;
nodes = (
"226 58 OFFCURVE",
"155 135 OFFCURVE",
"155 239 CURVE SMOOTH",
"155 362 OFFCURVE",
"251 476 OFFCURVE",
"379 476 CURVE SMOOTH",
"485 476 OFFCURVE",
"555 399 OFFCURVE",
"555 295 CURVE SMOOTH",
"555 173 OFFCURVE",
"462 58 OFFCURVE",
"335 58 CURVE SMOOTH"
);
}
);
width = 686;
},
{
layerId = "FF6420B2-C0A6-48EA-9EF6-B9F37DCCE47B";
paths = (
{
closed = 1;
nodes = (
"515 -12 OFFCURVE",
"658 136 OFFCURVE",
"658 307 CURVE SMOOTH",
"658 459 OFFCURVE",
"546 564 OFFCURVE",
"404 564 CURVE SMOOTH",
"339 564 OFFCURVE",
"279 542 OFFCURVE",
"234 494 CURVE",
"250 462 LINE",
"313 757 LINE",
"162 757 LINE",
"4 0 LINE",
"154 0 LINE",
"179 121 LINE",
"149 92 LINE",
"177 30 OFFCURVE",
"255 -12 OFFCURVE",
"346 -12 CURVE SMOOTH"
);
},
{
closed = 1;
nodes = (
"262 128 OFFCURVE",
"211 181 OFFCURVE",
"211 263 CURVE SMOOTH",
"211 358 OFFCURVE",
"280 433 OFFCURVE",
"372 433 CURVE SMOOTH",
"450 433 OFFCURVE",
"503 379 OFFCURVE",
"503 298 CURVE SMOOTH",
"503 208 OFFCURVE",
"435 128 OFFCURVE",
"340 128 CURVE SMOOTH"
);
}
);
width = 689;
}
);
leftKerningGroup = h;
leftMetricsKey = "=h";
rightKerningGroup = o;
rightMetricsKey = "=o";
unicode = 0062;
},
{
glyphname = c;
lastChange = "2020-02-21 18:23:59 +0000";
layers = (
{
anchors = (
{
name = bottom;
position = "{321, 0}";
},
{
name = top;
position = "{294, 534}";
}
);
layerId = "30C2FD74-1A74-41AC-9C29-B288AE1DBDD7";
paths = (
{
closed = 1;
nodes = (
"421 -12 OFFCURVE",
"509 49 OFFCURVE",
"543 122 CURVE",
"479 158 LINE",
"451 100 OFFCURVE",
"396 58 OFFCURVE",
"321 58 CURVE SMOOTH",
"212 58 OFFCURVE",
"130 149 OFFCURVE",
"130 267 CURVE SMOOTH",
"130 387 OFFCURVE",
"212 476 OFFCURVE",
"321 476 CURVE SMOOTH",
"393 476 OFFCURVE",
"450 436 OFFCURVE",
"479 377 CURVE",
"543 411 LINE",
"509 486 OFFCURVE",
"422 546 OFFCURVE",
"321 546 CURVE SMOOTH",
"168 546 OFFCURVE",
"55 428 OFFCURVE",
"55 268 CURVE SMOOTH",
"55 108 OFFCURVE",
"168 -12 OFFCURVE",
"321 -12 CURVE SMOOTH"
);
}
);
width = 588;
},
{
anchors = (
{
name = bottom;
position = "{326, 0}";
},
{
name = top;
position = "{303, 554}";
}
);
layerId = "9398AC28-6BE1-4A79-9C94-3CBC2F226CE7";
paths = (
{
closed = 1;
nodes = (
"452 -12 OFFCURVE",
"554 59 OFFCURVE",
"586 156 CURVE",
"458 220 LINE",
"440 161 OFFCURVE",
"390 123 OFFCURVE",
"326 123 CURVE SMOOTH",
"243 123 OFFCURVE",
"185 187 OFFCURVE",
"185 277 CURVE SMOOTH",
"185 369 OFFCURVE",
"245 431 OFFCURVE",
"325 431 CURVE SMOOTH",
"388 431 OFFCURVE",
"440 393 OFFCURVE",
"458 334 CURVE",
"586 396 LINE",
"552 498 OFFCURVE",
"450 566 OFFCURVE",
"326 566 CURVE SMOOTH",
"157 566 OFFCURVE",
"30 442 OFFCURVE",
"30 278 CURVE SMOOTH",
"30 113 OFFCURVE",
"158 -12 OFFCURVE",
"326 -12 CURVE SMOOTH"
);
}
);
width = 606;
},
{
anchors = (
{
name = bottom;
position = "{291, 0}";
},
{
name = top;
position = "{353, 534}";
}
);
layerId = "0E6515C6-4BDD-456A-90F7-F5B263F1D284";
paths = (
{
closed = 1;
nodes = (
"379 -12 OFFCURVE",
"465 33 OFFCURVE",
"513 99 CURVE",
"456 141 LINE",
"416 86 OFFCURVE",
"360 58 OFFCURVE",
"301 58 CURVE SMOOTH",
"201 58 OFFCURVE",
"130 132 OFFCURVE",
"130 236 CURVE SMOOTH",
"130 365 OFFCURVE",
"221 476 OFFCURVE",
"348 476 CURVE SMOOTH",
"423 476 OFFCURVE",
"484 431 OFFCURVE",
"501 360 CURVE",
"573 388 LINE",
"550 482 OFFCURVE",
"461 546 OFFCURVE",
"352 546 CURVE SMOOTH",
"192 546 OFFCURVE",
"55 410 OFFCURVE",
"55 229 CURVE SMOOTH",
"55 87 OFFCURVE",
"152 -12 OFFCURVE",
"291 -12 CURVE SMOOTH"
);
}
);
width = 594;
},
{
anchors = (
{
name = bottom;
position = "{302, 0}";
},
{
name = top;
position = "{363, 554}";
}
);
layerId = "FF6420B2-C0A6-48EA-9EF6-B9F37DCCE47B";
paths = (
{
closed = 1;
nodes = (
"406 -12 OFFCURVE",
"506 39 OFFCURVE",
"557 130 CURVE",
"444 205 LINE",
"417 155 OFFCURVE",
"362 123 OFFCURVE",
"310 123 CURVE SMOOTH",
"236 123 OFFCURVE",
"185 174 OFFCURVE",
"185 249 CURVE SMOOTH",
"185 357 OFFCURVE",
"249 430 OFFCURVE",
"344 430 CURVE SMOOTH",
"412 430 OFFCURVE",
"463 386 OFFCURVE",
"468 320 CURVE",
"608 368 LINE",
"593 494 OFFCURVE",
"479 566 OFFCURVE",
"349 566 CURVE SMOOTH",
"160 566 OFFCURVE",
"30 414 OFFCURVE",
"30 241 CURVE SMOOTH",
"30 48 OFFCURVE",
"192 -12 OFFCURVE",
"302 -12 CURVE SMOOTH"
);
}
);
width = 609;
}
);
leftKerningGroup = o;
leftMetricsKey = "=o";
rightKerningGroup = c;
unicode = 0063;
},
{
glyphname = d;
lastChange = "2020-02-21 18:23:59 +0000";
layers = (
{
layerId = "30C2FD74-1A74-41AC-9C29-B288AE1DBDD7";
paths = (
{
closed = 1;
nodes = (
"416 -12 OFFCURVE",
"499 29 OFFCURVE",
"536 97 CURVE",
"528 111 LINE",
"528 0 LINE",
"598 0 LINE",
"598 753 LINE",
"528 753 LINE",
"528 416 LINE",
"535 430 LINE",
"501 499 OFFCURVE",
"418 544 OFFCURVE",
"325 544 CURVE SMOOTH",
"175 544 OFFCURVE",
"55 427 OFFCURVE",
"55 266 CURVE SMOOTH",
"55 104 OFFCURVE",
"175 -12 OFFCURVE",
"326 -12 CURVE SMOOTH"
);
},
{
closed = 1;
nodes = (
"215 58 OFFCURVE",
"130 146 OFFCURVE",
"130 266 CURVE SMOOTH",
"130 384 OFFCURVE",
"215 473 OFFCURVE",
"328 473 CURVE SMOOTH",
"442 473 OFFCURVE",
"528 384 OFFCURVE",
"528 266 CURVE SMOOTH",
"528 146 OFFCURVE",
"442 58 OFFCURVE",
"328 58 CURVE SMOOTH"
);
}
);
width = 683;
},
{
layerId = "9398AC28-6BE1-4A79-9C94-3CBC2F226CE7";
paths = (
{
closed = 1;
nodes = (
"390 -12 OFFCURVE",
"461 16 OFFCURVE",
"500 70 CURVE",
"486 101 LINE",
"486 0 LINE",
"626 0 LINE",
"626 757 LINE",
"476 757 LINE",
"476 448 LINE",
"499 478 LINE",
"462 534 OFFCURVE",
"395 566 OFFCURVE",
"314 566 CURVE SMOOTH",
"152 566 OFFCURVE",
"30 436 OFFCURVE",
"30 276 CURVE SMOOTH",
"30 115 OFFCURVE",
"152 -12 OFFCURVE",
"314 -12 CURVE SMOOTH"
);
},
{
closed = 1;
nodes = (
"247 123 OFFCURVE",
"185 186 OFFCURVE",
"185 276 CURVE SMOOTH",
"185 366 OFFCURVE",
"247 430 OFFCURVE",
"332 430 CURVE SMOOTH",
"416 430 OFFCURVE",
"476 367 OFFCURVE",
"476 276 CURVE SMOOTH",
"476 185 OFFCURVE",
"416 123 OFFCURVE",
"332 123 CURVE SMOOTH"
);
}
);
width = 686;
},
{
layerId = "0E6515C6-4BDD-456A-90F7-F5B263F1D284";
paths = (
{
closed = 1;
nodes = (
"379 -12 OFFCURVE",
"453 20 OFFCURVE",
"497 76 CURVE",
"492 91 LINE",
"473 0 LINE",
"544 0 LINE",
"702 753 LINE",
"632 753 LINE",
"556 396 LINE",
"566 410 LINE",
"545 490 OFFCURVE",
"459 546 OFFCURVE",
"354 546 CURVE SMOOTH",
"180 546 OFFCURVE",
"55 396 OFFCURVE",
"55 231 CURVE SMOOTH",
"55 74 OFFCURVE",
"171 -12 OFFCURVE",
"299 -12 CURVE SMOOTH"
);
},
{
closed = 1;
nodes = (
"201 58 OFFCURVE",
"130 133 OFFCURVE",
"130 239 CURVE SMOOTH",
"130 362 OFFCURVE",
"222 474 OFFCURVE",
"350 474 CURVE SMOOTH",
"453 474 OFFCURVE",
"530 401 OFFCURVE",
"530 293 CURVE SMOOTH",
"530 174 OFFCURVE",
"435 58 OFFCURVE",
"305 58 CURVE SMOOTH"
);
}
);
width = 686;
},
{
layerId = "FF6420B2-C0A6-48EA-9EF6-B9F37DCCE47B";
paths = (
{
closed = 1;
nodes = (
"348 -12 OFFCURVE",
"409 10 OFFCURVE",
"451 53 CURVE",
"443 85 LINE",
"426 0 LINE",
"566 0 LINE",
"725 757 LINE",
"575 757 LINE",
"506 429 LINE",
"535 457 LINE",
"509 520 OFFCURVE",
"440 564 OFFCURVE",
"343 564 CURVE SMOOTH",
"155 564 OFFCURVE",
"28 397 OFFCURVE",
"28 237 CURVE SMOOTH",
"28 60 OFFCURVE",
"181 -12 OFFCURVE",
"288 -12 CURVE SMOOTH"
);
},
{
closed = 1;
nodes = (
"238 121 OFFCURVE",
"185 176 OFFCURVE",
"185 256 CURVE SMOOTH",
"185 347 OFFCURVE",
"253 426 OFFCURVE",
"347 426 CURVE SMOOTH",
"423 426 OFFCURVE",
"475 373 OFFCURVE",
"475 292 CURVE SMOOTH",
"475 199 OFFCURVE",
"408 121 OFFCURVE",
"315 121 CURVE SMOOTH"
);
}
);
width = 685;
}
);
leftKerningGroup = o;
leftMetricsKey = "=o";
rightKerningGroup = d;
rightMetricsKey = "=|h";
unicode = 0064;
},
{
glyphname = eth;
lastChange = "2020-02-21 16:33:19 +0000";
layers = (
{
layerId = "30C2FD74-1A74-41AC-9C29-B288AE1DBDD7";
paths = (
{
closed = 1;
nodes = (
"142 805 OFFCURVE",
"104 796 OFFCURVE",
"64 780 CURVE",
"76 714 LINE",
"108 726 OFFCURVE",
"142 735 OFFCURVE",
"185 735 CURVE SMOOTH",
"334 735 OFFCURVE",
"454 627 OFFCURVE",
"484 459 CURVE",
"512 442 LINE",
"459 533 OFFCURVE",
"370 542 OFFCURVE",
"323 542 CURVE SMOOTH",
"156 542 OFFCURVE",
"55 421 OFFCURVE",
"55 266 CURVE SMOOTH",
"55 100 OFFCURVE",
"170 -12 OFFCURVE",
"331 -12 CURVE SMOOTH",
"476 -12 OFFCURVE",
"591 80 OFFCURVE",
"591 296 CURVE SMOOTH",
"591 556 OFFCURVE",
"425 805 OFFCURVE",
"188 805 CURVE SMOOTH"
);
},
{
closed = 1;
nodes = (
"213 58 OFFCURVE",
"130 147 OFFCURVE",
"130 264 CURVE SMOOTH",
"130 383 OFFCURVE",
"215 472 OFFCURVE",
"323 472 CURVE SMOOTH",
"442 472 OFFCURVE",
"516 385 OFFCURVE",
"516 260 CURVE SMOOTH",
"516 143 OFFCURVE",
"442 58 OFFCURVE",
"329 58 CURVE SMOOTH"
);
},
{
closed = 1;
nodes = (
"540 696 LINE",
"540 756 LINE",
"242 647 LINE",
"242 588 LINE"
);
}
);
width = 646;
},
{
layerId = "0E6515C6-4BDD-456A-90F7-F5B263F1D284";
paths = (
{
closed = 1;
nodes = (
"246 817 OFFCURVE",
"210 808 OFFCURVE",
"167 792 CURVE",
"173 725 LINE",
"213 740 OFFCURVE",
"243 747 OFFCURVE",
"299 747 CURVE SMOOTH",
"433 747 OFFCURVE",
"554 634 OFFCURVE",
"564 466 CURVE",
"591 448 LINE",
"546 541 OFFCURVE",
"456 550 OFFCURVE",
"407 550 CURVE SMOOTH",
"232 550 OFFCURVE",
"102 415 OFFCURVE",
"102 235 CURVE SMOOTH",
"102 86 OFFCURVE",
"206 -12 OFFCURVE",
"348 -12 CURVE SMOOTH",
"506 -12 OFFCURVE",
"657 85 OFFCURVE",
"657 357 CURVE SMOOTH",
"657 622 OFFCURVE",
"507 817 OFFCURVE",
"307 817 CURVE SMOOTH"
);
},
{
closed = 1;
nodes = (
"253 58 OFFCURVE",
"177 136 OFFCURVE",
"177 244 CURVE SMOOTH",
"177 373 OFFCURVE",
"279 480 OFFCURVE",
"400 480 CURVE SMOOTH",
"503 480 OFFCURVE",
"578 402 OFFCURVE",
"578 294 CURVE SMOOTH",
"578 156 OFFCURVE",
"486 58 OFFCURVE",
"356 58 CURVE SMOOTH"
);
},
{
closed = 1;
nodes = (
"646 707 LINE",
"652 767 LINE",
"337 657 LINE",
"330 597 LINE"
);
}
);
width = 707;
},
{
layerId = "9398AC28-6BE1-4A79-9C94-3CBC2F226CE7";
paths = (
{
closed = 1;
nodes = (
"173 825 OFFCURVE",
"118 816 OFFCURVE",
"80 798 CURVE",
"96 670 LINE",
"132 687 OFFCURVE",
"173 695 OFFCURVE",
"208 695 CURVE SMOOTH",
"318 695 OFFCURVE",
"447 614 OFFCURVE",
"455 472 CURVE",
"472 496 LINE",
"450 536 OFFCURVE",
"385 555 OFFCURVE",
"321 555 CURVE SMOOTH",
"159 555 OFFCURVE",
"30 434 OFFCURVE",
"30 272 CURVE SMOOTH",
"30 111 OFFCURVE",
"157 -12 OFFCURVE",
"324 -12 CURVE SMOOTH",
"487 -12 OFFCURVE",
"618 104 OFFCURVE",
"618 340 CURVE SMOOTH",
"618 595 OFFCURVE",
"464 825 OFFCURVE",
"220 825 CURVE SMOOTH"
);
},
{
closed = 1;
nodes = (
"241 123 OFFCURVE",
"185 184 OFFCURVE",
"185 272 CURVE SMOOTH",
"185 358 OFFCURVE",
"241 420 OFFCURVE",
"324 420 CURVE SMOOTH",
"407 420 OFFCURVE",
"463 358 OFFCURVE",
"463 271 CURVE SMOOTH",
"463 186 OFFCURVE",
"409 123 OFFCURVE",
"324 123 CURVE SMOOTH"
);
},
{
closed = 1;
nodes = (
"577 700 LINE",
"577 761 LINE",
"217 632 LINE",
"217 571 LINE"
);
}
);
width = 648;
},
{
layerId = "FF6420B2-C0A6-48EA-9EF6-B9F37DCCE47B";
paths = (
{
closed = 1;
nodes = (
"231 817 OFFCURVE",
"178 808 OFFCURVE",
"139 790 CURVE",
"141 662 LINE",
"179 679 OFFCURVE",
"217 687 OFFCURVE",
"254 687 CURVE SMOOTH",
"355 687 OFFCURVE",
"477 611 OFFCURVE",
"468 467 CURVE",
"488 492 LINE",
"470 533 OFFCURVE",
"406 550 OFFCURVE",
"347 550 CURVE SMOOTH",
"176 550 OFFCURVE",
"32 408 OFFCURVE",
"32 238 CURVE SMOOTH",
"32 95 OFFCURVE",
"139 -12 OFFCURVE",
"292 -12 CURVE SMOOTH",
"488 -12 OFFCURVE",
"620 156 OFFCURVE",
"620 404 CURVE SMOOTH",
"620 629 OFFCURVE",
"496 817 OFFCURVE",
"279 817 CURVE SMOOTH"
);
},
{
closed = 1;
nodes = (
"233 123 OFFCURVE",
"188 174 OFFCURVE",
"188 248 CURVE SMOOTH",
"188 344 OFFCURVE",
"252 415 OFFCURVE",
"337 415 CURVE SMOOTH",
"410 415 OFFCURVE",
"456 364 OFFCURVE",
"456 289 CURVE SMOOTH",
"456 194 OFFCURVE",
"392 123 OFFCURVE",
"306 123 CURVE SMOOTH"
);
},
{
closed = 1;
nodes = (
"614 693 LINE",
"621 753 LINE",
"253 625 LINE",
"247 565 LINE"
);
}
);
width = 637;
}
);
leftKerningGroup = o;
leftMetricsKey = "=o";
rightKerningGroup = o;
rightMetricsKey = "=o";
unicode = 00F0;
},
{
glyphname = e;
lastChange = "2020-02-21 18:23:59 +0000";
layers = (
{
anchors = (
{
name = bottom;
position = "{321, 0}";
},
{
name = top;
position = "{314, 534}";
}
);
layerId = "30C2FD74-1A74-41AC-9C29-B288AE1DBDD7";
paths = (
{
closed = 1;
nodes = (
"432 -12 OFFCURVE",
"519 49 OFFCURVE",
"553 122 CURVE",
"489 157 LINE",
"459 98 OFFCURVE",
"404 53 OFFCURVE",
"321 53 CURVE SMOOTH",
"212 53 OFFCURVE",
"120 141 OFFCURVE",
"130 267 CURVE",
"120 397 OFFCURVE",
"211 481 OFFCURVE",
"314 481 CURVE SMOOTH",
"399 481 OFFCURVE",
"483 408 OFFCURVE",
"483 310 CURVE",
"95 310 LINE",
"95 245 LINE",
"558 245 LINE",
"561 262 OFFCURVE",
"562 280 OFFCURVE",
"562 292 CURVE SMOOTH",
"562 425 OFFCURVE",
"469 546 OFFCURVE",
"314 546 CURVE SMOOTH",
"166 546 OFFCURVE",
"55 429 OFFCURVE",
"55 268 CURVE SMOOTH",
"55 106 OFFCURVE",
"171 -12 OFFCURVE",
"321 -12 CURVE SMOOTH"
);
}
);
width = 607;
},
{
anchors = (
{
name = bottom;
position = "{320, 0}";
},
{
name = top;
position = "{312, 554}";
}
);
layerId = "9398AC28-6BE1-4A79-9C94-3CBC2F226CE7";
paths = (
{
closed = 1;
nodes = (
"437 -12 OFFCURVE",
"529 42 OFFCURVE",
"563 123 CURVE",
"443 180 LINE",
"421 142 OFFCURVE",
"379 118 OFFCURVE",
"324 118 CURVE SMOOTH",
"235 118 OFFCURVE",
"177 180 OFFCURVE",
"185 277 CURVE",
"178 385 OFFCURVE",
"231 446 OFFCURVE",
"312 446 CURVE SMOOTH",
"376 446 OFFCURVE",
"424 405 OFFCURVE",
"430 345 CURVE",
"159 345 LINE",
"159 235 LINE",
"582 235 LINE",
"587 250 OFFCURVE",
"589 272 OFFCURVE",
"589 293 CURVE SMOOTH",
"589 446 OFFCURVE",
"469 566 OFFCURVE",
"312 566 CURVE SMOOTH",
"153 566 OFFCURVE",
"30 443 OFFCURVE",
"30 278 CURVE SMOOTH",
"30 118 OFFCURVE",
"146 -12 OFFCURVE",
"322 -12 CURVE SMOOTH"
);
}
);
width = 609;
},
{
anchors = (
{
name = bottom;
position = "{300, 0}";
},
{
name = top;
position = "{343, 534}";
}
);
layerId = "0E6515C6-4BDD-456A-90F7-F5B263F1D284";
paths = (
{
closed = 1;
nodes = (
"397 -12 OFFCURVE",
"479 36 OFFCURVE",
"521 96 CURVE",
"464 140 LINE",
"429 93 OFFCURVE",
"375 53 OFFCURVE",
"300 53 CURVE SMOOTH",
"204 53 OFFCURVE",
"125 120 OFFCURVE",
"125 218 CURVE",
"125 350 OFFCURVE",
"207 481 OFFCURVE",
"343 481 CURVE SMOOTH",
"429 481 OFFCURVE",
"506 411 OFFCURVE",
"496 312 CURVE",
"108 312 LINE",
"100 246 LINE",
"563 246 LINE",
"569 266 OFFCURVE",
"574 290 OFFCURVE",
"574 323 CURVE SMOOTH",
"574 443 OFFCURVE",
"494 546 OFFCURVE",
"343 546 CURVE SMOOTH",
"182 546 OFFCURVE",
"55 400 OFFCURVE",
"55 230 CURVE SMOOTH",
"55 87 OFFCURVE",
"156 -12 OFFCURVE",
"299 -12 CURVE SMOOTH"
);
}
);
width = 613;
},
{
anchors = (
{
name = bottom;
position = "{301, 0}";
},
{
name = top;
position = "{344, 554}";
}
);
layerId = "FF6420B2-C0A6-48EA-9EF6-B9F37DCCE47B";
paths = (
{
closed = 1;
nodes = (
"396 -12 OFFCURVE",
"484 27 OFFCURVE",
"529 96 CURVE",
"423 168 LINE",
"396 136 OFFCURVE",
"360 119 OFFCURVE",
"312 119 CURVE SMOOTH",
"236 119 OFFCURVE",
"181 161 OFFCURVE",
"181 234 CURVE",
"171 362 OFFCURVE",
"234 446 OFFCURVE",
"333 446 CURVE SMOOTH",
"397 446 OFFCURVE",
"441 405 OFFCURVE",
"442 345 CURVE",
"171 345 LINE",
"159 235 LINE",
"581 235 LINE",
"590 254 OFFCURVE",
"596 296 OFFCURVE",
"596 326 CURVE SMOOTH",
"596 461 OFFCURVE",
"493 566 OFFCURVE",
"338 566 CURVE SMOOTH",
"149 566 OFFCURVE",
"31 406 OFFCURVE",
"31 247 CURVE SMOOTH",
"31 82 OFFCURVE",
"156 -12 OFFCURVE",
"302 -12 CURVE SMOOTH"
);
}
);
width = 612;
}
);
leftKerningGroup = o;
leftMetricsKey = "=o";
rightKerningGroup = e;
unicode = 0065;
},
{
glyphname = f;
lastChange = "2020-02-21 18:23:59 +0000";
layers = (
{
layerId = "30C2FD74-1A74-41AC-9C29-B288AE1DBDD7";
paths = (
{
closed = 1;
nodes = (
"215 0 LINE",
"215 463 LINE",
"349 463 LINE",
"349 534 LINE",
"215 534 LINE",
"215 588 LINE SMOOTH",
"215 658 OFFCURVE",
"260 694 OFFCURVE",
"321 694 CURVE SMOOTH",
"330 694 OFFCURVE",
"355 693 OFFCURVE",
"368 691 CURVE",
"368 754 LINE",
"356 757 OFFCURVE",
"329 759 OFFCURVE",
"314 759 CURVE SMOOTH",
"226 759 OFFCURVE",
"145 699 OFFCURVE",
"145 588 CURVE SMOOTH",
"145 534 LINE",
"35 534 LINE",
"35 463 LINE",
"145 463 LINE",
"145 0 LINE"
);
}
);
width = 403;
},
{
layerId = "9398AC28-6BE1-4A79-9C94-3CBC2F226CE7";
paths = (
{
closed = 1;
nodes = (
"258 0 LINE",
"258 423 LINE",
"382 423 LINE",
"382 554 LINE",
"258 554 LINE",
"258 567 LINE SMOOTH",
"258 616 OFFCURVE",
"290 642 OFFCURVE",
"349 642 CURVE SMOOTH",
"358 642 OFFCURVE",
"370 641 OFFCURVE",
"384 639 CURVE",
"384 767 LINE",
"370 770 OFFCURVE",
"345 772 OFFCURVE",
"329 772 CURVE SMOOTH",
"191 772 OFFCURVE",
"108 697 OFFCURVE",
"108 567 CURVE SMOOTH",
"108 554 LINE",
"10 554 LINE",
"10 423 LINE",
"108 423 LINE",
"108 0 LINE"
);
}
);
width = 404;
},
{
layerId = "0E6515C6-4BDD-456A-90F7-F5B263F1D284";
paths = (
{
closed = 1;
nodes = (
"159 0 LINE",
"257 463 LINE",
"391 463 LINE",
"406 534 LINE",
"272 534 LINE",
"282 585 LINE SMOOTH",
"297 660 OFFCURVE",
"341 693 OFFCURVE",
"392 693 CURVE SMOOTH",
"423 693 OFFCURVE",
"443 687 OFFCURVE",
"454 684 CURVE",
"467 746 LINE",
"453 751 OFFCURVE",
"421 757 OFFCURVE",
"397 757 CURVE SMOOTH",
"313 757 OFFCURVE",
"236 705 OFFCURVE",
"214 595 CURVE SMOOTH",
"202 534 LINE",
"92 534 LINE",
"77 463 LINE",
"187 463 LINE",
"89 0 LINE"
);
}
);
width = 400;
},
{
guideLines = (
{
angle = 78.0056;
position = "{255, 265}";
},
{
angle = 78.0056;
position = "{51, 0}";
}
);
layerId = "FF6420B2-C0A6-48EA-9EF6-B9F37DCCE47B";
paths = (
{
closed = 1;
nodes = (
"199 0 LINE",
"288 421 LINE",
"410 421 LINE",
"438 552 LINE",
"315 552 LINE",
"320 575 LINE SMOOTH",
"329 617 OFFCURVE",
"359 640 OFFCURVE",
"403 640 CURVE SMOOTH",
"419 640 OFFCURVE",
"442 637 OFFCURVE",
"458 633 CURVE",
"484 760 LINE",
"462 768 OFFCURVE",
"419 773 OFFCURVE",
"391 773 CURVE SMOOTH",
"284 773 OFFCURVE",
"197 705 OFFCURVE",
"173 590 CURVE SMOOTH",
"165 552 LINE",
"68 552 LINE",
"41 421 LINE",
"138 421 LINE",
"49 0 LINE"
);
}
);
width = 402;
}
);
leftKerningGroup = f;
rightKerningGroup = f;
unicode = 0066;
},
{
glyphname = g;
lastChange = "2020-02-21 18:23:59 +0000";
layers = (
{
layerId = "30C2FD74-1A74-41AC-9C29-B288AE1DBDD7";
paths = (
{
closed = 1;
nodes = (
"471 -215 OFFCURVE",
"577 -109 OFFCURVE",
"577 23 CURVE SMOOTH",
"577 534 LINE",
"507 534 LINE",
"507 428 LINE",
"516 439 LINE",
"482 505 OFFCURVE",
"408 546 OFFCURVE",
"318 546 CURVE SMOOTH",
"167 546 OFFCURVE",
"55 431 OFFCURVE",
"55 289 CURVE SMOOTH",
"55 143 OFFCURVE",
"172 27 OFFCURVE",
"320 27 CURVE SMOOTH",
"404 27 OFFCURVE",
"479 65 OFFCURVE",
"517 128 CURVE",
"507 140 LINE",
"507 23 LINE SMOOTH",
"507 -82 OFFCURVE",
"420 -145 OFFCURVE",
"319 -145 CURVE SMOOTH",
"230 -145 OFFCURVE",
"176 -96 OFFCURVE",
"153 -47 CURVE",
"89 -82 LINE",
"125 -158 OFFCURVE",
"212 -215 OFFCURVE",
"321 -215 CURVE SMOOTH"
);
},
{
closed = 1;
nodes = (
"207 98 OFFCURVE",
"130 175 OFFCURVE",
"130 287 CURVE SMOOTH",
"130 401 OFFCURVE",
"211 476 OFFCURVE",
"317 476 CURVE SMOOTH",
"427 476 OFFCURVE",
"507 396 OFFCURVE",
"507 287 CURVE SMOOTH",
"507 179 OFFCURVE",
"431 98 OFFCURVE",
"318 98 CURVE SMOOTH"
);
}
);
width = 662;
},
{
layerId = "9398AC28-6BE1-4A79-9C94-3CBC2F226CE7";
paths = (
{
closed = 1;
nodes = (
"485 -225 OFFCURVE",
"616 -125 OFFCURVE",
"616 29 CURVE SMOOTH",
"616 554 LINE",
"476 554 LINE",
"476 433 LINE",
"495 469 LINE",
"456 529 OFFCURVE",
"392 566 OFFCURVE",
"306 566 CURVE SMOOTH",
"163 566 OFFCURVE",
"30 465 OFFCURVE",
"30 298 CURVE SMOOTH",
"30 136 OFFCURVE",
"157 27 OFFCURVE",
"308 27 CURVE SMOOTH",
"390 27 OFFCURVE",
"457 59 OFFCURVE",
"495 120 CURVE",
"466 156 LINE",
"466 29 LINE SMOOTH",
"466 -44 OFFCURVE",
"407 -90 OFFCURVE",
"329 -90 CURVE SMOOTH",
"259 -90 OFFCURVE",
"213 -54 OFFCURVE",
"195 5 CURVE",
"67 -58 LINE",
"100 -159 OFFCURVE",
"203 -225 OFFCURVE",
"329 -225 CURVE SMOOTH"
);
},
{
closed = 1;
nodes = (
"247 164 OFFCURVE",
"185 218 OFFCURVE",
"185 296 CURVE SMOOTH",
"185 376 OFFCURVE",
"249 431 OFFCURVE",
"327 431 CURVE SMOOTH",
"405 431 OFFCURVE",
"466 376 OFFCURVE",
"466 296 CURVE SMOOTH",
"466 218 OFFCURVE",
"407 164 OFFCURVE",
"327 164 CURVE SMOOTH"
);
}
);
width = 676;
},
{
layerId = "0E6515C6-4BDD-456A-90F7-F5B263F1D284";
paths = (
{
closed = 1;
nodes = (
"382 -215 OFFCURVE",
"497 -127 OFFCURVE",
"524 0 CURVE SMOOTH",
"638 534 LINE",
"568 534 LINE",
"539 397 LINE",
"550 408 LINE",
"527 494 OFFCURVE",
"447 546 OFFCURVE",
"348 546 CURVE SMOOTH",
"190 546 OFFCURVE",
"59 411 OFFCURVE",
"59 259 CURVE SMOOTH",
"59 123 OFFCURVE",
"164 27 OFFCURVE",
"294 27 CURVE SMOOTH",
"367 27 OFFCURVE",
"441 58 OFFCURVE",
"489 117 CURVE",
"483 130 LINE",
"456 7 LINE SMOOTH",
"436 -84 OFFCURVE",
"351 -145 OFFCURVE",
"257 -145 CURVE SMOOTH",
"175 -145 OFFCURVE",
"110 -100 OFFCURVE",
"92 -28 CURVE",
"22 -56 LINE",
"44 -150 OFFCURVE",
"139 -215 OFFCURVE",
"253 -215 CURVE SMOOTH"
);
},
{
closed = 1;
nodes = (
"203 97 OFFCURVE",
"135 161 OFFCURVE",
"135 262 CURVE SMOOTH",
"135 373 OFFCURVE",
"217 476 OFFCURVE",
"342 476 CURVE SMOOTH",
"444 476 OFFCURVE",
"516 408 OFFCURVE",
"516 308 CURVE SMOOTH",
"516 197 OFFCURVE",
"428 97 OFFCURVE",
"303 97 CURVE SMOOTH"
);
}
);
width = 666;
},
{
layerId = "FF6420B2-C0A6-48EA-9EF6-B9F37DCCE47B";
paths = (
{
closed = 1;
nodes = (
"407 -225 OFFCURVE",
"531 -134 OFFCURVE",
"559 0 CURVE SMOOTH",
"675 554 LINE",
"525 554 LINE",
"497 417 LINE",
"532 450 LINE",
"501 526 OFFCURVE",
"429 566 OFFCURVE",
"337 566 CURVE SMOOTH",
"159 566 OFFCURVE",
"35 421 OFFCURVE",
"35 269 CURVE SMOOTH",
"35 124 OFFCURVE",
"148 27 OFFCURVE",
"285 27 CURVE SMOOTH",
"355 27 OFFCURVE",
"415 53 OFFCURVE",
"459 103 CURVE",
"438 142 LINE",
"411 16 LINE SMOOTH",
"397 -51 OFFCURVE",
"339 -90 OFFCURVE",
"271 -90 CURVE SMOOTH",
"200 -90 OFFCURVE",
"148 -50 OFFCURVE",
"142 19 CURVE",
"3 -29 LINE",
"17 -149 OFFCURVE",
"122 -225 OFFCURVE",
"261 -225 CURVE SMOOTH"
);
},
{
closed = 1;
nodes = (
"247 163 OFFCURVE",
"192 210 OFFCURVE",
"192 282 CURVE SMOOTH",
"192 360 OFFCURVE",
"255 429 OFFCURVE",
"344 429 CURVE SMOOTH",
"417 429 OFFCURVE",
"470 382 OFFCURVE",
"470 309 CURVE SMOOTH",
"470 229 OFFCURVE",
"406 163 OFFCURVE",
"320 163 CURVE SMOOTH"
);
}
);
width = 678;
}
);
leftKerningGroup = o;
leftMetricsKey = "=o";
rightKerningGroup = g;
rightMetricsKey = "=|n";
unicode = 0067;
},
{
glyphname = h;
lastChange = "2020-02-21 18:24:07 +0000";
layers = (
{
layerId = "30C2FD74-1A74-41AC-9C29-B288AE1DBDD7";
paths = (
{
closed = 1;
nodes = (
"155 0 LINE",
"155 324 LINE SMOOTH",
"155 415 OFFCURVE",
"214 473 OFFCURVE",
"301 473 CURVE SMOOTH",
"390 473 OFFCURVE",
"446 414 OFFCURVE",
"446 324 CURVE SMOOTH",
"446 0 LINE",
"516 0 LINE",
"516 351 LINE SMOOTH",
"516 460 OFFCURVE",
"430 544 OFFCURVE",
"314 544 CURVE SMOOTH",
"234 544 OFFCURVE",
"163 503 OFFCURVE",
"137 440 CURVE",
"155 426 LINE",
"155 757 LINE",
"85 757 LINE",
"85 0 LINE"
);
}
);
width = 591;
},
{
layerId = "9398AC28-6BE1-4A79-9C94-3CBC2F226CE7";
paths = (
{
closed = 1;
nodes = (
"210 0 LINE",
"210 324 LINE SMOOTH",
"210 389 OFFCURVE",
"254 431 OFFCURVE",
"316 431 CURVE SMOOTH",
"379 431 OFFCURVE",
"422 388 OFFCURVE",
"422 324 CURVE SMOOTH",
"422 0 LINE",
"572 0 LINE",
"572 356 LINE SMOOTH",
"572 481 OFFCURVE",
"485 566 OFFCURVE",
"359 566 CURVE SMOOTH",
"279 566 OFFCURVE",
"217 534 OFFCURVE",
"191 468 CURVE",
"210 444 LINE",
"210 757 LINE",
"60 757 LINE",
"60 0 LINE"
);
}
);
width = 622;
},
{
layerId = "0E6515C6-4BDD-456A-90F7-F5B263F1D284";
paths = (
{
closed = 1;
nodes = (
"100 0 LINE",
"172 343 LINE SMOOTH",
"190 428 OFFCURVE",
"250 476 OFFCURVE",
"330 476 CURVE SMOOTH",
"425 476 OFFCURVE",
"478 408 OFFCURVE",
"458 312 CURVE SMOOTH",
"392 0 LINE",
"462 0 LINE",
"533 332 LINE SMOOTH",
"559 452 OFFCURVE",
"475 546 OFFCURVE",
"352 546 CURVE SMOOTH",
"281 546 OFFCURVE",
"213 514 OFFCURVE",
"179 460 CURVE",
"193 444 LINE",
"260 757 LINE",
"189 757 LINE",
"29 0 LINE"
);
}
);
width = 594;
},
{
layerId = "FF6420B2-C0A6-48EA-9EF6-B9F37DCCE47B";
paths = (
{
closed = 1;
nodes = (
"155 0 LINE",
"225 336 LINE SMOOTH",
"237 395 OFFCURVE",
"281 434 OFFCURVE",
"338 434 CURVE SMOOTH",
"403 434 OFFCURVE",
"446 388 OFFCURVE",
"431 315 CURVE SMOOTH",
"365 0 LINE",
"515 0 LINE",
"585 332 LINE SMOOTH",
"613 464 OFFCURVE",
"524 564 OFFCURVE",
"394 564 CURVE SMOOTH",
"326 564 OFFCURVE",
"271 538 OFFCURVE",
"236 483 CURVE",
"250 458 LINE",
"312 757 LINE",
"162 757 LINE",
"3 0 LINE"
);
}
);
width = 624;
}
);
leftKerningGroup = h;
rightKerningGroup = n;
rightMetricsKey = "=n";
unicode = 0068;
},
{
glyphname = i;
lastChange = "2020-02-21 16:33:14 +0000";
layers = (
{
layerId = "30C2FD74-1A74-41AC-9C29-B288AE1DBDD7";
paths = (
{
closed = 1;
nodes = (
"145 0 LINE",
"145 534 LINE",
"75 534 LINE",
"75 0 LINE"
);
},
{
closed = 1;
nodes = (
"145 635 LINE",
"145 745 LINE",
"75 745 LINE",
"75 635 LINE"
);
}
);
width = 220;
},
{
layerId = "9398AC28-6BE1-4A79-9C94-3CBC2F226CE7";
paths = (
{
closed = 1;
nodes = (
"210 0 LINE",
"210 554 LINE",
"60 554 LINE",
"60 0 LINE"
);
},
{
closed = 1;
nodes = (
"210 615 LINE",
"210 757 LINE",
"60 757 LINE",
"60 615 LINE"
);
}
);
width = 270;
},
{
layerId = "0E6515C6-4BDD-456A-90F7-F5B263F1D284";
paths = (
{
closed = 1;
nodes = (
"89 0 LINE",
"202 534 LINE",
"132 534 LINE",
"19 0 LINE"
);
},
{
closed = 1;
nodes = (
"224 635 LINE",
"247 745 LINE",
"177 745 LINE",
"154 635 LINE"
);
}
);
width = 221;
},
{
guideLines = (
{
angle = 78.0056;
position = "{210, 269}";
},
{
angle = 78.0056;
position = "{61, 273}";
}
);
layerId = "FF6420B2-C0A6-48EA-9EF6-B9F37DCCE47B";
paths = (
{
closed = 1;
nodes = (
"152 0 LINE",
"269 554 LINE",
"119 554 LINE",
"2 0 LINE"
);
},
{
closed = 1;
nodes = (
"282 615 LINE",
"312 757 LINE",
"162 757 LINE",
"132 615 LINE"
);
}
);
width = 271;
}
);
leftKerningGroup = i;
rightKerningGroup = i;
unicode = 0069;
},
{
glyphname = idotless;
lastChange = "2020-02-21 16:33:14 +0000";
layers = (
{
anchors = (
{
name = bottom;
position = "{130, 0}";
},
{
name = top;
position = "{130, 534}";
}
);
layerId = "30C2FD74-1A74-41AC-9C29-B288AE1DBDD7";
paths = (
{
closed = 1;
nodes = (
"165 0 LINE",
"165 534 LINE",
"95 534 LINE",
"95 0 LINE"
);
}
);
width = 260;
},
{
anchors = (
{
name = bottom;
position = "{73, 0}";
},
{
name = top;
position = "{187, 534}";
}
);
layerId = "0E6515C6-4BDD-456A-90F7-F5B263F1D284";
paths = (
{
closed = 1;
nodes = (
"108 0 LINE",
"222 534 LINE",
"152 534 LINE",
"38 0 LINE"
);
}
);
width = 260;
},
{
anchors = (
{
name = bottom;
position = "{155, 0}";
},
{
name = top;
position = "{155, 554}";
}
);
layerId = "9398AC28-6BE1-4A79-9C94-3CBC2F226CE7";
paths = (
{
closed = 1;
nodes = (
"230 0 LINE",
"230 554 LINE",
"80 554 LINE",
"80 0 LINE"
);
}
);
width = 310;
},
{
anchors = (
{
name = bottom;
position = "{93, 0}";
},
{
name = top;
position = "{209, 546}";
}
);
layerId = "FF6420B2-C0A6-48EA-9EF6-B9F37DCCE47B";
paths = (
{
closed = 1;
nodes = (
"171 0 LINE",
"287 546 LINE",
"137 546 LINE",
"21 0 LINE"
);
}
);
width = 310;
}
);
leftKerningGroup = i;
leftMetricsKey = "=i+20";
rightKerningGroup = i;
rightMetricsKey = "=i+20";
unicode = 0131;
},
{
glyphname = j;
lastChange = "2020-02-21 16:33:14 +0000";
layers = (
{
layerId = "30C2FD74-1A74-41AC-9C29-B288AE1DBDD7";
paths = (
{
closed = 1;
nodes = (
"73 -215 OFFCURVE",
"155 -157 OFFCURVE",
"155 -46 CURVE SMOOTH",
"155 534 LINE",
"85 534 LINE",
"85 -46 LINE SMOOTH",
"85 -114 OFFCURVE",
"39 -151 OFFCURVE",
"-19 -151 CURVE SMOOTH",
"-33 -151 OFFCURVE",
"-53 -150 OFFCURVE",
"-68 -148 CURVE",
"-68 -211 LINE",
"-54 -214 OFFCURVE",
"-29 -215 OFFCURVE",
"-17 -215 CURVE SMOOTH"
);
},
{
closed = 1;
nodes = (
"155 635 LINE",
"155 745 LINE",
"85 745 LINE",
"85 635 LINE"
);
}
);
width = 220;
},
{
layerId = "9398AC28-6BE1-4A79-9C94-3CBC2F226CE7";
paths = (
{
closed = 1;
nodes = (
"152 -225 OFFCURVE",
"240 -152 OFFCURVE",
"240 -22 CURVE SMOOTH",
"240 554 LINE",
"90 554 LINE",
"90 -22 LINE SMOOTH",
"90 -71 OFFCURVE",
"54 -95 OFFCURVE",
"-6 -95 CURVE SMOOTH",
"-19 -95 OFFCURVE",
"-34 -94 OFFCURVE",
"-44 -92 CURVE",
"-44 -220 LINE",
"-32 -223 OFFCURVE",
"-8 -225 OFFCURVE",
"13 -225 CURVE SMOOTH"
);
},
{
closed = 1;
nodes = (
"240 615 LINE",
"240 757 LINE",
"90 757 LINE",
"90 615 LINE"
);
}
);
width = 280;
},
{
layerId = "0E6515C6-4BDD-456A-90F7-F5B263F1D284";
paths = (
{
closed = 1;
nodes = (
"-14 -215 OFFCURVE",
"63 -164 OFFCURVE",
"86 -56 CURVE SMOOTH",
"211 534 LINE",
"141 534 LINE",
"17 -49 LINE SMOOTH",
"2 -118 OFFCURVE",
"-42 -151 OFFCURVE",
"-93 -151 CURVE SMOOTH",
"-124 -151 OFFCURVE",
"-143 -145 OFFCURVE",
"-155 -142 CURVE",
"-168 -205 LINE",
"-151 -211 OFFCURVE",
"-119 -215 OFFCURVE",
"-98 -215 CURVE SMOOTH"
);
},
{
closed = 1;
nodes = (
"232 631 LINE",
"255 741 LINE",
"185 741 LINE",
"162 631 LINE"
);
}
);
width = 220;
},
{
layerId = "FF6420B2-C0A6-48EA-9EF6-B9F37DCCE47B";
paths = (
{
closed = 1;
nodes = (
"52 -225 OFFCURVE",
"139 -161 OFFCURVE",
"165 -33 CURVE SMOOTH",
"286 554 LINE",
"136 554 LINE",
"16 -18 LINE SMOOTH",
"7 -63 OFFCURVE",
"-27 -93 OFFCURVE",
"-72 -93 CURVE SMOOTH",
"-87 -93 OFFCURVE",
"-108 -90 OFFCURVE",
"-121 -85 CURVE",
"-147 -213 LINE",
"-126 -220 OFFCURVE",
"-87 -225 OFFCURVE",
"-56 -225 CURVE SMOOTH"
);
},
{
closed = 1;
nodes = (
"299 615 LINE",
"329 757 LINE",
"179 757 LINE",
"149 615 LINE"
);
}
);
width = 271;
}
);
leftKerningGroup = j;
rightKerningGroup = j;
unicode = 006A;
},
{
glyphname = k;
lastChange = "2020-02-21 18:23:59 +0000";
layers = (
{
layerId = "30C2FD74-1A74-41AC-9C29-B288AE1DBDD7";
paths = (
{
closed = 1;
nodes = (
"155 0 LINE",
"155 159 LINE",
"257 266 LINE",
"425 0 LINE",
"508 0 LINE",
"306 319 LINE",
"508 534 LINE",
"423 534 LINE",
"130 228 LINE",
"155 223 LINE",
"155 757 LINE",
"85 757 LINE",
"85 0 LINE"
);
}
);
width = 533;
},
{
layerId = "9398AC28-6BE1-4A79-9C94-3CBC2F226CE7";
paths = (
{
closed = 1;
nodes = (
"210 0 LINE",
"210 139 LINE",
"290 222 LINE",
"430 0 LINE",
"593 0 LINE",
"388 329 LINE",
"593 554 LINE",
"418 554 LINE",
"164 282 LINE",
"210 274 LINE",
"210 757 LINE",
"60 757 LINE",
"60 0 LINE"
);
}
);
width = 593;
},
{
layerId = "0E6515C6-4BDD-456A-90F7-F5B263F1D284";
paths = (
{
closed = 1;
nodes = (
"99 0 LINE",
"132 159 LINE",
"258 266 LINE",
"369 0 LINE",
"452 0 LINE",
"317 319 LINE",
"565 535 LINE",
"471 535 LINE",
"130 247 LINE",
"149 235 LINE",
"259 757 LINE",
"189 757 LINE",
"29 0 LINE"
);
}
);
width = 534;
},
{
layerId = "FF6420B2-C0A6-48EA-9EF6-B9F37DCCE47B";
paths = (
{
closed = 1;
nodes = (
"151 0 LINE",
"181 139 LINE",
"277 222 LINE",
"366 0 LINE",
"529 0 LINE",
"396 329 LINE",
"645 552 LINE",
"460 552 LINE",
"175 310 LINE",
"214 297 LINE",
"311 753 LINE",
"161 753 LINE",
"1 0 LINE"
);
}
);
width = 588;
}
);
leftKerningGroup = h;
leftMetricsKey = "=h";
rightKerningGroup = k;
unicode = 006B;
},
{
glyphname = l;
lastChange = "2020-02-21 18:23:59 +0000";
layers = (
{
anchors = (
{
name = center;
position = "{120, 379}";
}
);
layerId = "30C2FD74-1A74-41AC-9C29-B288AE1DBDD7";
paths = (
{
closed = 1;
nodes = (
"155 0 LINE",
"155 757 LINE",
"85 757 LINE",
"85 0 LINE"
);
}
);
width = 240;
},
{
anchors = (
{
name = center;
position = "{135, 363}";
}
);
layerId = "9398AC28-6BE1-4A79-9C94-3CBC2F226CE7";
paths = (
{
closed = 1;
nodes = (
"210 0 LINE",
"210 757 LINE",
"60 757 LINE",
"60 0 LINE"
);
}
);
width = 270;
},
{
anchors = (
{
name = center;
position = "{144, 379}";
}
);
layerId = "0E6515C6-4BDD-456A-90F7-F5B263F1D284";
paths = (
{
closed = 1;
nodes = (
"99 0 LINE",
"259 757 LINE",
"189 757 LINE",
"29 0 LINE"
);
}
);
width = 241;
},
{
anchors = (
{
name = center;
position = "{154, 363}";
}
);
layerId = "FF6420B2-C0A6-48EA-9EF6-B9F37DCCE47B";
paths = (
{
closed = 1;
nodes = (
"152 0 LINE",
"311 753 LINE",
"161 753 LINE",
"2 0 LINE"
);
}
);
width = 271;
}
);
leftKerningGroup = l;
leftMetricsKey = "=h";
rightKerningGroup = l;
rightMetricsKey = "=|h";
unicode = 006C;
},
{
glyphname = lslash;
lastChange = "2020-02-22 06:47:33 +0000";
layers = (
{
layerId = "30C2FD74-1A74-41AC-9C29-B288AE1DBDD7";
paths = (
{
closed = 1;
nodes = (
"155 0 LINE",
"155 357 LINE",
"257 394 LINE",
"257 464 LINE",
"155 427 LINE",
"155 757 LINE",
"85 757 LINE",
"85 401 LINE",
"-17 364 LINE",
"-17 294 LINE",
"85 331 LINE",
"85 0 LINE"
);
}
);
width = 240;
},
{
layerId = "0E6515C6-4BDD-456A-90F7-F5B263F1D284";
paths = (
{
closed = 1;
nodes = (
"99 0 LINE",
"174 357 LINE",
"284 394 LINE",
"299 464 LINE",
"189 427 LINE",
"259 757 LINE",
"189 757 LINE",
"114 401 LINE",
"4 364 LINE",
"-11 294 LINE",
"99 331 LINE",
"29 0 LINE"
);
}
);
width = 241;
},
{
layerId = "9398AC28-6BE1-4A79-9C94-3CBC2F226CE7";
paths = (
{
closed = 1;
nodes = (
"210 0 LINE",
"210 321 LINE",
"293 347 LINE",
"293 478 LINE",
"210 452 LINE",
"210 757 LINE",
"60 757 LINE",
"60 404 LINE",
"-24 378 LINE",
"-24 247 LINE",
"60 273 LINE",
"60 0 LINE"
);
}
);
width = 270;
},
{
layerId = "FF6420B2-C0A6-48EA-9EF6-B9F37DCCE47B";
paths = (
{
closed = 1;
nodes = (
"152 0 LINE",
"220 321 LINE",
"309 347 LINE",
"337 478 LINE",
"247 452 LINE",
"311 753 LINE",
"161 753 LINE",
"87 404 LINE",
"-2 378 LINE",
"-30 247 LINE",
"60 273 LINE",
"2 0 LINE"
);
}
);
width = 271;
}
);
leftKerningGroup = l;
rightKerningGroup = l;
unicode = 0142;
},
{
glyphname = m;
lastChange = "2020-02-21 18:23:59 +0000";
layers = (
{
layerId = "30C2FD74-1A74-41AC-9C29-B288AE1DBDD7";
paths = (
{
closed = 1;
nodes = (
"155 0 LINE",
"155 327 LINE SMOOTH",
"155 416 OFFCURVE",
"209 476 OFFCURVE",
"292 476 CURVE SMOOTH",
"376 476 OFFCURVE",
"429 417 OFFCURVE",
"429 327 CURVE SMOOTH",
"429 0 LINE",
"499 0 LINE",
"499 327 LINE SMOOTH",
"499 416 OFFCURVE",
"553 476 OFFCURVE",
"636 476 CURVE SMOOTH",
"720 476 OFFCURVE",
"773 417 OFFCURVE",
"773 327 CURVE SMOOTH",
"773 0 LINE",
"843 0 LINE",
"843 353 LINE SMOOTH",
"843 464 OFFCURVE",
"760 546 OFFCURVE",
"650 546 CURVE SMOOTH",
"577 546 OFFCURVE",
"511 513 OFFCURVE",
"476 448 CURVE",
"444 507 OFFCURVE",
"382 546 OFFCURVE",
"306 546 CURVE SMOOTH",
"238 546 OFFCURVE",
"173 513 OFFCURVE",
"143 453 CURVE",
"155 438 LINE",
"155 534 LINE",
"85 534 LINE",
"85 0 LINE"
);
}
);
width = 918;
},
{
layerId = "9398AC28-6BE1-4A79-9C94-3CBC2F226CE7";
paths = (
{
closed = 1;
nodes = (
"210 0 LINE",
"210 324 LINE SMOOTH",
"210 392 OFFCURVE",
"247 431 OFFCURVE",
"302 431 CURVE SMOOTH",
"357 431 OFFCURVE",
"394 392 OFFCURVE",
"394 324 CURVE SMOOTH",
"394 0 LINE",
"544 0 LINE",
"544 324 LINE SMOOTH",
"544 392 OFFCURVE",
"581 431 OFFCURVE",
"636 431 CURVE SMOOTH",
"691 431 OFFCURVE",
"728 392 OFFCURVE",
"728 324 CURVE SMOOTH",
"728 0 LINE",
"878 0 LINE",
"878 356 LINE SMOOTH",
"878 484 OFFCURVE",
"796 566 OFFCURVE",
"681 566 CURVE SMOOTH",
"609 566 OFFCURVE",
"545 534 OFFCURVE",
"512 480 CURVE",
"476 536 OFFCURVE",
"418 566 OFFCURVE",
"346 566 CURVE SMOOTH",
"262 566 OFFCURVE",
"202 525 OFFCURVE",
"185 441 CURVE",
"200 419 LINE",
"200 554 LINE",
"60 554 LINE",
"60 0 LINE"
);
}
);
width = 928;
},
{
layerId = "0E6515C6-4BDD-456A-90F7-F5B263F1D284";
paths = (
{
closed = 1;
nodes = (
"99 0 LINE",
"171 342 LINE SMOOTH",
"190 431 OFFCURVE",
"244 478 OFFCURVE",
"320 478 CURVE SMOOTH",
"413 478 OFFCURVE",
"460 410 OFFCURVE",
"440 314 CURVE SMOOTH",
"375 0 LINE",
"446 0 LINE",
"515 334 LINE SMOOTH",
"534 426 OFFCURVE",
"593 478 OFFCURVE",
"670 478 CURVE SMOOTH",
"758 478 OFFCURVE",
"808 411 OFFCURVE",
"787 314 CURVE SMOOTH",
"720 0 LINE",
"790 0 LINE",
"861 334 LINE SMOOTH",
"886 451 OFFCURVE",
"803 546 OFFCURVE",
"686 546 CURVE SMOOTH",
"613 546 OFFCURVE",
"548 509 OFFCURVE",
"504 447 CURVE",
"477 508 OFFCURVE",
"417 546 OFFCURVE",
"344 546 CURVE SMOOTH",
"282 546 OFFCURVE",
"221 517 OFFCURVE",
"189 471 CURVE",
"197 454 LINE",
"212 534 LINE",
"142 534 LINE",
"29 0 LINE"
);
}
);
width = 922;
},
{
layerId = "FF6420B2-C0A6-48EA-9EF6-B9F37DCCE47B";
paths = (
{
closed = 1;
nodes = (
"153 0 LINE",
"224 338 LINE SMOOTH",
"237 402 OFFCURVE",
"279 436 OFFCURVE",
"329 436 CURVE SMOOTH",
"389 436 OFFCURVE",
"419 392 OFFCURVE",
"404 320 CURVE SMOOTH",
"337 0 LINE",
"488 0 LINE",
"558 336 LINE SMOOTH",
"572 403 OFFCURVE",
"613 436 OFFCURVE",
"663 436 CURVE SMOOTH",
"718 436 OFFCURVE",
"754 397 OFFCURVE",
"738 320 CURVE SMOOTH",
"671 0 LINE",
"822 0 LINE",
"892 336 LINE SMOOTH",
"921 474 OFFCURVE",
"845 566 OFFCURVE",
"716 566 CURVE SMOOTH",
"644 566 OFFCURVE",
"580 532 OFFCURVE",
"544 479 CURVE",
"519 530 OFFCURVE",
"462 566 OFFCURVE",
"386 566 CURVE SMOOTH",
"313 566 OFFCURVE",
"256 532 OFFCURVE",
"225 459 CURVE",
"235 435 LINE",
"260 554 LINE",
"119 554 LINE",
"2 0 LINE"
);
}
);
width = 931;
}
);
leftKerningGroup = n;
leftMetricsKey = "=n";
rightKerningGroup = n;
rightMetricsKey = "=n";
unicode = 006D;
},
{
glyphname = n;
lastChange = "2020-02-21 18:24:07 +0000";
layers = (
{
anchors = (
{
name = bottom;
position = "{296, 0}";
},
{
name = top;
position = "{314, 534}";
}
);
layerId = "30C2FD74-1A74-41AC-9C29-B288AE1DBDD7";
paths = (
{
closed = 1;
nodes = (
"155 0 LINE",
"155 327 LINE SMOOTH",
"155 417 OFFCURVE",
"214 476 OFFCURVE",
"301 476 CURVE SMOOTH",
"390 476 OFFCURVE",
"446 417 OFFCURVE",
"446 327 CURVE SMOOTH",
"446 0 LINE",
"516 0 LINE",
"516 353 LINE SMOOTH",
"516 462 OFFCURVE",
"430 546 OFFCURVE",
"314 546 CURVE SMOOTH",
"233 546 OFFCURVE",
"163 505 OFFCURVE",
"137 442 CURVE",
"155 429 LINE",
"155 534 LINE",
"85 534 LINE",
"85 0 LINE"
);
}
);
width = 591;
},
{
anchors = (
{
name = bottom;
position = "{311, 0}";
},
{
name = top;
position = "{359, 554}";
}
);
layerId = "9398AC28-6BE1-4A79-9C94-3CBC2F226CE7";
paths = (
{
closed = 1;
nodes = (
"210 0 LINE",
"210 324 LINE SMOOTH",
"210 389 OFFCURVE",
"254 431 OFFCURVE",
"316 431 CURVE SMOOTH",
"379 431 OFFCURVE",
"422 388 OFFCURVE",
"422 324 CURVE SMOOTH",
"422 0 LINE",
"572 0 LINE",
"572 356 LINE SMOOTH",
"572 481 OFFCURVE",
"485 566 OFFCURVE",
"359 566 CURVE SMOOTH",
"279 566 OFFCURVE",
"217 534 OFFCURVE",
"191 468 CURVE",
"200 444 LINE",
"200 554 LINE",
"60 554 LINE",
"60 0 LINE"
);
}
);
width = 622;
},
{
anchors = (
{
name = bottom;
position = "{241, 0}";
},
{
name = top;
position = "{349, 534}";
}
);
layerId = "0E6515C6-4BDD-456A-90F7-F5B263F1D284";
paths = (
{
closed = 1;
nodes = (
"100 0 LINE",
"171 343 LINE SMOOTH",
"189 429 OFFCURVE",
"250 478 OFFCURVE",
"328 478 CURVE SMOOTH",
"423 478 OFFCURVE",
"478 408 OFFCURVE",
"458 313 CURVE SMOOTH",
"392 0 LINE",
"463 0 LINE",
"532 333 LINE SMOOTH",
"555 444 OFFCURVE",
"467 546 OFFCURVE",
"350 546 CURVE SMOOTH",
"286 546 OFFCURVE",
"215 516 OFFCURVE",
"178 461 CURVE",
"194 445 LINE",
"212 534 LINE",
"142 534 LINE",
"29 0 LINE"
);
}
);
width = 595;
},
{
anchors = (
{
name = bottom;
position = "{252, 0}";
},
{
name = top;
position = "{391, 554}";
}
);
layerId = "FF6420B2-C0A6-48EA-9EF6-B9F37DCCE47B";
paths = (
{
closed = 1;
nodes = (
"152 0 LINE",
"223 339 LINE SMOOTH",
"235 397 OFFCURVE",
"281 436 OFFCURVE",
"336 436 CURVE SMOOTH",
"406 436 OFFCURVE",
"442 382 OFFCURVE",
"429 319 CURVE SMOOTH",
"363 0 LINE",
"513 0 LINE",
"583 335 LINE SMOOTH",
"609 459 OFFCURVE",
"526 566 OFFCURVE",
"391 566 CURVE SMOOTH",
"325 566 OFFCURVE",
"269 539 OFFCURVE",
"235 486 CURVE",
"240 461 LINE",
"259 554 LINE",
"119 554 LINE",
"2 0 LINE"
);
}
);
width = 622;
}
);
leftKerningGroup = n;
rightKerningGroup = n;
unicode = 006E;
},
{
glyphname = o;
lastChange = "2020-02-21 18:24:07 +0000";
layers = (
{
anchors = (
{
name = bottom;
position = "{329, 0}";
},
{
name = center;
position = "{329, 267}";
},
{
name = top;
position = "{329, 534}";
}
);
layerId = "30C2FD74-1A74-41AC-9C29-B288AE1DBDD7";
paths = (
{
closed = 1;
nodes = (
"483 -12 OFFCURVE",
"603 106 OFFCURVE",
"603 268 CURVE SMOOTH",
"603 430 OFFCURVE",
"484 546 OFFCURVE",
"329 546 CURVE SMOOTH",
"174 546 OFFCURVE",
"55 430 OFFCURVE",
"55 268 CURVE SMOOTH",
"55 106 OFFCURVE",
"175 -12 OFFCURVE",
"329 -12 CURVE SMOOTH"
);
},
{
closed = 1;
nodes = (
"218 58 OFFCURVE",
"130 148 OFFCURVE",
"130 267 CURVE SMOOTH",
"130 386 OFFCURVE",
"218 476 OFFCURVE",
"329 476 CURVE SMOOTH",
"440 476 OFFCURVE",
"528 386 OFFCURVE",
"528 267 CURVE SMOOTH",
"528 148 OFFCURVE",
"440 58 OFFCURVE",
"329 58 CURVE SMOOTH"
);
}
);
width = 658;
},
{
anchors = (
{
name = bottom;
position = "{328, 0}";
},
{
name = center;
position = "{328, 277}";
},
{
name = top;
position = "{328, 554}";
}
);
layerId = "9398AC28-6BE1-4A79-9C94-3CBC2F226CE7";
paths = (
{
closed = 1;
nodes = (
"493 -12 OFFCURVE",
"626 110 OFFCURVE",
"626 277 CURVE SMOOTH",
"626 444 OFFCURVE",
"493 566 OFFCURVE",
"328 566 CURVE SMOOTH",
"163 566 OFFCURVE",
"30 444 OFFCURVE",
"30 277 CURVE SMOOTH",
"30 110 OFFCURVE",
"163 -12 OFFCURVE",
"328 -12 CURVE SMOOTH"
);
},
{
closed = 1;
nodes = (
"243 123 OFFCURVE",
"185 187 OFFCURVE",
"185 277 CURVE SMOOTH",
"185 366 OFFCURVE",
"243 431 OFFCURVE",
"328 431 CURVE SMOOTH",
"413 431 OFFCURVE",
"471 366 OFFCURVE",
"471 277 CURVE SMOOTH",
"471 187 OFFCURVE",
"413 123 OFFCURVE",
"328 123 CURVE SMOOTH"
);
}
);
width = 656;
},
{
anchors = (
{
name = bottom;
position = "{274, 0}";
},
{
name = center;
position = "{331, 267}";
},
{
name = top;
position = "{388, 534}";
}
);
layerId = "0E6515C6-4BDD-456A-90F7-F5B263F1D284";
paths = (
{
closed = 1;
nodes = (
"471 -12 OFFCURVE",
"607 129 OFFCURVE",
"607 301 CURVE SMOOTH",
"607 445 OFFCURVE",
"504 546 OFFCURVE",
"359 546 CURVE SMOOTH",
"190 546 OFFCURVE",
"55 407 OFFCURVE",
"55 235 CURVE SMOOTH",
"55 89 OFFCURVE",
"159 -12 OFFCURVE",
"302 -12 CURVE SMOOTH"
);
},
{
closed = 1;
nodes = (
"207 58 OFFCURVE",
"130 136 OFFCURVE",
"130 243 CURVE SMOOTH",
"130 370 OFFCURVE",
"232 476 OFFCURVE",
"352 476 CURVE SMOOTH",
"455 476 OFFCURVE",
"531 398 OFFCURVE",
"531 292 CURVE SMOOTH",
"531 164 OFFCURVE",
"430 58 OFFCURVE",
"310 58 CURVE SMOOTH"
);
}
);
width = 662;
},
{
anchors = (
{
name = bottom;
position = "{271, 0}";
},
{
name = center;
position = "{330, 277}";
},
{
name = top;
position = "{389, 554}";
}
);
layerId = "FF6420B2-C0A6-48EA-9EF6-B9F37DCCE47B";
paths = (
{
closed = 1;
nodes = (
"485 -12 OFFCURVE",
"630 136 OFFCURVE",
"630 307 CURVE SMOOTH",
"630 460 OFFCURVE",
"515 566 OFFCURVE",
"357 566 CURVE SMOOTH",
"171 566 OFFCURVE",
"31 420 OFFCURVE",
"31 249 CURVE SMOOTH",
"31 92 OFFCURVE",
"148 -12 OFFCURVE",
"301 -12 CURVE SMOOTH"
);
},
{
closed = 1;
nodes = (
"237 123 OFFCURVE",
"186 178 OFFCURVE",
"186 259 CURVE SMOOTH",
"186 355 OFFCURVE",
"256 431 OFFCURVE",
"346 431 CURVE SMOOTH",
"424 431 OFFCURVE",
"475 375 OFFCURVE",
"475 297 CURVE SMOOTH",
"475 198 OFFCURVE",
"405 123 OFFCURVE",
"315 123 CURVE SMOOTH"
);
}
);
width = 660;
}
);
leftKerningGroup = o;
rightKerningGroup = o;
unicode = 006F;
},
{
glyphname = oe;
lastChange = "2020-02-21 16:33:14 +0000";
layers = (
{
layerId = "30C2FD74-1A74-41AC-9C29-B288AE1DBDD7";
paths = (
{
closed = 1;
nodes = (
"440 -12 OFFCURVE",
"533 48 OFFCURVE",
"576 143 CURVE",
"554 143 LINE",
"597 48 OFFCURVE",
"686 -12 OFFCURVE",
"794 -12 CURVE SMOOTH",
"902 -12 OFFCURVE",
"991 46 OFFCURVE",
"1026 122 CURVE",
"962 157 LINE",
"932 98 OFFCURVE",
"878 53 OFFCURVE",
"794 53 CURVE SMOOTH",
"694 53 OFFCURVE",
"604 129 OFFCURVE",
"602 245 CURVE",
"1031 245 LINE",
"1034 262 OFFCURVE",
"1035 280 OFFCURVE",
"1035 292 CURVE SMOOTH",
"1035 425 OFFCURVE",
"942 546 OFFCURVE",
"788 546 CURVE SMOOTH",
"680 546 OFFCURVE",
"594 486 OFFCURVE",
"553 394 CURVE",
"575 395 LINE",
"533 486 OFFCURVE",
"441 546 OFFCURVE",
"329 546 CURVE SMOOTH",
"174 546 OFFCURVE",
"55 429 OFFCURVE",
"55 268 CURVE SMOOTH",
"55 106 OFFCURVE",
"174 -12 OFFCURVE",
"329 -12 CURVE SMOOTH"
);
},
{
closed = 1;
nodes = (
"219 58 OFFCURVE",
"130 147 OFFCURVE",
"130 267 CURVE SMOOTH",
"130 387 OFFCURVE",
"219 476 OFFCURVE",
"329 476 CURVE SMOOTH",
"439 476 OFFCURVE",
"528 386 OFFCURVE",
"528 267 CURVE SMOOTH",
"528 148 OFFCURVE",
"440 58 OFFCURVE",
"329 58 CURVE SMOOTH"
);
},
{
closed = 1;
nodes = (
"615 407 OFFCURVE",
"694 481 OFFCURVE",
"784 481 CURVE SMOOTH",
"876 481 OFFCURVE",
"956 405 OFFCURVE",
"956 310 CURVE",
"604 310 LINE"
);
}
);
width = 1080;
},
{
layerId = "0E6515C6-4BDD-456A-90F7-F5B263F1D284";
paths = (
{
closed = 1;
nodes = (
"416 -12 OFFCURVE",
"516 52 OFFCURVE",
"567 148 CURVE",
"547 150 LINE",
"577 50 OFFCURVE",
"665 -12 OFFCURVE",
"779 -12 CURVE SMOOTH",
"877 -12 OFFCURVE",
"959 36 OFFCURVE",
"1001 96 CURVE",
"944 140 LINE",
"909 93 OFFCURVE",
"855 53 OFFCURVE",
"780 53 CURVE SMOOTH",
"673 53 OFFCURVE",
"593 132 OFFCURVE",
"606 246 CURVE",
"1043 246 LINE",
"1049 266 OFFCURVE",
"1054 290 OFFCURVE",
"1054 323 CURVE SMOOTH",
"1054 443 OFFCURVE",
"974 546 OFFCURVE",
"823 546 CURVE SMOOTH",
"716 546 OFFCURVE",
"623 480 OFFCURVE",
"573 387 CURVE",
"593 386 LINE",
"562 482 OFFCURVE",
"474 546 OFFCURVE",
"359 546 CURVE SMOOTH",
"190 546 OFFCURVE",
"55 407 OFFCURVE",
"55 235 CURVE SMOOTH",
"55 89 OFFCURVE",
"159 -12 OFFCURVE",
"302 -12 CURVE SMOOTH"
);
},
{
closed = 1;
nodes = (
"207 58 OFFCURVE",
"130 136 OFFCURVE",
"130 243 CURVE SMOOTH",
"130 370 OFFCURVE",
"232 476 OFFCURVE",
"352 476 CURVE SMOOTH",
"455 476 OFFCURVE",
"531 398 OFFCURVE",
"531 292 CURVE SMOOTH",
"531 164 OFFCURVE",
"430 58 OFFCURVE",
"310 58 CURVE SMOOTH"
);
},
{
closed = 1;
nodes = (
"647 406 OFFCURVE",
"720 481 OFFCURVE",
"823 481 CURVE SMOOTH",
"909 481 OFFCURVE",
"986 411 OFFCURVE",
"976 312 CURVE",
"619 312 LINE"
);
}
);
width = 1093;
},
{
layerId = "9398AC28-6BE1-4A79-9C94-3CBC2F226CE7";
paths = (
{
closed = 1;
nodes = (
"431 -12 OFFCURVE",
"523 36 OFFCURVE",
"575 113 CURVE",
"522 112 LINE",
"571 37 OFFCURVE",
"658 -12 OFFCURVE",
"766 -12 CURVE SMOOTH",
"881 -12 OFFCURVE",
"973 42 OFFCURVE",
"1007 123 CURVE",
"887 180 LINE",
"865 142 OFFCURVE",
"823 118 OFFCURVE",
"768 118 CURVE SMOOTH",
"693 118 OFFCURVE",
"639 162 OFFCURVE",
"630 235 CURVE",
"1026 235 LINE",
"1031 250 OFFCURVE",
"1033 272 OFFCURVE",
"1033 293 CURVE SMOOTH",
"1033 446 OFFCURVE",
"913 566 OFFCURVE",
"756 566 CURVE SMOOTH",
"656 566 OFFCURVE",
"571 518 OFFCURVE",
"519 441 CURVE",
"574 443 LINE",
"522 518 OFFCURVE",
"431 566 OFFCURVE",
"328 566 CURVE SMOOTH",
"163 566 OFFCURVE",
"30 444 OFFCURVE",
"30 277 CURVE SMOOTH",
"30 110 OFFCURVE",
"163 -12 OFFCURVE",
"328 -12 CURVE SMOOTH"
);
},
{
closed = 1;
nodes = (
"243 123 OFFCURVE",
"185 187 OFFCURVE",
"185 277 CURVE SMOOTH",
"185 366 OFFCURVE",
"243 431 OFFCURVE",
"328 431 CURVE SMOOTH",
"413 431 OFFCURVE",
"471 366 OFFCURVE",
"471 277 CURVE SMOOTH",
"471 187 OFFCURVE",
"413 123 OFFCURVE",
"328 123 CURVE SMOOTH"
);
},
{
closed = 1;
nodes = (
"648 410 OFFCURVE",
"694 446 OFFCURVE",
"756 446 CURVE SMOOTH",
"820 446 OFFCURVE",
"868 405 OFFCURVE",
"874 345 CURVE",
"634 345 LINE"
);
}
);
width = 1053;
},
{
layerId = "FF6420B2-C0A6-48EA-9EF6-B9F37DCCE47B";
paths = (
{
closed = 1;
nodes = (
"409 -12 OFFCURVE",
"503 39 OFFCURVE",
"563 115 CURVE",
"509 120 LINE",
"555 34 OFFCURVE",
"647 -12 OFFCURVE",
"750 -12 CURVE SMOOTH",
"844 -12 OFFCURVE",
"932 27 OFFCURVE",
"977 96 CURVE",
"871 168 LINE",
"844 136 OFFCURVE",
"808 119 OFFCURVE",
"760 119 CURVE SMOOTH",
"684 119 OFFCURVE",
"629 161 OFFCURVE",
"629 235 CURVE",
"1029 235 LINE",
"1038 254 OFFCURVE",
"1044 296 OFFCURVE",
"1044 326 CURVE SMOOTH",
"1044 461 OFFCURVE",
"941 566 OFFCURVE",
"786 566 CURVE SMOOTH",
"680 566 OFFCURVE",
"596 515 OFFCURVE",
"542 444 CURVE",
"595 442 LINE",
"549 518 OFFCURVE",
"463 566 OFFCURVE",
"357 566 CURVE SMOOTH",
"171 566 OFFCURVE",
"31 420 OFFCURVE",
"31 249 CURVE SMOOTH",
"31 92 OFFCURVE",
"148 -12 OFFCURVE",
"301 -12 CURVE SMOOTH"
);
},
{
closed = 1;
nodes = (
"237 123 OFFCURVE",
"186 178 OFFCURVE",
"186 259 CURVE SMOOTH",
"186 355 OFFCURVE",
"256 431 OFFCURVE",
"346 431 CURVE SMOOTH",
"424 431 OFFCURVE",
"475 375 OFFCURVE",
"475 297 CURVE SMOOTH",
"475 198 OFFCURVE",
"405 123 OFFCURVE",
"315 123 CURVE SMOOTH"
);
},
{
closed = 1;
nodes = (
"665 408 OFFCURVE",
"715 446 OFFCURVE",
"781 446 CURVE SMOOTH",
"845 446 OFFCURVE",
"889 405 OFFCURVE",
"890 345 CURVE",
"642 345 LINE"
);
}
);
width = 1060;
}
);
leftKerningGroup = o;
leftMetricsKey = "=o";
rightKerningGroup = e;
rightMetricsKey = "=e";
unicode = 0153;
},
{
glyphname = p;
lastChange = "2020-02-21 18:23:59 +0000";
layers = (
{
layerId = "30C2FD74-1A74-41AC-9C29-B288AE1DBDD7";
paths = (
{
closed = 1;
nodes = (
"155 -200 LINE",
"155 111 LINE",
"147 97 LINE",
"184 30 OFFCURVE",
"263 -12 OFFCURVE",
"355 -12 CURVE SMOOTH",
"507 -12 OFFCURVE",
"628 105 OFFCURVE",
"628 268 CURVE SMOOTH",
"628 431 OFFCURVE",
"507 546 OFFCURVE",
"357 546 CURVE SMOOTH",
"263 546 OFFCURVE",
"182 501 OFFCURVE",
"148 432 CURVE",
"155 418 LINE",
"155 534 LINE",
"85 534 LINE",
"85 -200 LINE"
);
},
{
closed = 1;
nodes = (
"240 58 OFFCURVE",
"155 147 OFFCURVE",
"155 267 CURVE SMOOTH",
"155 387 OFFCURVE",
"241 476 OFFCURVE",
"355 476 CURVE SMOOTH",
"468 476 OFFCURVE",
"553 387 OFFCURVE",
"553 267 CURVE SMOOTH",
"553 147 OFFCURVE",
"469 58 OFFCURVE",
"355 58 CURVE SMOOTH"
);
}
);
width = 683;
},
{
layerId = "9398AC28-6BE1-4A79-9C94-3CBC2F226CE7";
paths = (
{
closed = 1;
nodes = (
"210 -200 LINE",
"210 103 LINE",
"186 72 LINE",
"222 21 OFFCURVE",
"289 -12 OFFCURVE",
"372 -12 CURVE SMOOTH",
"533 -12 OFFCURVE",
"656 116 OFFCURVE",
"656 277 CURVE SMOOTH",
"656 439 OFFCURVE",
"531 566 OFFCURVE",
"373 566 CURVE SMOOTH",
"291 566 OFFCURVE",
"224 534 OFFCURVE",
"187 478 CURVE",
"200 448 LINE",
"200 554 LINE",
"60 554 LINE",
"60 -200 LINE"
);
},
{
closed = 1;
nodes = (
"270 123 OFFCURVE",
"210 187 OFFCURVE",
"210 277 CURVE SMOOTH",
"210 367 OFFCURVE",
"270 431 OFFCURVE",
"354 431 CURVE SMOOTH",
"439 431 OFFCURVE",
"501 366 OFFCURVE",
"501 277 CURVE SMOOTH",
"501 188 OFFCURVE",
"439 123 OFFCURVE",
"354 123 CURVE SMOOTH"
);
}
);
width = 686;
},
{
layerId = "0E6515C6-4BDD-456A-90F7-F5B263F1D284";
paths = (
{
closed = 1;
nodes = (
"58 -200 LINE",
"127 132 LINE",
"116 119 LINE",
"142 42 OFFCURVE",
"228 -12 OFFCURVE",
"329 -12 CURVE SMOOTH",
"492 -12 OFFCURVE",
"632 134 OFFCURVE",
"632 304 CURVE SMOOTH",
"632 447 OFFCURVE",
"530 546 OFFCURVE",
"385 546 CURVE SMOOTH",
"302 546 OFFCURVE",
"232 512 OFFCURVE",
"188 452 CURVE",
"192 438 LINE",
"211 534 LINE",
"142 534 LINE",
"-13 -200 LINE"
);
},
{
closed = 1;
nodes = (
"231 59 OFFCURVE",
"155 132 OFFCURVE",
"155 237 CURVE SMOOTH",
"155 368 OFFCURVE",
"254 475 OFFCURVE",
"377 475 CURVE SMOOTH",
"484 475 OFFCURVE",
"557 403 OFFCURVE",
"557 297 CURVE SMOOTH",
"557 165 OFFCURVE",
"458 59 OFFCURVE",
"335 59 CURVE SMOOTH"
);
}
);
width = 686;
},
{
layerId = "FF6420B2-C0A6-48EA-9EF6-B9F37DCCE47B";
paths = (
{
closed = 1;
nodes = (
"110 -203 LINE",
"179 120 LINE",
"149 92 LINE",
"176 30 OFFCURVE",
"251 -12 OFFCURVE",
"343 -12 CURVE SMOOTH",
"517 -12 OFFCURVE",
"657 141 OFFCURVE",
"657 310 CURVE SMOOTH",
"657 458 OFFCURVE",
"550 566 OFFCURVE",
"403 566 CURVE SMOOTH",
"338 566 OFFCURVE",
"280 545 OFFCURVE",
"235 495 CURVE",
"240 464 LINE",
"259 554 LINE",
"119 554 LINE",
"-40 -203 LINE"
);
},
{
closed = 1;
nodes = (
"263 126 OFFCURVE",
"210 179 OFFCURVE",
"210 260 CURVE SMOOTH",
"210 350 OFFCURVE",
"275 434 OFFCURVE",
"372 434 CURVE SMOOTH",
"450 434 OFFCURVE",
"502 380 OFFCURVE",
"502 299 CURVE SMOOTH",
"502 205 OFFCURVE",
"433 126 OFFCURVE",
"339 126 CURVE SMOOTH"
);
}
);
width = 687;
}
);
leftKerningGroup = n;
rightKerningGroup = o;
rightMetricsKey = "=o";
unicode = 0070;
},
{
glyphname = thorn;
lastChange = "2020-02-21 16:33:14 +0000";
layers = (
{
layerId = "30C2FD74-1A74-41AC-9C29-B288AE1DBDD7";
paths = (
{
closed = 1;
nodes = (
"134 -200 LINE",
"134 111 LINE",
"126 97 LINE",
"163 30 OFFCURVE",
"242 -12 OFFCURVE",
"334 -12 CURVE SMOOTH",
"486 -12 OFFCURVE",
"607 105 OFFCURVE",
"607 268 CURVE SMOOTH",
"607 431 OFFCURVE",
"486 546 OFFCURVE",
"336 546 CURVE SMOOTH",
"242 546 OFFCURVE",
"161 501 OFFCURVE",
"127 432 CURVE",
"134 418 LINE",
"134 745 LINE",
"64 745 LINE",
"64 -200 LINE"
);
},
{
closed = 1;
nodes = (
"219 58 OFFCURVE",
"134 147 OFFCURVE",
"134 267 CURVE SMOOTH",
"134 387 OFFCURVE",
"220 476 OFFCURVE",
"334 476 CURVE SMOOTH",
"447 476 OFFCURVE",
"532 387 OFFCURVE",
"532 267 CURVE SMOOTH",
"532 147 OFFCURVE",
"448 58 OFFCURVE",
"334 58 CURVE SMOOTH"
);
}
);
width = 643;
},
{
layerId = "0E6515C6-4BDD-456A-90F7-F5B263F1D284";
paths = (
{
closed = 1;
nodes = (
"36 -200 LINE",
"105 132 LINE",
"94 119 LINE",
"120 42 OFFCURVE",
"206 -12 OFFCURVE",
"307 -12 CURVE SMOOTH",
"470 -12 OFFCURVE",
"610 134 OFFCURVE",
"610 304 CURVE SMOOTH",
"610 447 OFFCURVE",
"508 546 OFFCURVE",
"363 546 CURVE SMOOTH",
"280 546 OFFCURVE",
"210 512 OFFCURVE",
"166 452 CURVE",
"170 438 LINE",
"237 757 LINE",
"168 757 LINE",
"-35 -200 LINE"
);
},
{
closed = 1;
nodes = (
"209 59 OFFCURVE",
"133 132 OFFCURVE",
"133 237 CURVE SMOOTH",
"133 368 OFFCURVE",
"232 475 OFFCURVE",
"355 475 CURVE SMOOTH",
"462 475 OFFCURVE",
"535 403 OFFCURVE",
"535 297 CURVE SMOOTH",
"535 165 OFFCURVE",
"436 59 OFFCURVE",
"313 59 CURVE SMOOTH"
);
}
);
width = 645;
},
{
layerId = "9398AC28-6BE1-4A79-9C94-3CBC2F226CE7";
paths = (
{
closed = 1;
nodes = (
"194 -200 LINE",
"194 103 LINE",
"170 72 LINE",
"206 21 OFFCURVE",
"273 -12 OFFCURVE",
"356 -12 CURVE SMOOTH",
"517 -12 OFFCURVE",
"640 116 OFFCURVE",
"640 277 CURVE SMOOTH",
"640 439 OFFCURVE",
"515 566 OFFCURVE",
"357 566 CURVE SMOOTH",
"275 566 OFFCURVE",
"208 534 OFFCURVE",
"171 478 CURVE",
"194 448 LINE",
"194 745 LINE",
"44 745 LINE",
"44 -200 LINE"
);
},
{
closed = 1;
nodes = (
"254 123 OFFCURVE",
"194 187 OFFCURVE",
"194 277 CURVE SMOOTH",
"194 367 OFFCURVE",
"254 431 OFFCURVE",
"338 431 CURVE SMOOTH",
"423 431 OFFCURVE",
"485 366 OFFCURVE",
"485 277 CURVE SMOOTH",
"485 188 OFFCURVE",
"423 123 OFFCURVE",
"338 123 CURVE SMOOTH"
);
}
);
width = 656;
},
{
layerId = "FF6420B2-C0A6-48EA-9EF6-B9F37DCCE47B";
paths = (
{
closed = 1;
nodes = (
"95 -200 LINE",
"163 118 LINE",
"133 90 LINE",
"159 28 OFFCURVE",
"233 -12 OFFCURVE",
"322 -12 CURVE SMOOTH",
"492 -12 OFFCURVE",
"631 138 OFFCURVE",
"631 306 CURVE SMOOTH",
"631 456 OFFCURVE",
"522 558 OFFCURVE",
"381 558 CURVE SMOOTH",
"314 558 OFFCURVE",
"259 535 OFFCURVE",
"218 490 CURVE",
"224 459 LINE",
"284 745 LINE",
"143 745 LINE",
"-55 -200 LINE"
);
},
{
closed = 1;
nodes = (
"244 126 OFFCURVE",
"194 177 OFFCURVE",
"194 256 CURVE SMOOTH",
"194 348 OFFCURVE",
"258 426 OFFCURVE",
"350 426 CURVE SMOOTH",
"425 426 OFFCURVE",
"476 375 OFFCURVE",
"476 294 CURVE SMOOTH",
"476 200 OFFCURVE",
"406 126 OFFCURVE",
"318 126 CURVE SMOOTH"
);
}
);
width = 648;
}
);
leftKerningGroup = l;
rightKerningGroup = p;
unicode = 00FE;
},
{
glyphname = q;
lastChange = "2020-02-21 18:23:59 +0000";
layers = (
{
layerId = "30C2FD74-1A74-41AC-9C29-B288AE1DBDD7";
paths = (
{
closed = 1;
nodes = (
"598 -200 LINE",
"598 534 LINE",
"528 534 LINE",
"528 418 LINE",
"535 432 LINE",
"501 501 OFFCURVE",
"420 546 OFFCURVE",
"326 546 CURVE SMOOTH",
"176 546 OFFCURVE",
"55 431 OFFCURVE",
"55 268 CURVE SMOOTH",
"55 105 OFFCURVE",
"176 -12 OFFCURVE",
"328 -12 CURVE SMOOTH",
"419 -12 OFFCURVE",
"499 30 OFFCURVE",
"536 97 CURVE",
"528 111 LINE",
"528 -200 LINE"
);
},
{
closed = 1;
nodes = (
"214 58 OFFCURVE",
"130 147 OFFCURVE",
"130 267 CURVE SMOOTH",
"130 387 OFFCURVE",
"215 476 OFFCURVE",
"328 476 CURVE SMOOTH",
"442 476 OFFCURVE",
"528 387 OFFCURVE",
"528 267 CURVE SMOOTH",
"528 147 OFFCURVE",
"443 58 OFFCURVE",
"328 58 CURVE SMOOTH"
);
}
);
width = 683;
},
{
layerId = "9398AC28-6BE1-4A79-9C94-3CBC2F226CE7";
paths = (
{
closed = 1;
nodes = (
"626 -203 LINE",
"626 554 LINE",
"486 554 LINE",
"486 448 LINE",
"499 478 LINE",
"462 534 OFFCURVE",
"395 566 OFFCURVE",
"313 566 CURVE SMOOTH",
"155 566 OFFCURVE",
"30 439 OFFCURVE",
"30 277 CURVE SMOOTH",
"30 116 OFFCURVE",
"153 -12 OFFCURVE",
"314 -12 CURVE SMOOTH",
"397 -12 OFFCURVE",
"464 21 OFFCURVE",
"500 72 CURVE",
"476 103 LINE",
"476 -203 LINE"
);
},
{
closed = 1;
nodes = (
"247 123 OFFCURVE",
"185 188 OFFCURVE",
"185 277 CURVE SMOOTH",
"185 366 OFFCURVE",
"247 431 OFFCURVE",
"332 431 CURVE SMOOTH",
"416 431 OFFCURVE",
"476 367 OFFCURVE",
"476 277 CURVE SMOOTH",
"476 187 OFFCURVE",
"416 123 OFFCURVE",
"332 123 CURVE SMOOTH"
);
}
);
width = 686;
},
{
layerId = "0E6515C6-4BDD-456A-90F7-F5B263F1D284";
paths = (
{
closed = 1;
nodes = (
"502 -200 LINE",
"658 534 LINE",
"587 534 LINE",
"557 397 LINE",
"567 410 LINE",
"548 488 OFFCURVE",
"459 546 OFFCURVE",
"357 546 CURVE SMOOTH",
"188 546 OFFCURVE",
"54 397 OFFCURVE",
"54 230 CURVE SMOOTH",
"54 89 OFFCURVE",
"158 -12 OFFCURVE",
"302 -12 CURVE SMOOTH",
"381 -12 OFFCURVE",
"455 21 OFFCURVE",
"498 76 CURVE",
"493 90 LINE",
"432 -200 LINE"
);
},
{
closed = 1;
nodes = (
"202 58 OFFCURVE",
"128 132 OFFCURVE",
"128 236 CURVE SMOOTH",
"128 366 OFFCURVE",
"222 475 OFFCURVE",
"351 475 CURVE SMOOTH",
"456 475 OFFCURVE",
"531 401 OFFCURVE",
"531 295 CURVE SMOOTH",
"531 165 OFFCURVE",
"430 58 OFFCURVE",
"307 58 CURVE SMOOTH"
);
}
);
width = 686;
},
{
layerId = "FF6420B2-C0A6-48EA-9EF6-B9F37DCCE47B";
paths = (
{
closed = 1;
nodes = (
"525 -203 LINE",
"686 554 LINE",
"536 554 LINE",
"507 429 LINE",
"537 458 LINE",
"510 523 OFFCURVE",
"440 566 OFFCURVE",
"345 566 CURVE SMOOTH",
"157 566 OFFCURVE",
"29 396 OFFCURVE",
"29 240 CURVE SMOOTH",
"29 98 OFFCURVE",
"133 -12 OFFCURVE",
"284 -12 CURVE SMOOTH",
"349 -12 OFFCURVE",
"410 9 OFFCURVE",
"453 52 CURVE",
"436 85 LINE",
"374 -203 LINE"
);
},
{
closed = 1;
nodes = (
"236 121 OFFCURVE",
"184 177 OFFCURVE",
"184 257 CURVE SMOOTH",
"184 349 OFFCURVE",
"253 429 OFFCURVE",
"347 429 CURVE SMOOTH",
"423 429 OFFCURVE",
"475 374 OFFCURVE",
"475 293 CURVE SMOOTH",
"475 201 OFFCURVE",
"408 121 OFFCURVE",
"314 121 CURVE SMOOTH"
);
}
);
width = 687;
}
);
leftKerningGroup = o;
leftMetricsKey = "=o";
rightKerningGroup = u;
rightMetricsKey = "=|n";
unicode = 0071;
},
{
glyphname = r;
lastChange = "2020-02-21 18:23:59 +0000";
layers = (
{
layerId = "30C2FD74-1A74-41AC-9C29-B288AE1DBDD7";
paths = (
{
closed = 1;
nodes = (
"155 0 LINE",
"155 327 LINE SMOOTH",
"155 418 OFFCURVE",
"210 470 OFFCURVE",
"293 470 CURVE SMOOTH",
"347 470 LINE",
"347 540 LINE",
"306 540 LINE SMOOTH",
"230 540 OFFCURVE",
"173 509 OFFCURVE",
"146 459 CURVE",
"154 447 LINE",
"154 534 LINE",
"85 534 LINE",
"85 0 LINE"
);
}
);
width = 392;
},
{
layerId = "9398AC28-6BE1-4A79-9C94-3CBC2F226CE7";
paths = (
{
closed = 1;
nodes = (
"210 0 LINE",
"210 299 LINE SMOOTH",
"210 382 OFFCURVE",
"264 430 OFFCURVE",
"343 430 CURVE SMOOTH",
"417 430 LINE",
"417 560 LINE",
"358 560 LINE SMOOTH",
"278 560 OFFCURVE",
"216 534 OFFCURVE",
"190 441 CURVE",
"200 422 LINE",
"200 554 LINE",
"60 554 LINE",
"60 0 LINE"
);
}
);
width = 437;
},
{
layerId = "0E6515C6-4BDD-456A-90F7-F5B263F1D284";
paths = (
{
closed = 1;
nodes = (
"99 0 LINE",
"168 327 LINE SMOOTH",
"187 418 OFFCURVE",
"258 470 OFFCURVE",
"336 470 CURVE SMOOTH",
"391 470 LINE",
"406 540 LINE",
"365 540 LINE SMOOTH",
"295 540 OFFCURVE",
"229 513 OFFCURVE",
"188 459 CURVE",
"194 448 LINE",
"212 534 LINE",
"142 534 LINE",
"29 0 LINE"
);
}
);
width = 393;
},
{
layerId = "FF6420B2-C0A6-48EA-9EF6-B9F37DCCE47B";
paths = (
{
closed = 1;
nodes = (
"153 0 LINE",
"219 315 LINE SMOOTH",
"236 398 OFFCURVE",
"290 433 OFFCURVE",
"364 433 CURVE SMOOTH",
"447 433 LINE",
"473 560 LINE",
"416 560 LINE SMOOTH",
"354 560 OFFCURVE",
"279 560 OFFCURVE",
"230 459 CURVE",
"235 439 LINE",
"259 554 LINE",
"119 554 LINE",
"2 0 LINE"
);
}
);
width = 434;
}
);
leftKerningGroup = n;
leftMetricsKey = "=n";
rightKerningGroup = r;
unicode = 0072;
},
{
glyphname = s;
lastChange = "2020-02-21 18:23:59 +0000";
layers = (
{
anchors = (
{
name = bottom;
position = "{252, 0}";
},
{
name = top;
position = "{252, 534}";
}
);
layerId = "30C2FD74-1A74-41AC-9C29-B288AE1DBDD7";
paths = (
{
closed = 1;
nodes = (
"381 -12 OFFCURVE",
"459 51 OFFCURVE",
"459 141 CURVE SMOOTH",
"459 213 OFFCURVE",
"409 264 OFFCURVE",
"321 290 CURVE SMOOTH",
"230 317 LINE SMOOTH",
"174 334 OFFCURVE",
"146 361 OFFCURVE",
"146 399 CURVE SMOOTH",
"146 445 OFFCURVE",
"189 477 OFFCURVE",
"252 477 CURVE SMOOTH",
"318 477 OFFCURVE",
"370 442 OFFCURVE",
"394 382 CURVE",
"458 412 LINE",
"427 495 OFFCURVE",
"349 546 OFFCURVE",
"252 546 CURVE SMOOTH",
"143 546 OFFCURVE",
"71 485 OFFCURVE",
"71 394 CURVE SMOOTH",
"71 322 OFFCURVE",
"117 272 OFFCURVE",
"207 247 CURVE SMOOTH",
"294 223 LINE SMOOTH",
"354 206 OFFCURVE",
"384 183 OFFCURVE",
"384 143 CURVE SMOOTH",
"384 94 OFFCURVE",
"336 58 OFFCURVE",
"268 58 CURVE SMOOTH",
"198 58 OFFCURVE",
"137 94 OFFCURVE",
"109 164 CURVE",
"45 132 LINE",
"81 40 OFFCURVE",
"168 -12 OFFCURVE",
"268 -12 CURVE SMOOTH"
);
}
);
width = 504;
},
{
anchors = (
{
name = bottom;
position = "{273, 0}";
},
{
name = top;
position = "{273, 554}";
}
);
layerId = "9398AC28-6BE1-4A79-9C94-3CBC2F226CE7";
paths = (
{
closed = 1;
nodes = (
"422 -12 OFFCURVE",
"515 58 OFFCURVE",
"515 160 CURVE SMOOTH",
"515 237 OFFCURVE",
"463 296 OFFCURVE",
"362 322 CURVE SMOOTH",
"258 349 LINE SMOOTH",
"240 354 OFFCURVE",
"198 364 OFFCURVE",
"198 399 CURVE SMOOTH",
"198 428 OFFCURVE",
"227 446 OFFCURVE",
"273 446 CURVE SMOOTH",
"334 446 OFFCURVE",
"383 417 OFFCURVE",
"402 369 CURVE",
"515 421 LINE",
"479 511 OFFCURVE",
"388 566 OFFCURVE",
"273 566 CURVE SMOOTH",
"142 566 OFFCURVE",
"53 496 OFFCURVE",
"53 394 CURVE SMOOTH",
"53 318 OFFCURVE",
"102 259 OFFCURVE",
"204 233 CURVE SMOOTH",
"303 208 LINE SMOOTH",
"325 202 OFFCURVE",
"370 191 OFFCURVE",
"370 154 CURVE SMOOTH",
"370 123 OFFCURVE",
"337 103 OFFCURVE",
"288 103 CURVE SMOOTH",
"223 103 OFFCURVE",
"172 137 OFFCURVE",
"142 199 CURVE",
"30 147 LINE",
"67 43 OFFCURVE",
"170 -12 OFFCURVE",
"288 -12 CURVE SMOOTH"
);
}
);
width = 545;
},
{
anchors = (
{
name = bottom;
position = "{196, 0}";
},
{
name = top;
position = "{309, 534}";
}
);
layerId = "0E6515C6-4BDD-456A-90F7-F5B263F1D284";
paths = (
{
closed = 1;
nodes = (
"357 -12 OFFCURVE",
"433 62 OFFCURVE",
"433 151 CURVE SMOOTH",
"433 206 OFFCURVE",
"398 252 OFFCURVE",
"326 283 CURVE SMOOTH",
"242 319 LINE SMOOTH",
"198 338 OFFCURVE",
"174 364 OFFCURVE",
"174 393 CURVE SMOOTH",
"174 443 OFFCURVE",
"217 477 OFFCURVE",
"277 477 CURVE SMOOTH",
"348 477 OFFCURVE",
"404 439 OFFCURVE",
"417 367 CURVE",
"485 390 LINE",
"472 483 OFFCURVE",
"393 546 OFFCURVE",
"281 546 CURVE SMOOTH",
"169 546 OFFCURVE",
"99 473 OFFCURVE",
"99 390 CURVE SMOOTH",
"99 333 OFFCURVE",
"130 282 OFFCURVE",
"205 252 CURVE SMOOTH",
"285 220 LINE SMOOTH",
"332 201 OFFCURVE",
"359 172 OFFCURVE",
"359 144 CURVE SMOOTH",
"359 116 OFFCURVE",
"330 58 OFFCURVE",
"244 58 CURVE SMOOTH",
"162 58 OFFCURVE",
"103 104 OFFCURVE",
"91 180 CURVE",
"21 154 LINE",
"40 49 OFFCURVE",
"127 -12 OFFCURVE",
"240 -12 CURVE SMOOTH"
);
}
);
width = 506;
},
{
anchors = (
{
name = bottom;
position = "{214, 0}";
},
{
name = top;
position = "{331, 554}";
}
);
layerId = "FF6420B2-C0A6-48EA-9EF6-B9F37DCCE47B";
paths = (
{
closed = 1;
nodes = (
"426 -12 OFFCURVE",
"489 96 OFFCURVE",
"489 171 CURVE SMOOTH",
"489 233 OFFCURVE",
"445 284 OFFCURVE",
"369 313 CURVE SMOOTH",
"273 350 LINE SMOOTH",
"241 362 OFFCURVE",
"225 380 OFFCURVE",
"225 400 CURVE SMOOTH",
"225 427 OFFCURVE",
"247 446 OFFCURVE",
"285 446 CURVE SMOOTH",
"358 446 OFFCURVE",
"409 404 OFFCURVE",
"418 356 CURVE",
"540 396 LINE",
"519 516 OFFCURVE",
"406 566 OFFCURVE",
"293 566 CURVE SMOOTH",
"137 566 OFFCURVE",
"77 471 OFFCURVE",
"77 395 CURVE SMOOTH",
"77 331 OFFCURVE",
"118 270 OFFCURVE",
"196 240 CURVE SMOOTH",
"288 205 LINE SMOOTH",
"309 197 OFFCURVE",
"342 182 OFFCURVE",
"342 152 CURVE SMOOTH",
"342 123 OFFCURVE",
"313 103 OFFCURVE",
"266 103 CURVE SMOOTH",
"200 103 OFFCURVE",
"147 141 OFFCURVE",
"129 212 CURVE",
"8 172 LINE",
"26 40 OFFCURVE",
"153 -12 OFFCURVE",
"265 -12 CURVE SMOOTH"
);
}
);
width = 545;
}
);
leftKerningGroup = s;
rightKerningGroup = s;
unicode = 0073;
},
{
glyphname = germandbls;
lastChange = "2020-02-21 16:33:14 +0000";
layers = (
{
layerId = "30C2FD74-1A74-41AC-9C29-B288AE1DBDD7";
paths = (
{
closed = 1;
nodes = (
"175 -160 LINE",
"175 538 LINE SMOOTH",
"175 620 OFFCURVE",
"231 675 OFFCURVE",
"315 675 CURVE SMOOTH",
"396 675 OFFCURVE",
"450 626 OFFCURVE",
"450 553 CURVE SMOOTH",
"450 479 OFFCURVE",
"396 430 OFFCURVE",
"314 430 CURVE SMOOTH",
"249 430 LINE",
"249 360 LINE",
"320 360 LINE SMOOTH",
"417 360 OFFCURVE",
"481 302 OFFCURVE",
"481 215 CURVE SMOOTH",
"481 128 OFFCURVE",
"417 70 OFFCURVE",
"320 70 CURVE SMOOTH",
"249 70 LINE",
"249 0 LINE",
"321 0 LINE SMOOTH",
"467 0 OFFCURVE",
"565 86 OFFCURVE",
"565 215 CURVE SMOOTH",
"565 291 OFFCURVE",
"518 366 OFFCURVE",
"447 401 CURVE",
"499 432 OFFCURVE",
"534 495 OFFCURVE",
"534 558 CURVE SMOOTH",
"534 670 OFFCURVE",
"446 745 OFFCURVE",
"315 745 CURVE SMOOTH",
"183 745 OFFCURVE",
"95 662 OFFCURVE",
"95 538 CURVE SMOOTH",
"95 -160 LINE"
);
}
);
width = 620;
},
{
layerId = "0E6515C6-4BDD-456A-90F7-F5B263F1D284";
paths = (
{
closed = 1;
nodes = (
"88 -160 LINE",
"235 542 LINE SMOOTH",
"253 625 OFFCURVE",
"311 675 OFFCURVE",
"390 675 CURVE SMOOTH",
"462 675 OFFCURVE",
"507 634 OFFCURVE",
"507 568 CURVE SMOOTH",
"507 488 OFFCURVE",
"440 431 OFFCURVE",
"348 431 CURVE SMOOTH",
"285 431 LINE",
"268 361 LINE",
"339 361 LINE SMOOTH",
"415 361 OFFCURVE",
"466 311 OFFCURVE",
"466 236 CURVE SMOOTH",
"466 142 OFFCURVE",
"387 72 OFFCURVE",
"279 72 CURVE SMOOTH",
"210 72 LINE",
"192 0 LINE",
"264 0 LINE SMOOTH",
"435 0 OFFCURVE",
"550 95 OFFCURVE",
"550 237 CURVE SMOOTH",
"550 302 OFFCURVE",
"525 350 OFFCURVE",
"471 388 CURVE",
"542 420 OFFCURVE",
"592 499 OFFCURVE",
"592 579 CURVE SMOOTH",
"592 679 OFFCURVE",
"512 746 OFFCURVE",
"394 746 CURVE SMOOTH",
"270 746 OFFCURVE",
"181 673 OFFCURVE",
"156 552 CURVE SMOOTH",
"7 -160 LINE"
);
}
);
width = 617;
},
{
layerId = "9398AC28-6BE1-4A79-9C94-3CBC2F226CE7";
paths = (
{
closed = 1;
nodes = (
"225 -160 LINE",
"225 500 LINE SMOOTH",
"225 569 OFFCURVE",
"270 615 OFFCURVE",
"341 615 CURVE SMOOTH",
"398 615 OFFCURVE",
"437 585 OFFCURVE",
"437 540 CURVE SMOOTH",
"437 495 OFFCURVE",
"406 465 OFFCURVE",
"358 465 CURVE SMOOTH",
"305 465 LINE",
"305 330 LINE",
"365 330 LINE SMOOTH",
"427 330 OFFCURVE",
"468 291 OFFCURVE",
"468 232 CURVE SMOOTH",
"468 174 OFFCURVE",
"427 135 OFFCURVE",
"365 135 CURVE SMOOTH",
"305 135 LINE",
"305 0 LINE",
"347 0 LINE SMOOTH",
"520 0 OFFCURVE",
"623 85 OFFCURVE",
"623 232 CURVE SMOOTH",
"623 297 OFFCURVE",
"605 357 OFFCURVE",
"539 402 CURVE",
"576 438 OFFCURVE",
"592 481 OFFCURVE",
"592 527 CURVE SMOOTH",
"592 658 OFFCURVE",
"493 745 OFFCURVE",
"341 745 CURVE SMOOTH",
"179 745 OFFCURVE",
"70 647 OFFCURVE",
"70 500 CURVE SMOOTH",
"70 -160 LINE"
);
}
);
width = 663;
},
{
layerId = "FF6420B2-C0A6-48EA-9EF6-B9F37DCCE47B";
paths = (
{
closed = 1;
nodes = (
"135 -160 LINE",
"276 512 LINE SMOOTH",
"289 575 OFFCURVE",
"334 615 OFFCURVE",
"399 615 CURVE SMOOTH",
"454 615 OFFCURVE",
"494 590 OFFCURVE",
"494 545 CURVE SMOOTH",
"494 501 OFFCURVE",
"457 463 OFFCURVE",
"399 463 CURVE SMOOTH",
"347 463 LINE",
"319 328 LINE",
"378 328 LINE SMOOTH",
"430 328 OFFCURVE",
"461 295 OFFCURVE",
"461 244 CURVE SMOOTH",
"461 178 OFFCURVE",
"409 134 OFFCURVE",
"337 134 CURVE SMOOTH",
"278 134 LINE",
"250 0 LINE",
"291 0 LINE SMOOTH",
"482 0 OFFCURVE",
"617 89 OFFCURVE",
"617 258 CURVE SMOOTH",
"617 312 OFFCURVE",
"603 345 OFFCURVE",
"564 381 CURVE",
"620 422 OFFCURVE",
"648 486 OFFCURVE",
"648 550 CURVE SMOOTH",
"648 676 OFFCURVE",
"535 745 OFFCURVE",
"402 745 CURVE SMOOTH",
"256 745 OFFCURVE",
"151 662 OFFCURVE",
"123 528 CURVE SMOOTH",
"-21 -160 LINE"
);
}
);
width = 668;
}
);
leftKerningGroup = I;
leftMetricsKey = "=I";
rightKerningGroup = B;
rightMetricsKey = "=B";
unicode = 00DF;
},
{
glyphname = t;
lastChange = "2020-02-21 18:23:59 +0000";
layers = (
{
anchors = (
{
name = bottom;
position = "{324, 0}";
}
);
layerId = "30C2FD74-1A74-41AC-9C29-B288AE1DBDD7";
paths = (
{
closed = 1;
nodes = (
"322 -6 OFFCURVE",
"341 -5 OFFCURVE",
"358 -1 CURVE",
"358 57 LINE",
"348 55 OFFCURVE",
"329 54 OFFCURVE",
"318 54 CURVE SMOOTH",
"214 54 OFFCURVE",
"215 126 OFFCURVE",
"215 154 CURVE SMOOTH",
"215 462 LINE",
"349 462 LINE",
"349 532 LINE",
"215 532 LINE",
"215 710 LINE",
"145 710 LINE",
"145 610 LINE SMOOTH",
"145 565 OFFCURVE",
"115 532 OFFCURVE",
"70 532 CURVE SMOOTH",
"35 532 LINE",
"35 462 LINE",
"145 462 LINE",
"145 154 LINE SMOOTH",
"145 52 OFFCURVE",
"203 -6 OFFCURVE",
"308 -6 CURVE SMOOTH"
);
}
);
width = 413;
},
{
anchors = (
{
name = bottom;
position = "{294, -2}";
}
);
layerId = "9398AC28-6BE1-4A79-9C94-3CBC2F226CE7";
paths = (
{
closed = 1;
nodes = (
"357 -6 OFFCURVE",
"383 -4 OFFCURVE",
"404 -1 CURVE",
"404 117 LINE",
"390 115 OFFCURVE",
"375 114 OFFCURVE",
"367 114 CURVE SMOOTH",
"292 114 OFFCURVE",
"269 148 OFFCURVE",
"269 198 CURVE SMOOTH",
"269 422 LINE",
"403 422 LINE",
"403 552 LINE",
"269 552 LINE",
"269 710 LINE",
"119 710 LINE",
"119 637 LINE SMOOTH",
"119 581 OFFCURVE",
"87 552 OFFCURVE",
"30 552 CURVE SMOOTH",
"20 552 LINE",
"20 422 LINE",
"119 422 LINE",
"119 198 LINE SMOOTH",
"119 70 OFFCURVE",
"197 -6 OFFCURVE",
"333 -6 CURVE SMOOTH"
);
}
);
width = 434;
},
{
anchors = (
{
name = bottom;
position = "{268, 0}";
}
);
layerId = "0E6515C6-4BDD-456A-90F7-F5B263F1D284";
paths = (
{
closed = 1;
nodes = (
"266 -6 OFFCURVE",
"282 -5 OFFCURVE",
"301 -1 CURVE",
"314 57 LINE",
"302 55 OFFCURVE",
"285 54 OFFCURVE",
"272 54 CURVE SMOOTH",
"190 54 OFFCURVE",
"177 95 OFFCURVE",
"190 154 CURVE SMOOTH",
"257 465 LINE",
"391 465 LINE",
"405 535 LINE",
"272 535 LINE",
"309 710 LINE",
"239 710 LINE",
"217 610 LINE SMOOTH",
"207 564 OFFCURVE",
"171 535 OFFCURVE",
"127 535 CURVE SMOOTH",
"92 535 LINE",
"77 465 LINE",
"187 465 LINE",
"120 154 LINE SMOOTH",
"100 62 OFFCURVE",
"144 -6 OFFCURVE",
"249 -6 CURVE SMOOTH"
);
}
);
width = 414;
},
{
anchors = (
{
name = bottom;
position = "{227, -2}";
}
);
layerId = "FF6420B2-C0A6-48EA-9EF6-B9F37DCCE47B";
paths = (
{
closed = 1;
nodes = (
"297 -6 OFFCURVE",
"324 -4 OFFCURVE",
"345 -1 CURVE",
"369 117 LINE",
"355 115 OFFCURVE",
"339 114 OFFCURVE",
"332 114 CURVE SMOOTH",
"262 114 OFFCURVE",
"239 144 OFFCURVE",
"251 198 CURVE SMOOTH",
"301 422 LINE",
"435 422 LINE",
"462 552 LINE",
"328 552 LINE",
"363 710 LINE",
"213 710 LINE",
"195 637 LINE SMOOTH",
"181 580 OFFCURVE",
"145 552 OFFCURVE",
"88 552 CURVE SMOOTH",
"78 552 LINE",
"51 422 LINE",
"151 422 LINE",
"102 198 LINE SMOOTH",
"77 82 OFFCURVE",
"136 -6 OFFCURVE",
"272 -6 CURVE SMOOTH"
);
}
);
width = 434;
}
);
leftKerningGroup = t;
rightKerningGroup = t;
unicode = 0074;
},
{
glyphname = u;
lastChange = "2020-02-21 18:23:59 +0000";
layers = (
{
anchors = (
{
name = bottom;
position = "{296, 0}";
},
{
name = top;
position = "{296, 534}";
}
);
layerId = "30C2FD74-1A74-41AC-9C29-B288AE1DBDD7";
paths = (
{
closed = 1;
nodes = (
"361 -12 OFFCURVE",
"429 31 OFFCURVE",
"454 92 CURVE",
"436 106 LINE",
"436 0 LINE",
"506 0 LINE",
"506 534 LINE",
"436 534 LINE",
"436 208 LINE SMOOTH",
"436 117 OFFCURVE",
"377 58 OFFCURVE",
"291 58 CURVE SMOOTH",
"203 58 OFFCURVE",
"145 116 OFFCURVE",
"145 208 CURVE SMOOTH",
"145 534 LINE",
"75 534 LINE",
"75 191 LINE SMOOTH",
"75 82 OFFCURVE",
"162 -12 OFFCURVE",
"277 -12 CURVE SMOOTH"
);
}
);
width = 591;
},
{
anchors = (
{
name = bottom;
position = "{311, 0}";
},
{
name = top;
position = "{311, 554}";
}
);
layerId = "9398AC28-6BE1-4A79-9C94-3CBC2F226CE7";
paths = (
{
closed = 1;
nodes = (
"342 -12 OFFCURVE",
"405 20 OFFCURVE",
"431 85 CURVE",
"422 110 LINE",
"422 0 LINE",
"562 0 LINE",
"562 554 LINE",
"412 554 LINE",
"412 230 LINE SMOOTH",
"412 165 OFFCURVE",
"368 123 OFFCURVE",
"306 123 CURVE SMOOTH",
"244 123 OFFCURVE",
"200 165 OFFCURVE",
"200 230 CURVE SMOOTH",
"200 554 LINE",
"50 554 LINE",
"50 217 LINE SMOOTH",
"50 82 OFFCURVE",
"138 -12 OFFCURVE",
"266 -12 CURVE SMOOTH"
);
}
);
width = 622;
},
{
anchors = (
{
name = bottom;
position = "{243, 0}";
},
{
name = top;
position = "{355, 534}";
}
);
layerId = "0E6515C6-4BDD-456A-90F7-F5B263F1D284";
paths = (
{
closed = 1;
nodes = (
"315 -12 OFFCURVE",
"383 21 OFFCURVE",
"417 73 CURVE",
"403 89 LINE",
"383 0 LINE",
"455 0 LINE",
"565 534 LINE",
"495 534 LINE",
"424 191 LINE SMOOTH",
"406 106 OFFCURVE",
"347 56 OFFCURVE",
"268 56 CURVE SMOOTH",
"174 56 OFFCURVE",
"117 124 OFFCURVE",
"137 221 CURVE SMOOTH",
"202 534 LINE",
"132 534 LINE",
"65 212 LINE SMOOTH",
"40 90 OFFCURVE",
"128 -12 OFFCURVE",
"248 -12 CURVE SMOOTH"
);
}
);
width = 597;
},
{
anchors = (
{
name = bottom;
position = "{254, 0}";
},
{
name = top;
position = "{371, 554}";
}
);
layerId = "FF6420B2-C0A6-48EA-9EF6-B9F37DCCE47B";
paths = (
{
closed = 1;
nodes = (
"298 -12 OFFCURVE",
"353 15 OFFCURVE",
"387 68 CURVE",
"383 93 LINE",
"363 0 LINE",
"504 0 LINE",
"621 554 LINE",
"470 554 LINE",
"399 215 LINE SMOOTH",
"386 155 OFFCURVE",
"339 118 OFFCURVE",
"286 118 CURVE SMOOTH",
"217 118 OFFCURVE",
"180 171 OFFCURVE",
"193 235 CURVE SMOOTH",
"259 554 LINE",
"109 554 LINE",
"43 239 LINE SMOOTH",
"16 108 OFFCURVE",
"89 -12 OFFCURVE",
"230 -12 CURVE SMOOTH"
);
}
);
width = 623;
}
);
leftKerningGroup = u;
leftMetricsKey = "=|n";
rightKerningGroup = u;
rightMetricsKey = "=|n";
unicode = 0075;
},
{
glyphname = v;
lastChange = "2020-02-21 16:33:14 +0000";
layers = (
{
layerId = "30C2FD74-1A74-41AC-9C29-B288AE1DBDD7";
paths = (
{
closed = 1;
nodes = (
"319 0 LINE",
"537 534 LINE",
"456 534 LINE",
"272 62 LINE",
"300 62 LINE",
"116 534 LINE",
"35 534 LINE",
"252 0 LINE"
);
}
);
width = 572;
},
{
layerId = "9398AC28-6BE1-4A79-9C94-3CBC2F226CE7";
paths = (
{
closed = 1;
nodes = (
"360 0 LINE",
"580 554 LINE",
"425 554 LINE",
"271 133 LINE",
"319 133 LINE",
"165 554 LINE",
"10 554 LINE",
"230 0 LINE"
);
}
);
width = 590;
},
{
layerId = "0E6515C6-4BDD-456A-90F7-F5B263F1D284";
paths = (
{
closed = 1;
nodes = (
"278 0 LINE",
"588 534 LINE",
"510 534 LINE",
"242 67 LINE",
"266 67 LINE",
"162 534 LINE",
"92 534 LINE",
"216 0 LINE"
);
}
);
width = 566;
},
{
layerId = "FF6420B2-C0A6-48EA-9EF6-B9F37DCCE47B";
paths = (
{
closed = 1;
nodes = (
"323 0 LINE",
"639 554 LINE",
"479 554 LINE",
"251 133 LINE",
"303 133 LINE",
"224 554 LINE",
"69 554 LINE",
"193 0 LINE"
);
}
);
width = 590;
}
);
leftKerningGroup = v;
rightKerningGroup = v;
unicode = 0076;
},
{
glyphname = w;
lastChange = "2020-02-21 16:33:14 +0000";
layers = (
{
anchors = (
{
name = bottom;
position = "{423, 0}";
},
{
name = top;
position = "{423, 501}";
}
);
layerId = "30C2FD74-1A74-41AC-9C29-B288AE1DBDD7";
paths = (
{
closed = 1;
nodes = (
"291 0 LINE",
"432 460 LINE",
"415 460 LINE",
"556 0 LINE",
"624 0 LINE",
"812 534 LINE",
"730 534 LINE",
"575 61 LINE",
"604 61 LINE",
"461 534 LINE",
"386 534 LINE",
"243 61 LINE",
"271 61 LINE",
"117 534 LINE",
"35 534 LINE",
"222 0 LINE"
);
}
);
width = 847;
},
{
anchors = (
{
name = bottom;
position = "{462, 0}";
},
{
name = top;
position = "{462, 530}";
}
);
layerId = "9398AC28-6BE1-4A79-9C94-3CBC2F226CE7";
paths = (
{
closed = 1;
nodes = (
"334 0 LINE",
"486 439 LINE",
"439 439 LINE",
"589 0 LINE",
"722 0 LINE",
"913 554 LINE",
"757 554 LINE",
"632 152 LINE",
"676 153 LINE",
"545 554 LINE",
"378 554 LINE",
"247 153 LINE",
"291 152 LINE",
"165 554 LINE",
"10 554 LINE",
"201 0 LINE"
);
}
);
width = 923;
},
{
anchors = (
{
name = bottom;
position = "{384, 0}";
},
{
name = top;
position = "{471, 499}";
}
);
layerId = "0E6515C6-4BDD-456A-90F7-F5B263F1D284";
paths = (
{
closed = 1;
nodes = (
"250 0 LINE",
"473 462 LINE",
"457 462 LINE",
"518 0 LINE",
"582 0 LINE",
"862 534 LINE",
"784 534 LINE",
"546 67 LINE",
"570 67 LINE",
"508 534 LINE",
"439 534 LINE",
"213 67 LINE",
"240 67 LINE",
"166 534 LINE",
"92 534 LINE",
"186 0 LINE"
);
}
);
width = 840;
},
{
anchors = (
{
name = bottom;
position = "{425, 0}";
},
{
name = top;
position = "{518, 530}";
}
);
layerId = "FF6420B2-C0A6-48EA-9EF6-B9F37DCCE47B";
paths = (
{
closed = 1;
nodes = (
"296 0 LINE",
"526 439 LINE",
"479 439 LINE",
"551 0 LINE",
"683 0 LINE",
"972 554 LINE",
"811 554 LINE",
"615 152 LINE",
"664 153 LINE",
"604 554 LINE",
"432 554 LINE",
"232 153 LINE",
"279 152 LINE",
"224 554 LINE",
"69 554 LINE",
"164 0 LINE"
);
}
);
width = 923;
}
);
leftKerningGroup = w;
rightKerningGroup = w;
unicode = 0077;
},
{
glyphname = x;
lastChange = "2020-02-21 16:33:14 +0000";
layers = (
{
layerId = "30C2FD74-1A74-41AC-9C29-B288AE1DBDD7";
paths = (
{
closed = 1;
nodes = (
"124 0 LINE",
"298 242 LINE",
"254 242 LINE",
"427 0 LINE",
"511 0 LINE",
"318 267 LINE",
"511 534 LINE",
"427 534 LINE",
"254 292 LINE",
"298 292 LINE",
"124 534 LINE",
"40 534 LINE",
"233 267 LINE",
"40 0 LINE"
);
}
);
width = 551;
},
{
layerId = "9398AC28-6BE1-4A79-9C94-3CBC2F226CE7";
paths = (
{
closed = 1;
nodes = (
"191 0 LINE",
"339 216 LINE",
"265 216 LINE",
"413 0 LINE",
"587 0 LINE",
"390 278 LINE",
"589 554 LINE",
"415 554 LINE",
"264 338 LINE",
"340 338 LINE",
"189 554 LINE",
"15 554 LINE",
"214 278 LINE",
"16 0 LINE"
);
}
);
width = 604;
},
{
layerId = "0E6515C6-4BDD-456A-90F7-F5B263F1D284";
paths = (
{
closed = 1;
nodes = (
"85 0 LINE",
"303 239 LINE",
"256 239 LINE",
"390 0 LINE",
"467 0 LINE",
"320 266 LINE",
"560 534 LINE",
"479 534 LINE",
"262 294 LINE",
"309 294 LINE",
"174 534 LINE",
"97 534 LINE",
"244 266 LINE",
"4 0 LINE"
);
}
);
width = 564;
},
{
layerId = "FF6420B2-C0A6-48EA-9EF6-B9F37DCCE47B";
paths = (
{
closed = 1;
nodes = (
"154 0 LINE",
"338 216 LINE",
"263 216 LINE",
"373 0 LINE",
"546 0 LINE",
"399 278 LINE",
"645 554 LINE",
"471 554 LINE",
"284 338 LINE",
"360 338 LINE",
"248 554 LINE",
"74 554 LINE",
"224 278 LINE",
"-21 0 LINE"
);
}
);
width = 620;
}
);
unicode = 0078;
},
{
glyphname = y;
lastChange = "2020-02-21 16:33:14 +0000";
layers = (
{
anchors = (
{
name = bottom;
position = "{296, 0}";
},
{
name = top;
position = "{296, 534}";
}
);
layerId = "30C2FD74-1A74-41AC-9C29-B288AE1DBDD7";
paths = (
{
closed = 1;
nodes = (
"241 -215 LINE",
"556 534 LINE",
"473 534 LINE",
"284 74 LINE",
"307 74 LINE",
"118 534 LINE",
"35 534 LINE",
"253 5 LINE",
"161 -215 LINE"
);
}
);
width = 591;
},
{
anchors = (
{
name = bottom;
position = "{305, 0}";
},
{
name = top;
position = "{305, 554}";
}
);
layerId = "9398AC28-6BE1-4A79-9C94-3CBC2F226CE7";
paths = (
{
closed = 1;
nodes = (
"292 -225 LINE",
"600 554 LINE",
"440 554 LINE",
"280 125 LINE",
"330 125 LINE",
"170 554 LINE",
"10 554 LINE",
"230 0 LINE",
"140 -225 LINE"
);
}
);
width = 610;
},
{
anchors = (
{
name = bottom;
position = "{237, 0}";
},
{
name = top;
position = "{325, 534}";
}
);
layerId = "0E6515C6-4BDD-456A-90F7-F5B263F1D284";
paths = (
{
closed = 1;
nodes = (
"156 -220 LINE",
"608 534 LINE",
"528 534 LINE",
"254 70 LINE",
"274 70 LINE",
"169 534 LINE",
"92 534 LINE",
"214 8 LINE",
"74 -220 LINE"
);
}
);
width = 586;
},
{
anchors = (
{
name = bottom;
position = "{246, 0}";
},
{
name = top;
position = "{364, 554}";
}
);
layerId = "FF6420B2-C0A6-48EA-9EF6-B9F37DCCE47B";
paths = (
{
closed = 1;
nodes = (
"213 -226 LINE",
"659 554 LINE",
"494 554 LINE",
"259 125 LINE",
"312 125 LINE",
"229 554 LINE",
"69 554 LINE",
"190 0 LINE",
"66 -226 LINE"
);
}
);
width = 610;
}
);
leftKerningGroup = y;
rightKerningGroup = v;
unicode = 0079;
},
{
glyphname = z;
lastChange = "2020-02-21 16:33:14 +0000";
layers = (
{
anchors = (
{
name = bottom;
position = "{231, 0}";
},
{
name = center;
position = "{231, 267}";
},
{
name = top;
position = "{231, 534}";
}
);
layerId = "30C2FD74-1A74-41AC-9C29-B288AE1DBDD7";
paths = (
{
closed = 1;
nodes = (
"436 0 LINE",
"436 70 LINE",
"119 70 LINE",
"435 474 LINE",
"435 534 LINE",
"42 534 LINE",
"42 464 LINE",
"341 464 LINE",
"25 60 LINE",
"25 0 LINE"
);
}
);
width = 461;
},
{
anchors = (
{
name = bottom;
position = "{270, 0}";
},
{
name = center;
position = "{270, 277}";
},
{
name = top;
position = "{270, 554}";
}
);
layerId = "9398AC28-6BE1-4A79-9C94-3CBC2F226CE7";
paths = (
{
closed = 1;
nodes = (
"509 0 LINE",
"509 130 LINE",
"233 130 LINE",
"508 434 LINE",
"508 554 LINE",
"41 554 LINE",
"41 424 LINE",
"312 424 LINE",
"30 120 LINE",
"30 0 LINE"
);
}
);
width = 539;
},
{
anchors = (
{
name = bottom;
position = "{174, 0}";
},
{
name = center;
position = "{231, 267}";
},
{
name = top;
position = "{287, 534}";
}
);
layerId = "0E6515C6-4BDD-456A-90F7-F5B263F1D284";
paths = (
{
closed = 1;
nodes = (
"376 0 LINE",
"394 70 LINE",
"82 70 LINE",
"464 474 LINE",
"475 534 LINE",
"88 534 LINE",
"70 464 LINE",
"363 464 LINE",
"-19 60 LINE",
"-29 0 LINE"
);
}
);
width = 461;
},
{
anchors = (
{
name = bottom;
position = "{210, 0}";
},
{
name = center;
position = "{269, 277}";
},
{
name = top;
position = "{327, 554}";
}
);
layerId = "FF6420B2-C0A6-48EA-9EF6-B9F37DCCE47B";
paths = (
{
closed = 1;
nodes = (
"447 0 LINE",
"475 130 LINE",
"202 130 LINE",
"538 434 LINE",
"563 554 LINE",
"99 554 LINE",
"72 424 LINE",
"339 424 LINE",
"-3 120 LINE",
"-28 0 LINE"
);
}
);
width = 536;
}
);
leftKerningGroup = z;
rightKerningGroup = z;
unicode = 007A;
},
{
glyphname = ordfeminine;
lastChange = "2020-02-21 16:33:19 +0000";
layers = (
{
layerId = "30C2FD74-1A74-41AC-9C29-B288AE1DBDD7";
paths = (
{
closed = 1;
nodes = (
"242 359 OFFCURVE",
"291 388 OFFCURVE",
"315 435 CURVE",
"304 440 LINE",
"304 367 LINE",
"367 367 LINE",
"367 621 LINE SMOOTH",
"367 698 OFFCURVE",
"307 752 OFFCURVE",
"221 752 CURVE SMOOTH",
"153 752 OFFCURVE",
"92 715 OFFCURVE",
"69 660 CURVE",
"127 630 LINE",
"142 667 OFFCURVE",
"178 691 OFFCURVE",
"221 691 CURVE SMOOTH",
"269 691 OFFCURVE",
"302 663 OFFCURVE",
"302 621 CURVE SMOOTH",
"302 527 LINE SMOOTH",
"302 463 OFFCURVE",
"255 416 OFFCURVE",
"193 416 CURVE SMOOTH",
"150 416 OFFCURVE",
"124 437 OFFCURVE",
"124 471 CURVE SMOOTH",
"124 501 OFFCURVE",
"149 524 OFFCURVE",
"189 533 CURVE SMOOTH",
"312 561 LINE",
"312 613 LINE",
"174 582 LINE SMOOTH",
"98 565 OFFCURVE",
"55 527 OFFCURVE",
"55 472 CURVE SMOOTH",
"55 405 OFFCURVE",
"109 359 OFFCURVE",
"188 359 CURVE SMOOTH"
);
}
);
width = 432;
},
{
layerId = "0E6515C6-4BDD-456A-90F7-F5B263F1D284";
paths = (
{
closed = 1;
nodes = (
"272 359 OFFCURVE",
"318 378 OFFCURVE",
"349 421 CURVE",
"340 428 LINE",
"327 367 LINE",
"390 367 LINE",
"440 602 LINE SMOOTH",
"458 688 OFFCURVE",
"399 752 OFFCURVE",
"304 752 CURVE SMOOTH",
"242 752 OFFCURVE",
"185 722 OFFCURVE",
"155 676 CURVE",
"206 640 LINE",
"227 672 OFFCURVE",
"261 691 OFFCURVE",
"299 691 CURVE SMOOTH",
"349 691 OFFCURVE",
"387 659 OFFCURVE",
"376 608 CURVE SMOOTH",
"356 515 LINE SMOOTH",
"344 459 OFFCURVE",
"298 415 OFFCURVE",
"238 415 CURVE SMOOTH",
"194 415 OFFCURVE",
"168 434 OFFCURVE",
"168 465 CURVE SMOOTH",
"168 504 OFFCURVE",
"202 527 OFFCURVE",
"246 532 CURVE SMOOTH",
"373 547 LINE",
"384 599 LINE",
"242 582 LINE SMOOTH",
"136 569 OFFCURVE",
"99 516 OFFCURVE",
"99 461 CURVE SMOOTH",
"99 396 OFFCURVE",
"157 359 OFFCURVE",
"224 359 CURVE SMOOTH"
);
}
);
width = 434;
},
{
layerId = "9398AC28-6BE1-4A79-9C94-3CBC2F226CE7";
paths = (
{
closed = 1;
nodes = (
"226 359 OFFCURVE",
"265 379 OFFCURVE",
"299 432 CURVE",
"273 426 LINE",
"273 367 LINE",
"375 367 LINE",
"375 614 LINE SMOOTH",
"375 696 OFFCURVE",
"309 752 OFFCURVE",
"212 752 CURVE SMOOTH",
"131 752 OFFCURVE",
"66 712 OFFCURVE",
"44 648 CURVE",
"138 603 LINE",
"148 637 OFFCURVE",
"178 657 OFFCURVE",
"212 657 CURVE SMOOTH",
"244 657 OFFCURVE",
"265 640 OFFCURVE",
"265 614 CURVE SMOOTH",
"265 508 LINE SMOOTH",
"265 470 OFFCURVE",
"231 438 OFFCURVE",
"188 438 CURVE SMOOTH",
"160 438 OFFCURVE",
"144 451 OFFCURVE",
"144 471 CURVE SMOOTH",
"144 490 OFFCURVE",
"156 499 OFFCURVE",
"169 502 CURVE SMOOTH",
"277 526 LINE",
"277 604 LINE",
"150 578 LINE SMOOTH",
"70 562 OFFCURVE",
"30 524 OFFCURVE",
"30 471 CURVE SMOOTH",
"30 404 OFFCURVE",
"87 359 OFFCURVE",
"169 359 CURVE SMOOTH"
);
}
);
width = 415;
},
{
layerId = "FF6420B2-C0A6-48EA-9EF6-B9F37DCCE47B";
paths = (
{
closed = 1;
nodes = (
"259 359 OFFCURVE",
"293 375 OFFCURVE",
"331 418 CURVE",
"304 415 LINE",
"294 367 LINE",
"396 367 LINE",
"443 592 LINE SMOOTH",
"462 681 OFFCURVE",
"400 752 OFFCURVE",
"287 752 CURVE SMOOTH",
"216 752 OFFCURVE",
"158 722 OFFCURVE",
"126 665 CURVE",
"208 611 LINE",
"224 640 OFFCURVE",
"252 657 OFFCURVE",
"284 657 CURVE SMOOTH",
"321 657 OFFCURVE",
"342 635 OFFCURVE",
"336 604 CURVE SMOOTH",
"314 498 LINE SMOOTH",
"307 463 OFFCURVE",
"272 436 OFFCURVE",
"232 436 CURVE SMOOTH",
"203 436 OFFCURVE",
"185 447 OFFCURVE",
"185 467 CURVE SMOOTH",
"185 485 OFFCURVE",
"196 499 OFFCURVE",
"218 502 CURVE SMOOTH",
"328 515 LINE",
"345 592 LINE",
"216 579 LINE SMOOTH",
"127 570 OFFCURVE",
"72 528 OFFCURVE",
"72 463 CURVE SMOOTH",
"72 402 OFFCURVE",
"127 359 OFFCURVE",
"208 359 CURVE SMOOTH"
);
}
);
width = 417;
}
);
leftMetricsKey = "=a";
rightMetricsKey = "=a";
unicode = 00AA;
},
{
glyphname = ordmasculine;
lastChange = "2020-02-21 16:33:14 +0000";
layers = (
{
layerId = "30C2FD74-1A74-41AC-9C29-B288AE1DBDD7";
paths = (
{
closed = 1;
nodes = (
"359 359 OFFCURVE",
"444 442 OFFCURVE",
"444 556 CURVE SMOOTH",
"444 670 OFFCURVE",
"359 752 OFFCURVE",
"250 752 CURVE SMOOTH",
"140 752 OFFCURVE",
"55 670 OFFCURVE",
"55 556 CURVE SMOOTH",
"55 442 OFFCURVE",
"140 359 OFFCURVE",
"250 359 CURVE SMOOTH"
);
},
{
closed = 1;
nodes = (
"178 421 OFFCURVE",
"124 478 OFFCURVE",
"124 555 CURVE SMOOTH",
"124 632 OFFCURVE",
"178 690 OFFCURVE",
"250 690 CURVE SMOOTH",
"321 690 OFFCURVE",
"376 632 OFFCURVE",
"376 555 CURVE SMOOTH",
"376 478 OFFCURVE",
"321 421 OFFCURVE",
"250 421 CURVE SMOOTH"
);
}
);
width = 499;
},
{
layerId = "0E6515C6-4BDD-456A-90F7-F5B263F1D284";
paths = (
{
closed = 1;
nodes = (
"412 359 OFFCURVE",
"509 458 OFFCURVE",
"509 579 CURVE SMOOTH",
"509 681 OFFCURVE",
"435 752 OFFCURVE",
"333 752 CURVE SMOOTH",
"211 752 OFFCURVE",
"117 654 OFFCURVE",
"117 533 CURVE SMOOTH",
"117 430 OFFCURVE",
"191 359 OFFCURVE",
"292 359 CURVE SMOOTH"
);
},
{
closed = 1;
nodes = (
"233 421 OFFCURVE",
"186 470 OFFCURVE",
"186 539 CURVE SMOOTH",
"186 622 OFFCURVE",
"250 690 OFFCURVE",
"327 690 CURVE SMOOTH",
"393 690 OFFCURVE",
"440 640 OFFCURVE",
"440 572 CURVE SMOOTH",
"440 488 OFFCURVE",
"376 421 OFFCURVE",
"299 421 CURVE SMOOTH"
);
}
);
width = 503;
},
{
layerId = "9398AC28-6BE1-4A79-9C94-3CBC2F226CE7";
paths = (
{
closed = 1;
nodes = (
"344 359 OFFCURVE",
"435 441 OFFCURVE",
"435 556 CURVE SMOOTH",
"435 669 OFFCURVE",
"345 752 OFFCURVE",
"232 752 CURVE SMOOTH",
"120 752 OFFCURVE",
"30 669 OFFCURVE",
"30 556 CURVE SMOOTH",
"30 442 OFFCURVE",
"120 359 OFFCURVE",
"232 359 CURVE SMOOTH"
);
},
{
closed = 1;
nodes = (
"179 457 OFFCURVE",
"144 497 OFFCURVE",
"144 555 CURVE SMOOTH",
"144 612 OFFCURVE",
"178 653 OFFCURVE",
"232 653 CURVE SMOOTH",
"286 653 OFFCURVE",
"321 613 OFFCURVE",
"321 555 CURVE SMOOTH",
"321 497 OFFCURVE",
"286 457 OFFCURVE",
"232 457 CURVE SMOOTH"
);
}
);
width = 465;
},
{
layerId = "FF6420B2-C0A6-48EA-9EF6-B9F37DCCE47B";
paths = (
{
closed = 1;
nodes = (
"396 359 OFFCURVE",
"497 457 OFFCURVE",
"497 578 CURVE SMOOTH",
"497 680 OFFCURVE",
"418 752 OFFCURVE",
"314 752 CURVE SMOOTH",
"184 752 OFFCURVE",
"90 654 OFFCURVE",
"90 534 CURVE SMOOTH",
"90 431 OFFCURVE",
"168 359 OFFCURVE",
"273 359 CURVE SMOOTH"
);
},
{
closed = 1;
nodes = (
"234 457 OFFCURVE",
"204 491 OFFCURVE",
"204 541 CURVE SMOOTH",
"204 606 OFFCURVE",
"247 653 OFFCURVE",
"304 653 CURVE SMOOTH",
"353 653 OFFCURVE",
"384 618 OFFCURVE",
"384 569 CURVE SMOOTH",
"384 505 OFFCURVE",
"341 457 OFFCURVE",
"283 457 CURVE SMOOTH"
);
}
);
width = 468;
}
);
leftMetricsKey = "=o";
rightMetricsKey = "=o";
unicode = 00BA;
},
{
glyphname = Delta;
lastChange = "2020-02-21 18:23:59 +0000";
layers = (
{
layerId = "30C2FD74-1A74-41AC-9C29-B288AE1DBDD7";
paths = (
{
closed = 1;
nodes = (
"621 0 LINE",
"621 65 LINE",
"362 745 LINE",
"299 745 LINE",
"40 65 LINE",
"40 0 LINE"
);
},
{
closed = 1;
nodes = (
"330 625 LINE",
"534 75 LINE",
"127 75 LINE"
);
}
);
width = 661;
},
{
layerId = "9398AC28-6BE1-4A79-9C94-3CBC2F226CE7";
paths = (
{
closed = 1;
nodes = (
"622 0 LINE",
"622 100 LINE",
"366 745 LINE",
"271 745 LINE",
"15 100 LINE",
"15 0 LINE"
);
},
{
closed = 1;
nodes = (
"318 491 LINE",
"461 126 LINE",
"176 126 LINE"
);
}
);
width = 637;
},
{
layerId = "FF6420B2-C0A6-48EA-9EF6-B9F37DCCE47B";
paths = (
{
closed = 1;
nodes = (
"584 0 LINE",
"584 100 LINE",
"328 745 LINE",
"233 745 LINE",
"-23 100 LINE",
"-23 0 LINE"
);
},
{
closed = 1;
nodes = (
"280 491 LINE",
"423 126 LINE",
"138 126 LINE"
);
}
);
width = 658;
},
{
layerId = "0E6515C6-4BDD-456A-90F7-F5B263F1D284";
paths = (
{
closed = 1;
nodes = (
"578 0 LINE",
"578 65 LINE",
"319 745 LINE",
"256 745 LINE",
"-3 65 LINE",
"-3 0 LINE"
);
},
{
closed = 1;
nodes = (
"287 625 LINE",
"491 75 LINE",
"84 75 LINE"
);
}
);
width = 675;
}
);
leftKerningGroup = A;
leftMetricsKey = "=A";
rightKerningGroup = A;
rightMetricsKey = "=A";
unicode = 0394;
},
{
glyphname = Omega;
lastChange = "2020-02-21 18:23:59 +0000";
layers = (
{
layerId = "30C2FD74-1A74-41AC-9C29-B288AE1DBDD7";
paths = (
{
closed = 1;
nodes = (
"390 0 LINE",
"390 85 LINE",
"255 116 OFFCURVE",
"167 234 OFFCURVE",
"167 375 CURVE SMOOTH",
"167 529 OFFCURVE",
"291 682 OFFCURVE",
"476 682 CURVE SMOOTH",
"661 682 OFFCURVE",
"785 529 OFFCURVE",
"785 375 CURVE SMOOTH",
"785 233 OFFCURVE",
"695 115 OFFCURVE",
"562 85 CURVE",
"562 0 LINE",
"882 0 LINE",
"882 85 LINE",
"726 85 LINE",
"816 152 OFFCURVE",
"865 255 OFFCURVE",
"865 375 CURVE SMOOTH",
"865 574 OFFCURVE",
"709 757 OFFCURVE",
"476 757 CURVE SMOOTH",
"243 757 OFFCURVE",
"87 574 OFFCURVE",
"87 375 CURVE SMOOTH",
"87 255 OFFCURVE",
"136 152 OFFCURVE",
"226 85 CURVE",
"70 85 LINE",
"70 0 LINE"
);
}
);
width = 952;
},
{
layerId = "9398AC28-6BE1-4A79-9C94-3CBC2F226CE7";
paths = (
{
closed = 1;
nodes = (
"375 0 LINE",
"375 131 LINE",
"270 163 OFFCURVE",
"215 258 OFFCURVE",
"215 366 CURVE SMOOTH",
"215 524 OFFCURVE",
"315 624 OFFCURVE",
"450 624 CURVE SMOOTH",
"587 624 OFFCURVE",
"685 524 OFFCURVE",
"685 366 CURVE SMOOTH",
"685 257 OFFCURVE",
"630 163 OFFCURVE",
"526 131 CURVE",
"526 0 LINE",
"855 1 LINE",
"855 132 LINE",
"742 132 LINE",
"808 194 OFFCURVE",
"835 276 OFFCURVE",
"835 366 CURVE SMOOTH",
"835 601 OFFCURVE",
"667 757 OFFCURVE",
"450 757 CURVE SMOOTH",
"229 757 OFFCURVE",
"65 599 OFFCURVE",
"65 366 CURVE SMOOTH",
"65 280 OFFCURVE",
"90 197 OFFCURVE",
"158 132 CURVE",
"45 132 LINE",
"45 1 LINE"
);
}
);
width = 900;
},
{
layerId = "FF6420B2-C0A6-48EA-9EF6-B9F37DCCE47B";
paths = (
{
closed = 1;
nodes = (
"384 0 LINE",
"384 131 LINE",
"279 163 OFFCURVE",
"224 258 OFFCURVE",
"224 366 CURVE SMOOTH",
"224 524 OFFCURVE",
"324 624 OFFCURVE",
"459 624 CURVE SMOOTH",
"596 624 OFFCURVE",
"694 524 OFFCURVE",
"694 366 CURVE SMOOTH",
"694 257 OFFCURVE",
"639 163 OFFCURVE",
"535 131 CURVE",
"535 0 LINE",
"864 1 LINE",
"864 132 LINE",
"751 132 LINE",
"817 194 OFFCURVE",
"844 276 OFFCURVE",
"844 366 CURVE SMOOTH",
"844 601 OFFCURVE",
"676 757 OFFCURVE",
"459 757 CURVE SMOOTH",
"238 757 OFFCURVE",
"74 599 OFFCURVE",
"74 366 CURVE SMOOTH",
"74 280 OFFCURVE",
"99 197 OFFCURVE",
"167 132 CURVE",
"54 132 LINE",
"54 1 LINE"
);
}
);
width = 968;
},
{
layerId = "0E6515C6-4BDD-456A-90F7-F5B263F1D284";
paths = (
{
closed = 1;
nodes = (
"404 0 LINE",
"404 85 LINE",
"269 116 OFFCURVE",
"181 234 OFFCURVE",
"181 375 CURVE SMOOTH",
"181 529 OFFCURVE",
"305 682 OFFCURVE",
"490 682 CURVE SMOOTH",
"675 682 OFFCURVE",
"799 529 OFFCURVE",
"799 375 CURVE SMOOTH",
"799 233 OFFCURVE",
"709 115 OFFCURVE",
"576 85 CURVE",
"576 0 LINE",
"896 0 LINE",
"896 85 LINE",
"740 85 LINE",
"830 152 OFFCURVE",
"879 255 OFFCURVE",
"879 375 CURVE SMOOTH",
"879 574 OFFCURVE",
"723 757 OFFCURVE",
"490 757 CURVE SMOOTH",
"257 757 OFFCURVE",
"101 574 OFFCURVE",
"101 375 CURVE SMOOTH",
"101 255 OFFCURVE",
"150 152 OFFCURVE",
"240 85 CURVE",
"84 85 LINE",
"84 0 LINE"
);
}
);
width = 1023;
}
);
leftKerningGroup = O;
leftMetricsKey = "=O";
rightKerningGroup = O;
rightMetricsKey = "=O";
unicode = 03A9;
},
{
glyphname = pi;
lastChange = "2020-02-21 18:23:59 +0000";
layers = (
{
layerId = "30C2FD74-1A74-41AC-9C29-B288AE1DBDD7";
paths = (
{
closed = 1;
nodes = (
"239 0 LINE",
"239 467 LINE",
"423 467 LINE",
"423 0 LINE",
"493 0 LINE",
"493 467 LINE",
"627 467 LINE",
"627 537 LINE",
"35 537 LINE",
"35 467 LINE",
"169 467 LINE",
"169 0 LINE"
);
}
);
width = 662;
},
{
layerId = "9398AC28-6BE1-4A79-9C94-3CBC2F226CE7";
paths = (
{
closed = 1;
nodes = (
"294 0 LINE",
"294 407 LINE",
"418 407 LINE",
"418 0 LINE",
"568 0 LINE",
"568 407 LINE",
"692 407 LINE",
"692 537 LINE",
"20 537 LINE",
"20 407 LINE",
"144 407 LINE",
"144 0 LINE"
);
}
);
width = 712;
},
{
layerId = "FF6420B2-C0A6-48EA-9EF6-B9F37DCCE47B";
paths = (
{
closed = 1;
nodes = (
"349 0 LINE",
"349 407 LINE",
"473 407 LINE",
"473 0 LINE",
"623 0 LINE",
"623 407 LINE",
"747 407 LINE",
"747 537 LINE",
"75 537 LINE",
"75 407 LINE",
"199 407 LINE",
"199 0 LINE"
);
}
);
width = 739;
},
{
layerId = "0E6515C6-4BDD-456A-90F7-F5B263F1D284";
paths = (
{
closed = 1;
nodes = (
"296 0 LINE",
"296 467 LINE",
"480 467 LINE",
"480 0 LINE",
"550 0 LINE",
"550 467 LINE",
"684 467 LINE",
"684 537 LINE",
"92 537 LINE",
"92 467 LINE",
"226 467 LINE",
"226 0 LINE"
);
}
);
width = 676;
}
);
leftKerningGroup = t;
leftMetricsKey = "=t";
rightKerningGroup = t;
rightMetricsKey = "=|t";
unicode = 03C0;
},
{
glyphname = zero;
lastChange = "2020-02-21 16:33:14 +0000";
layers = (
{
layerId = "30C2FD74-1A74-41AC-9C29-B288AE1DBDD7";
paths = (
{
closed = 1;
nodes = (
"547 -12 OFFCURVE",
"666 142 OFFCURVE",
"666 373 CURVE SMOOTH",
"666 603 OFFCURVE",
"546 757 OFFCURVE",
"368 757 CURVE SMOOTH",
"190 757 OFFCURVE",
"70 603 OFFCURVE",
"70 373 CURVE SMOOTH",
"70 143 OFFCURVE",
"191 -12 OFFCURVE",
"369 -12 CURVE SMOOTH"
);
},
{
closed = 1;
nodes = (
"238 63 OFFCURVE",
"150 188 OFFCURVE",
"150 373 CURVE SMOOTH",
"150 558 OFFCURVE",
"238 682 OFFCURVE",
"368 682 CURVE SMOOTH",
"499 682 OFFCURVE",
"587 558 OFFCURVE",
"587 373 CURVE SMOOTH",
"587 187 OFFCURVE",
"499 63 OFFCURVE",
"369 63 CURVE SMOOTH"
);
}
);
width = 736;
},
{
layerId = "9398AC28-6BE1-4A79-9C94-3CBC2F226CE7";
paths = (
{
closed = 1;
nodes = (
"519 -12 OFFCURVE",
"641 143 OFFCURVE",
"641 373 CURVE SMOOTH",
"641 603 OFFCURVE",
"519 757 OFFCURVE",
"335 757 CURVE SMOOTH",
"153 757 OFFCURVE",
"30 604 OFFCURVE",
"30 373 CURVE SMOOTH",
"30 142 OFFCURVE",
"154 -12 OFFCURVE",
"336 -12 CURVE SMOOTH"
);
},
{
closed = 1;
nodes = (
"241 128 OFFCURVE",
"184 219 OFFCURVE",
"184 373 CURVE SMOOTH",
"184 528 OFFCURVE",
"240 617 OFFCURVE",
"335 617 CURVE SMOOTH",
"431 617 OFFCURVE",
"487 527 OFFCURVE",
"487 373 CURVE SMOOTH",
"487 218 OFFCURVE",
"431 128 OFFCURVE",
"336 128 CURVE SMOOTH"
);
}
);
width = 671;
},
{
layerId = "0E6515C6-4BDD-456A-90F7-F5B263F1D284";
paths = (
{
closed = 1;
nodes = (
"537 -12 OFFCURVE",
"698 203 OFFCURVE",
"698 462 CURVE SMOOTH",
"698 643 OFFCURVE",
"598 757 OFFCURVE",
"442 757 CURVE SMOOTH",
"248 757 OFFCURVE",
"87 542 OFFCURVE",
"87 285 CURVE SMOOTH",
"87 102 OFFCURVE",
"186 -12 OFFCURVE",
"343 -12 CURVE SMOOTH"
);
},
{
closed = 1;
nodes = (
"236 64 OFFCURVE",
"166 151 OFFCURVE",
"166 291 CURVE SMOOTH",
"166 500 OFFCURVE",
"292 681 OFFCURVE",
"437 681 CURVE SMOOTH",
"549 681 OFFCURVE",
"619 596 OFFCURVE",
"619 455 CURVE SMOOTH",
"619 246 OFFCURVE",
"495 64 OFFCURVE",
"350 64 CURVE SMOOTH"
);
}
);
width = 740;
},
{
background = {
paths = (
{
closed = 1;
nodes = (
"289 -11 OFFCURVE",
"299 -12 OFFCURVE",
"310 -12 CURVE SMOOTH",
"474 -12 OFFCURVE",
"609 127 OFFCURVE",
"654 340 CURVE SMOOTH",
"663 383 OFFCURVE",
"667 424 OFFCURVE",
"667 462 CURVE SMOOTH",
"667 627 OFFCURVE",
"584 740 OFFCURVE",
"438 755 CURVE SMOOTH",
"427 756 OFFCURVE",
"417 757 OFFCURVE",
"406 757 CURVE SMOOTH",
"243 757 OFFCURVE",
"107 620 OFFCURVE",
"62 405 CURVE SMOOTH",
"53 363 OFFCURVE",
"49 323 OFFCURVE",
"49 285 CURVE SMOOTH",
"49 119 OFFCURVE",
"133 6 OFFCURVE",
"278 -10 CURVE SMOOTH"
);
},
{
closed = 1;
nodes = (
"243 128 OFFCURVE",
"201 186 OFFCURVE",
"201 285 CURVE SMOOTH",
"201 315 OFFCURVE",
"205 350 OFFCURVE",
"213 387 CURVE SMOOTH",
"243 534 OFFCURVE",
"310 617 OFFCURVE",
"396 617 CURVE SMOOTH",
"473 617 OFFCURVE",
"515 559 OFFCURVE",
"515 460 CURVE SMOOTH",
"515 430 OFFCURVE",
"511 396 OFFCURVE",
"503 358 CURVE SMOOTH",
"473 211 OFFCURVE",
"406 128 OFFCURVE",
"321 128 CURVE SMOOTH"
);
}
);
};
layerId = "FF6420B2-C0A6-48EA-9EF6-B9F37DCCE47B";
paths = (
{
closed = 1;
nodes = (
"507 -12 OFFCURVE",
"671 202 OFFCURVE",
"671 460 CURVE SMOOTH",
"671 637 OFFCURVE",
"562 757 OFFCURVE",
"405 757 CURVE SMOOTH",
"209 757 OFFCURVE",
"45 544 OFFCURVE",
"45 287 CURVE SMOOTH",
"45 110 OFFCURVE",
"154 -12 OFFCURVE",
"310 -12 CURVE SMOOTH"
);
},
{
closed = 1;
nodes = (
"242 128 OFFCURVE",
"197 184 OFFCURVE",
"197 287 CURVE SMOOTH",
"197 472 OFFCURVE",
"291 617 OFFCURVE",
"396 617 CURVE SMOOTH",
"474 617 OFFCURVE",
"518 559 OFFCURVE",
"518 458 CURVE SMOOTH",
"518 275 OFFCURVE",
"425 128 OFFCURVE",
"321 128 CURVE SMOOTH"
);
}
);
width = 676;
}
);
unicode = 0030;
},
{
color = 3;
glyphname = zero.tf;
lastChange = "2020-02-21 16:33:14 +0000";
layers = (
{
layerId = "30C2FD74-1A74-41AC-9C29-B288AE1DBDD7";
paths = (
{
closed = 1;
nodes = (
"469 -12 OFFCURVE",
"581 142 OFFCURVE",
"581 373 CURVE SMOOTH",
"581 604 OFFCURVE",
"468 758 OFFCURVE",
"300 758 CURVE SMOOTH",
"132 758 OFFCURVE",
"19 603 OFFCURVE",
"19 373 CURVE SMOOTH",
"19 143 OFFCURVE",
"133 -12 OFFCURVE",
"301 -12 CURVE SMOOTH"
);
},
{
closed = 1;
nodes = (
"180 63 OFFCURVE",
"98 188 OFFCURVE",
"98 373 CURVE SMOOTH",
"98 559 OFFCURVE",
"180 683 OFFCURVE",
"300 683 CURVE SMOOTH",
"422 683 OFFCURVE",
"503 558 OFFCURVE",
"503 373 CURVE SMOOTH",
"503 188 OFFCURVE",
"422 63 OFFCURVE",
"301 63 CURVE SMOOTH"
);
}
);
width = 600;
},
{
layerId = "9398AC28-6BE1-4A79-9C94-3CBC2F226CE7";
paths = (
{
closed = 1;
nodes = (
"476 -12 OFFCURVE",
"592 144 OFFCURVE",
"592 373 CURVE SMOOTH",
"592 603 OFFCURVE",
"476 758 OFFCURVE",
"300 758 CURVE SMOOTH",
"126 758 OFFCURVE",
"8 605 OFFCURVE",
"8 373 CURVE SMOOTH",
"8 143 OFFCURVE",
"126 -12 OFFCURVE",
"301 -12 CURVE SMOOTH"
);
},
{
closed = 1;
nodes = (
"212 128 OFFCURVE",
"160 219 OFFCURVE",
"160 373 CURVE SMOOTH",
"160 529 OFFCURVE",
"211 618 OFFCURVE",
"300 618 CURVE SMOOTH",
"389 618 OFFCURVE",
"440 528 OFFCURVE",
"440 373 CURVE SMOOTH",
"440 218 OFFCURVE",
"389 128 OFFCURVE",
"301 128 CURVE SMOOTH"
);
}
);
width = 600;
},
{
layerId = "0E6515C6-4BDD-456A-90F7-F5B263F1D284";
paths = (
{
closed = 1;
nodes = (
"459 -12 OFFCURVE",
"615 209 OFFCURVE",
"615 470 CURVE SMOOTH",
"615 646 OFFCURVE",
"522 758 OFFCURVE",
"377 758 CURVE SMOOTH",
"192 758 OFFCURVE",
"36 538 OFFCURVE",
"36 278 CURVE SMOOTH",
"36 99 OFFCURVE",
"128 -12 OFFCURVE",
"274 -12 CURVE SMOOTH"
);
},
{
closed = 1;
nodes = (
"177 64 OFFCURVE",
"114 149 OFFCURVE",
"114 285 CURVE SMOOTH",
"114 495 OFFCURVE",
"234 682 OFFCURVE",
"370 682 CURVE SMOOTH",
"474 682 OFFCURVE",
"537 598 OFFCURVE",
"537 462 CURVE SMOOTH",
"537 250 OFFCURVE",
"417 64 OFFCURVE",
"282 64 CURVE SMOOTH"
);
}
);
width = 605;
},
{
background = {
paths = (
{
closed = 1;
nodes = (
"287 -11 OFFCURVE",
"297 -12 OFFCURVE",
"308 -12 CURVE SMOOTH",
"472 -12 OFFCURVE",
"607 127 OFFCURVE",
"652 340 CURVE SMOOTH",
"661 383 OFFCURVE",
"665 424 OFFCURVE",
"665 462 CURVE SMOOTH",
"665 627 OFFCURVE",
"582 740 OFFCURVE",
"436 755 CURVE SMOOTH",
"425 756 OFFCURVE",
"415 757 OFFCURVE",
"404 757 CURVE SMOOTH",
"241 757 OFFCURVE",
"105 620 OFFCURVE",
"60 405 CURVE SMOOTH",
"51 363 OFFCURVE",
"47 323 OFFCURVE",
"47 285 CURVE SMOOTH",
"47 119 OFFCURVE",
"131 6 OFFCURVE",
"276 -10 CURVE SMOOTH"
);
},
{
closed = 1;
nodes = (
"241 128 OFFCURVE",
"199 186 OFFCURVE",
"199 285 CURVE SMOOTH",
"199 315 OFFCURVE",
"203 350 OFFCURVE",
"211 387 CURVE SMOOTH",
"241 534 OFFCURVE",
"308 617 OFFCURVE",
"394 617 CURVE SMOOTH",
"471 617 OFFCURVE",
"513 559 OFFCURVE",
"513 460 CURVE SMOOTH",
"513 430 OFFCURVE",
"509 396 OFFCURVE",
"501 358 CURVE SMOOTH",
"471 211 OFFCURVE",
"404 128 OFFCURVE",
"319 128 CURVE SMOOTH"
);
}
);
};
layerId = "FF6420B2-C0A6-48EA-9EF6-B9F37DCCE47B";
paths = (
{
closed = 1;
nodes = (
"463 -12 OFFCURVE",
"622 207 OFFCURVE",
"622 466 CURVE SMOOTH",
"622 639 OFFCURVE",
"520 758 OFFCURVE",
"372 758 CURVE SMOOTH",
"182 758 OFFCURVE",
"23 540 OFFCURVE",
"23 282 CURVE SMOOTH",
"23 110 OFFCURVE",
"125 -12 OFFCURVE",
"273 -12 CURVE SMOOTH"
);
},
{
closed = 1;
nodes = (
"213 128 OFFCURVE",
"173 183 OFFCURVE",
"173 283 CURVE SMOOTH",
"173 463 OFFCURVE",
"259 618 OFFCURVE",
"361 618 CURVE SMOOTH",
"432 618 OFFCURVE",
"472 562 OFFCURVE",
"472 463 CURVE SMOOTH",
"472 283 OFFCURVE",
"385 128 OFFCURVE",
"285 128 CURVE SMOOTH"
);
}
);
width = 604;
}
);
},
{
glyphname = one;
lastChange = "2020-02-21 16:33:14 +0000";
layers = (
{
layerId = "30C2FD74-1A74-41AC-9C29-B288AE1DBDD7";
paths = (
{
closed = 1;
nodes = (
"258 0 LINE",
"258 745 LINE",
"188 745 LINE",
"30 695 LINE",
"30 620 LINE",
"177 670 LINE",
"177 0 LINE"
);
}
);
width = 408;
},
{
layerId = "9398AC28-6BE1-4A79-9C94-3CBC2F226CE7";
paths = (
{
closed = 1;
nodes = (
"323 0 LINE",
"323 745 LINE",
"178 745 LINE",
"20 694 LINE",
"20 559 LINE",
"167 609 LINE",
"167 0 LINE"
);
}
);
width = 448;
},
{
layerId = "0E6515C6-4BDD-456A-90F7-F5B263F1D284";
paths = (
{
closed = 1;
nodes = (
"200 0 LINE",
"358 745 LINE",
"288 745 LINE",
"121 695 LINE",
"105 620 LINE",
"262 670 LINE",
"119 0 LINE"
);
}
);
width = 407;
},
{
layerId = "FF6420B2-C0A6-48EA-9EF6-B9F37DCCE47B";
paths = (
{
closed = 1;
nodes = (
"264 0 LINE",
"422 745 LINE",
"277 745 LINE",
"109 694 LINE",
"82 559 LINE",
"239 609 LINE",
"109 0 LINE"
);
}
);
width = 448;
}
);
unicode = 0031;
},
{
color = 3;
glyphname = one.tf;
lastChange = "2020-02-21 16:33:14 +0000";
layers = (
{
layerId = "30C2FD74-1A74-41AC-9C29-B288AE1DBDD7";
paths = (
{
closed = 1;
nodes = (
"340 0 LINE",
"340 745 LINE",
"270 745 LINE",
"112 695 LINE",
"112 620 LINE",
"259 670 LINE",
"259 0 LINE"
);
},
{
closed = 1;
nodes = (
"550 0 LINE",
"550 70 LINE",
"50 70 LINE",
"50 0 LINE"
);
}
);
width = 600;
},
{
layerId = "9398AC28-6BE1-4A79-9C94-3CBC2F226CE7";
paths = (
{
closed = 1;
nodes = (
"378 0 LINE",
"378 745 LINE",
"233 745 LINE",
"75 694 LINE",
"75 559 LINE",
"222 609 LINE",
"222 0 LINE"
);
},
{
closed = 1;
nodes = (
"564 0 LINE",
"564 130 LINE",
"35 130 LINE",
"36 0 LINE"
);
}
);
width = 600;
},
{
layerId = "0E6515C6-4BDD-456A-90F7-F5B263F1D284";
paths = (
{
closed = 1;
nodes = (
"285 0 LINE",
"443 745 LINE",
"373 745 LINE",
"206 695 LINE",
"190 620 LINE",
"347 670 LINE",
"204 0 LINE"
);
},
{
closed = 1;
nodes = (
"495 0 LINE",
"508 70 LINE",
"8 70 LINE",
"-5 0 LINE"
);
}
);
width = 602;
},
{
layerId = "FF6420B2-C0A6-48EA-9EF6-B9F37DCCE47B";
paths = (
{
closed = 1;
nodes = (
"324 0 LINE",
"482 745 LINE",
"337 745 LINE",
"169 694 LINE",
"142 559 LINE",
"299 609 LINE",
"169 0 LINE"
);
},
{
closed = 1;
nodes = (
"506 0 LINE",
"533 130 LINE",
"4 130 LINE",
"-22 0 LINE"
);
}
);
width = 601;
}
);
},
{
glyphname = two;
lastChange = "2020-02-21 18:23:59 +0000";
layers = (
{
layerId = "30C2FD74-1A74-41AC-9C29-B288AE1DBDD7";
paths = (
{
closed = 1;
nodes = (
"550 0 LINE",
"550 70 LINE",
"173 70 LINE",
"364 268 LINE SMOOTH",
"478 386 OFFCURVE",
"530 464 OFFCURVE",
"530 548 CURVE SMOOTH",
"530 670 OFFCURVE",
"432 757 OFFCURVE",
"300 757 CURVE SMOOTH",
"181 757 OFFCURVE",
"86 693 OFFCURVE",
"50 592 CURVE",
"114 562 LINE",
"144 643 OFFCURVE",
"208 687 OFFCURVE",
"300 687 CURVE SMOOTH",
"394 687 OFFCURVE",
"449 637 OFFCURVE",
"449 548 CURVE SMOOTH",
"449 458 OFFCURVE",
"383 386 OFFCURVE",
"270 269 CURVE SMOOTH",
"58 50 LINE",
"58 0 LINE"
);
}
);
width = 610;
},
{
layerId = "9398AC28-6BE1-4A79-9C94-3CBC2F226CE7";
paths = (
{
closed = 1;
nodes = (
"540 0 LINE",
"540 130 LINE",
"218 130 LINE",
"394 308 LINE SMOOTH",
"485 400 OFFCURVE",
"531 467 OFFCURVE",
"531 548 CURVE SMOOTH",
"531 673 OFFCURVE",
"432 757 OFFCURVE",
"289 757 CURVE SMOOTH",
"164 757 OFFCURVE",
"62 694 OFFCURVE",
"28 594 CURVE",
"150 524 LINE",
"171 582 OFFCURVE",
"219 617 OFFCURVE",
"279 617 CURVE SMOOTH",
"338 617 OFFCURVE",
"375 583 OFFCURVE",
"375 529 CURVE SMOOTH",
"375 482 OFFCURVE",
"348 446 OFFCURVE",
"229 326 CURVE SMOOTH",
"25 120 LINE",
"26 0 LINE"
);
}
);
width = 580;
},
{
background = {
paths = (
{
closed = 1;
nodes = (
"490 0 LINE",
"505 70 LINE",
"135 70 LINE",
"364 262 LINE SMOOTH",
"495 372 OFFCURVE",
"565 440 OFFCURVE",
"583 523 CURVE SMOOTH",
"586 539 OFFCURVE",
"588 554 OFFCURVE",
"588 569 CURVE SMOOTH",
"588 668 OFFCURVE",
"516 743 OFFCURVE",
"404 755 CURVE SMOOTH",
"393 756 OFFCURVE",
"383 757 OFFCURVE",
"372 757 CURVE SMOOTH",
"270 757 OFFCURVE",
"179 704 OFFCURVE",
"128 617 CURVE",
"185 580 LINE",
"225 650 OFFCURVE",
"286 687 OFFCURVE",
"362 687 CURVE SMOOTH",
"456 687 OFFCURVE",
"508 644 OFFCURVE",
"508 571 CURVE SMOOTH",
"508 559 OFFCURVE",
"507 546 OFFCURVE",
"504 532 CURVE SMOOTH",
"487 448 OFFCURVE",
"416 397 OFFCURVE",
"273 273 CURVE SMOOTH",
"17 50 LINE",
"6 0 LINE"
);
}
);
};
layerId = "0E6515C6-4BDD-456A-90F7-F5B263F1D284";
paths = (
{
closed = 1;
nodes = (
"493 0 LINE",
"508 70 LINE",
"142 70 LINE",
"364 262 LINE SMOOTH",
"533 408 OFFCURVE",
"590 472 OFFCURVE",
"590 568 CURVE SMOOTH",
"590 679 OFFCURVE",
"498 757 OFFCURVE",
"371 757 CURVE SMOOTH",
"269 757 OFFCURVE",
"175 705 OFFCURVE",
"124 617 CURVE",
"181 580 LINE",
"220 647 OFFCURVE",
"280 687 OFFCURVE",
"361 687 CURVE SMOOTH",
"456 687 OFFCURVE",
"510 645 OFFCURVE",
"510 570 CURVE SMOOTH",
"510 486 OFFCURVE",
"470 443 OFFCURVE",
"272 273 CURVE SMOOTH",
"13 50 LINE",
"2 0 LINE"
);
}
);
width = 610;
},
{
layerId = "FF6420B2-C0A6-48EA-9EF6-B9F37DCCE47B";
paths = (
{
closed = 1;
nodes = (
"480 0 LINE",
"508 130 LINE",
"196 130 LINE",
"425 328 LINE SMOOTH",
"489 383 OFFCURVE",
"595 462 OFFCURVE",
"595 569 CURVE SMOOTH",
"595 689 OFFCURVE",
"487 757 OFFCURVE",
"357 757 CURVE SMOOTH",
"248 757 OFFCURVE",
"150 706 OFFCURVE",
"101 621 CURVE",
"208 540 LINE",
"238 590 OFFCURVE",
"288 619 OFFCURVE",
"340 619 CURVE SMOOTH",
"397 619 OFFCURVE",
"433 588 OFFCURVE",
"433 542 CURVE SMOOTH",
"433 492 OFFCURVE",
"395 467 OFFCURVE",
"294 380 CURVE SMOOTH",
"-8 120 LINE",
"-33 0 LINE"
);
}
);
width = 579;
}
);
unicode = 0032;
},
{
color = 3;
glyphname = two.tf;
lastChange = "2020-02-21 18:23:59 +0000";
layers = (
{
layerId = "30C2FD74-1A74-41AC-9C29-B288AE1DBDD7";
paths = (
{
closed = 1;
nodes = (
"541 0 LINE",
"541 70 LINE",
"171 70 LINE",
"358 268 LINE SMOOTH",
"457 373 OFFCURVE",
"521 457 OFFCURVE",
"521 549 CURVE SMOOTH",
"521 671 OFFCURVE",
"425 758 OFFCURVE",
"295 758 CURVE SMOOTH",
"178 758 OFFCURVE",
"84 694 OFFCURVE",
"49 593 CURVE",
"113 563 LINE",
"142 644 OFFCURVE",
"205 688 OFFCURVE",
"295 688 CURVE SMOOTH",
"386 688 OFFCURVE",
"441 638 OFFCURVE",
"441 549 CURVE SMOOTH",
"441 464 OFFCURVE",
"389 400 OFFCURVE",
"265 269 CURVE SMOOTH",
"57 50 LINE",
"57 0 LINE"
);
}
);
width = 600;
},
{
layerId = "9398AC28-6BE1-4A79-9C94-3CBC2F226CE7";
paths = (
{
closed = 1;
nodes = (
"550 0 LINE",
"550 130 LINE",
"228 130 LINE",
"405 308 LINE SMOOTH",
"491 394 OFFCURVE",
"541 465 OFFCURVE",
"541 549 CURVE SMOOTH",
"541 674 OFFCURVE",
"443 758 OFFCURVE",
"299 758 CURVE SMOOTH",
"174 758 OFFCURVE",
"72 695 OFFCURVE",
"38 595 CURVE",
"160 525 LINE",
"181 583 OFFCURVE",
"229 618 OFFCURVE",
"289 618 CURVE SMOOTH",
"348 618 OFFCURVE",
"386 584 OFFCURVE",
"386 530 CURVE SMOOTH",
"386 483 OFFCURVE",
"360 448 OFFCURVE",
"239 326 CURVE SMOOTH",
"35 120 LINE",
"36 0 LINE"
);
}
);
width = 600;
},
{
background = {
paths = (
{
closed = 1;
nodes = (
"487 0 LINE",
"502 70 LINE",
"132 70 LINE",
"361 262 LINE SMOOTH",
"492 372 OFFCURVE",
"562 440 OFFCURVE",
"580 523 CURVE SMOOTH",
"583 539 OFFCURVE",
"585 554 OFFCURVE",
"585 569 CURVE SMOOTH",
"585 668 OFFCURVE",
"513 743 OFFCURVE",
"401 755 CURVE SMOOTH",
"390 756 OFFCURVE",
"380 757 OFFCURVE",
"369 757 CURVE SMOOTH",
"267 757 OFFCURVE",
"176 704 OFFCURVE",
"125 617 CURVE",
"182 580 LINE",
"222 650 OFFCURVE",
"283 687 OFFCURVE",
"359 687 CURVE SMOOTH",
"453 687 OFFCURVE",
"505 644 OFFCURVE",
"505 571 CURVE SMOOTH",
"505 559 OFFCURVE",
"504 546 OFFCURVE",
"501 532 CURVE SMOOTH",
"484 448 OFFCURVE",
"413 397 OFFCURVE",
"270 273 CURVE SMOOTH",
"14 50 LINE",
"3 0 LINE"
);
}
);
};
layerId = "0E6515C6-4BDD-456A-90F7-F5B263F1D284";
paths = (
{
closed = 1;
nodes = (
"485 0 LINE",
"501 70 LINE",
"141 70 LINE",
"360 262 LINE SMOOTH",
"525 406 OFFCURVE",
"584 473 OFFCURVE",
"584 570 CURVE SMOOTH",
"584 680 OFFCURVE",
"493 758 OFFCURVE",
"368 758 CURVE SMOOTH",
"268 758 OFFCURVE",
"175 706 OFFCURVE",
"124 618 CURVE",
"181 581 LINE",
"221 651 OFFCURVE",
"283 688 OFFCURVE",
"358 688 CURVE SMOOTH",
"450 688 OFFCURVE",
"504 646 OFFCURVE",
"504 572 CURVE SMOOTH",
"504 482 OFFCURVE",
"452 432 OFFCURVE",
"269 273 CURVE SMOOTH",
"13 50 LINE",
"2 0 LINE"
);
}
);
width = 602;
},
{
layerId = "FF6420B2-C0A6-48EA-9EF6-B9F37DCCE47B";
paths = (
{
closed = 1;
nodes = (
"490 0 LINE",
"518 130 LINE",
"207 130 LINE",
"436 328 LINE SMOOTH",
"500 383 OFFCURVE",
"606 463 OFFCURVE",
"606 569 CURVE SMOOTH",
"606 689 OFFCURVE",
"498 758 OFFCURVE",
"367 758 CURVE SMOOTH",
"259 758 OFFCURVE",
"160 707 OFFCURVE",
"111 622 CURVE",
"218 541 LINE",
"248 591 OFFCURVE",
"298 620 OFFCURVE",
"350 620 CURVE SMOOTH",
"408 620 OFFCURVE",
"444 589 OFFCURVE",
"444 542 CURVE SMOOTH",
"444 492 OFFCURVE",
"406 468 OFFCURVE",
"304 380 CURVE SMOOTH",
"2 120 LINE",
"-23 0 LINE"
);
}
);
width = 599;
}
);
},
{
glyphname = three;
lastChange = "2020-02-21 18:23:59 +0000";
layers = (
{
layerId = "30C2FD74-1A74-41AC-9C29-B288AE1DBDD7";
paths = (
{
closed = 1;
nodes = (
"449 -12 OFFCURVE",
"555 87 OFFCURVE",
"555 224 CURVE SMOOTH",
"555 351 OFFCURVE",
"457 455 OFFCURVE",
"334 461 CURVE",
"334 438 LINE",
"526 675 LINE",
"526 745 LINE",
"86 745 LINE",
"86 675 LINE",
"435 674 LINE",
"240 429 LINE",
"247 385 LINE",
"260 387 OFFCURVE",
"283 389 OFFCURVE",
"301 389 CURVE SMOOTH",
"402 389 OFFCURVE",
"475 320 OFFCURVE",
"475 224 CURVE SMOOTH",
"475 126 OFFCURVE",
"404 58 OFFCURVE",
"302 58 CURVE SMOOTH",
"217 58 OFFCURVE",
"145 106 OFFCURVE",
"114 183 CURVE",
"50 153 LINE",
"89 50 OFFCURVE",
"184 -12 OFFCURVE",
"302 -12 CURVE SMOOTH"
);
}
);
width = 615;
},
{
layerId = "9398AC28-6BE1-4A79-9C94-3CBC2F226CE7";
paths = (
{
closed = 1;
nodes = (
"443 -12 OFFCURVE",
"562 98 OFFCURVE",
"562 247 CURVE SMOOTH",
"562 377 OFFCURVE",
"472 464 OFFCURVE",
"337 465 CURVE",
"330 402 LINE",
"532 625 LINE",
"532 745 LINE",
"60 745 LINE",
"60 615 LINE",
"358 615 LINE",
"163 407 LINE",
"199 332 LINE",
"223 344 OFFCURVE",
"253 351 OFFCURVE",
"283 351 CURVE SMOOTH",
"360 351 OFFCURVE",
"407 309 OFFCURVE",
"407 241 CURVE SMOOTH",
"407 172 OFFCURVE",
"358 128 OFFCURVE",
"283 128 CURVE SMOOTH",
"218 128 OFFCURVE",
"170 161 OFFCURVE",
"147 221 CURVE",
"25 151 LINE",
"63 51 OFFCURVE",
"162 -12 OFFCURVE",
"283 -12 CURVE SMOOTH"
);
}
);
width = 602;
},
{
layerId = "0E6515C6-4BDD-456A-90F7-F5B263F1D284";
paths = (
{
closed = 1;
nodes = (
"428 -12 OFFCURVE",
"548 106 OFFCURVE",
"548 250 CURVE SMOOTH",
"548 354 OFFCURVE",
"478 442 OFFCURVE",
"376 457 CURVE",
"365 434 LINE",
"621 675 LINE",
"636 745 LINE",
"198 745 LINE",
"183 675 LINE",
"524 674 LINE",
"276 435 LINE",
"274 391 LINE",
"287 391 OFFCURVE",
"310 391 OFFCURVE",
"329 389 CURVE SMOOTH",
"414 380 OFFCURVE",
"467 323 OFFCURVE",
"467 244 CURVE SMOOTH",
"467 145 OFFCURVE",
"390 59 OFFCURVE",
"283 59 CURVE SMOOTH",
"187 59 OFFCURVE",
"117 117 OFFCURVE",
"102 203 CURVE",
"32 180 LINE",
"51 60 OFFCURVE",
"152 -12 OFFCURVE",
"277 -12 CURVE SMOOTH"
);
}
);
width = 617;
},
{
layerId = "FF6420B2-C0A6-48EA-9EF6-B9F37DCCE47B";
paths = (
{
closed = 1;
nodes = (
"421 -12 OFFCURVE",
"556 116 OFFCURVE",
"556 273 CURVE SMOOTH",
"556 375 OFFCURVE",
"488 446 OFFCURVE",
"377 459 CURVE",
"337 397 LINE",
"609 625 LINE",
"633 745 LINE",
"163 745 LINE",
"136 615 LINE",
"433 615 LINE",
"192 419 LINE",
"212 341 LINE",
"232 348 OFFCURVE",
"258 352 OFFCURVE",
"280 352 CURVE SMOOTH",
"356 352 OFFCURVE",
"400 314 OFFCURVE",
"400 257 CURVE SMOOTH",
"400 185 OFFCURVE",
"348 128 OFFCURVE",
"268 128 CURVE SMOOTH",
"197 128 OFFCURVE",
"150 166 OFFCURVE",
"139 236 CURVE",
"4 179 LINE",
"23 61 OFFCURVE",
"131 -12 OFFCURVE",
"257 -12 CURVE SMOOTH"
);
}
);
width = 603;
}
);
unicode = 0033;
},
{
color = 3;
glyphname = three.tf;
lastChange = "2020-02-21 18:23:59 +0000";
layers = (
{
layerId = "30C2FD74-1A74-41AC-9C29-B288AE1DBDD7";
paths = (
{
closed = 1;
nodes = (
"438 -12 OFFCURVE",
"543 87 OFFCURVE",
"543 224 CURVE SMOOTH",
"543 350 OFFCURVE",
"447 456 OFFCURVE",
"326 462 CURVE",
"326 439 LINE",
"514 676 LINE",
"514 746 LINE",
"82 746 LINE",
"82 676 LINE",
"424 675 LINE",
"232 430 LINE",
"239 386 LINE",
"249 387 OFFCURVE",
"274 390 OFFCURVE",
"293 390 CURVE SMOOTH",
"392 390 OFFCURVE",
"463 320 OFFCURVE",
"463 224 CURVE SMOOTH",
"463 127 OFFCURVE",
"394 58 OFFCURVE",
"294 58 CURVE SMOOTH",
"211 58 OFFCURVE",
"141 106 OFFCURVE",
"111 183 CURVE",
"47 153 LINE",
"85 50 OFFCURVE",
"179 -12 OFFCURVE",
"294 -12 CURVE SMOOTH"
);
}
);
width = 600;
},
{
layerId = "9398AC28-6BE1-4A79-9C94-3CBC2F226CE7";
paths = (
{
closed = 1;
nodes = (
"440 -12 OFFCURVE",
"558 98 OFFCURVE",
"558 247 CURVE SMOOTH",
"558 381 OFFCURVE",
"465 465 OFFCURVE",
"336 466 CURVE",
"329 403 LINE",
"528 626 LINE",
"528 746 LINE",
"61 746 LINE",
"61 616 LINE",
"355 616 LINE",
"162 408 LINE",
"198 333 LINE",
"223 345 OFFCURVE",
"253 352 OFFCURVE",
"282 352 CURVE SMOOTH",
"357 352 OFFCURVE",
"403 309 OFFCURVE",
"403 241 CURVE SMOOTH",
"403 172 OFFCURVE",
"355 128 OFFCURVE",
"282 128 CURVE SMOOTH",
"218 128 OFFCURVE",
"171 161 OFFCURVE",
"149 221 CURVE",
"27 151 LINE",
"64 51 OFFCURVE",
"162 -12 OFFCURVE",
"282 -12 CURVE SMOOTH"
);
}
);
width = 600;
},
{
layerId = "0E6515C6-4BDD-456A-90F7-F5B263F1D284";
paths = (
{
closed = 1;
nodes = (
"418 -12 OFFCURVE",
"537 106 OFFCURVE",
"537 252 CURVE SMOOTH",
"537 357 OFFCURVE",
"467 443 OFFCURVE",
"368 458 CURVE",
"357 435 LINE",
"610 676 LINE",
"625 746 LINE",
"194 746 LINE",
"179 676 LINE",
"513 675 LINE",
"269 436 LINE",
"267 392 LINE",
"278 392 OFFCURVE",
"303 392 OFFCURVE",
"319 390 CURVE SMOOTH",
"408 380 OFFCURVE",
"456 321 OFFCURVE",
"456 246 CURVE SMOOTH",
"456 145 OFFCURVE",
"380 59 OFFCURVE",
"275 59 CURVE SMOOTH",
"181 59 OFFCURVE",
"113 117 OFFCURVE",
"99 203 CURVE",
"29 180 LINE",
"47 60 OFFCURVE",
"147 -12 OFFCURVE",
"269 -12 CURVE SMOOTH"
);
}
);
width = 603;
},
{
layerId = "FF6420B2-C0A6-48EA-9EF6-B9F37DCCE47B";
paths = (
{
closed = 1;
nodes = (
"418 -12 OFFCURVE",
"553 116 OFFCURVE",
"553 274 CURVE SMOOTH",
"553 372 OFFCURVE",
"490 446 OFFCURVE",
"375 460 CURVE",
"336 398 LINE",
"605 626 LINE",
"630 746 LINE",
"164 746 LINE",
"137 616 LINE",
"430 616 LINE",
"191 420 LINE",
"211 342 LINE",
"229 348 OFFCURVE",
"255 353 OFFCURVE",
"278 353 CURVE SMOOTH",
"354 353 OFFCURVE",
"397 314 OFFCURVE",
"397 257 CURVE SMOOTH",
"397 185 OFFCURVE",
"345 128 OFFCURVE",
"267 128 CURVE SMOOTH",
"195 128 OFFCURVE",
"151 169 OFFCURVE",
"141 236 CURVE",
"6 179 LINE",
"24 61 OFFCURVE",
"132 -12 OFFCURVE",
"255 -12 CURVE SMOOTH"
);
}
);
width = 602;
}
);
},
{
glyphname = four;
lastChange = "2020-02-21 16:33:14 +0000";
layers = (
{
layerId = "30C2FD74-1A74-41AC-9C29-B288AE1DBDD7";
paths = (
{
closed = 1;
nodes = (
"506 241 LINE",
"506 745 LINE",
"436 745 LINE",
"40 241 LINE",
"40 176 LINE",
"436 176 LINE",
"436 0 LINE",
"506 0 LINE",
"506 176 LINE",
"603 176 LINE",
"603 241 LINE"
);
},
{
closed = 1;
nodes = (
"436 640 LINE",
"436 241 LINE",
"124 241 LINE"
);
}
);
width = 653;
},
{
layerId = "9398AC28-6BE1-4A79-9C94-3CBC2F226CE7";
paths = (
{
closed = 1;
nodes = (
"532 290 LINE",
"532 745 LINE",
"367 745 LINE",
"30 290 LINE",
"30 160 LINE",
"377 160 LINE",
"377 0 LINE",
"532 0 LINE",
"532 160 LINE",
"657 160 LINE",
"657 290 LINE"
);
},
{
closed = 1;
nodes = (
"377 558 LINE",
"377 290 LINE",
"181 290 LINE"
);
}
);
width = 677;
},
{
layerId = "0E6515C6-4BDD-456A-90F7-F5B263F1D284";
paths = (
{
closed = 1;
nodes = (
"500 241 LINE",
"607 745 LINE",
"537 745 LINE",
"35 241 LINE",
"21 176 LINE",
"416 176 LINE",
"379 0 LINE",
"449 0 LINE",
"486 176 LINE",
"583 176 LINE",
"597 241 LINE"
);
},
{
closed = 1;
nodes = (
"514 630 LINE",
"430 241 LINE",
"120 241 LINE"
);
}
);
width = 653;
},
{
layerId = "FF6420B2-C0A6-48EA-9EF6-B9F37DCCE47B";
paths = (
{
closed = 1;
nodes = (
"534 290 LINE",
"632 745 LINE",
"467 745 LINE",
"33 290 LINE",
"6 160 LINE",
"353 160 LINE",
"319 0 LINE",
"474 0 LINE",
"508 160 LINE",
"633 160 LINE",
"660 290 LINE"
);
},
{
closed = 1;
nodes = (
"437 558 LINE",
"379 290 LINE",
"184 290 LINE"
);
}
);
width = 678;
}
);
unicode = 0034;
},
